<svg width="18" height="18" viewBox="0 0 18 18" fill="none" xmlns="http://www.w3.org/2000/svg">
<path d="M17.9998 8.42549C17.9782 8.44893 17.9782 8.47237 17.9998 8.49535V8.70585C17.9721 8.77618 17.9721 8.84603 17.9998 8.91636V9.12686C17.9721 9.19719 17.9721 9.26704 17.9998 9.33737V9.51271C17.9782 9.53193 17.9829 9.55819 17.9819 9.58256V9.60179C17.9819 9.62007 17.9838 9.63836 17.9998 9.65289V9.79307C17.9246 9.9295 17.9415 10.0828 17.9209 10.2286C17.6836 11.892 17.0475 13.3857 15.9759 14.6816C14.5041 16.4612 12.623 17.541 10.3323 17.9015C10.1496 17.9301 9.9593 17.9198 9.78219 17.9835C9.78172 17.9831 9.78125 17.9831 9.78125 17.9835C9.76622 17.9845 9.75118 17.9882 9.73897 17.9999H9.4228C9.36407 17.9718 9.30535 17.9718 9.24663 17.9999H8.75476C8.68429 17.9718 8.61429 17.9718 8.54382 17.9999H8.22765C8.20745 17.947 8.15953 17.9657 8.12242 17.9601C7.80437 17.9109 7.48303 17.878 7.16874 17.8119C2.54599 16.8377 -0.557452 12.4865 0.0838136 7.83383C0.45354 5.15165 1.78117 3.01425 4.05308 1.54213C5.36051 0.695419 6.70928 0.194709 8.08201 0.0470272C8.09517 0.0465584 8.10832 0.0456207 8.12148 0.0451519C8.66549 0.0165532 9.20904 0.0179597 9.75212 0.0399947C10.7922 0.142669 11.8418 0.444126 12.8936 0.947181C15.7232 2.30116 17.3773 4.61015 17.9025 7.70865C17.934 7.89243 17.926 8.08278 17.9805 8.26281C17.981 8.2825 17.9857 8.30219 17.9998 8.32001V8.42549Z" fill="#4BAD4F"/>
<path d="M9.29851 0.0108053H8.5957C8.82919 -0.00360177 9.06362 -0.00360177 9.29851 0.0108053Z" fill="#FEFEFE"/>
<path d="M17.998 8.91675C17.9557 8.84628 17.9519 8.77628 17.998 8.70581C17.998 8.77628 17.998 8.84675 17.998 8.91675Z" fill="#5AB45E"/>
<path d="M17.998 9.33777C17.9519 9.2673 17.9557 9.1973 17.998 9.12683C17.998 9.1973 17.998 9.2673 17.998 9.33777Z" fill="#5AB45E"/>
<path d="M8.54492 18C8.61539 17.9469 8.68539 17.9596 8.75586 18C8.68586 18 8.61539 18 8.54492 18Z" fill="#6EBE72"/>
<path d="M9.24805 18C9.30677 17.9629 9.36503 17.9512 9.42375 18C9.36503 18 9.30677 18 9.24805 18Z" fill="#6EBE72"/>
<path d="M17.9985 8.49595C17.9665 8.47246 17.9567 8.44897 17.9985 8.42548C17.9985 8.44897 17.9985 8.47246 17.9985 8.49595Z" fill="#A8D7AA"/>
<path d="M17.9697 9.5846C17.9664 9.55501 17.9711 9.52917 17.9993 9.51273C17.9993 9.53622 17.9993 9.55971 17.9993 9.58319C17.9908 9.6095 17.9809 9.60997 17.9697 9.5846Z" fill="#9DD39F"/>
<path d="M17.9703 9.58448C17.9801 9.58495 17.99 9.58448 17.9999 9.58307C17.9999 9.60656 17.9999 9.63005 17.9999 9.65354C17.9646 9.64132 17.9675 9.61314 17.9703 9.58448Z" fill="#B4DDB5"/>
<path d="M4.48877 9.01244C4.49488 8.78927 4.59447 8.62003 4.79742 8.52204C5.00601 8.42124 5.20943 8.44374 5.39077 8.58533C5.48707 8.66034 5.57023 8.7527 5.65714 8.83944C6.29512 9.47517 6.93497 10.109 7.56778 10.7504C7.66315 10.847 7.70778 10.8362 7.79704 10.7466C9.33467 9.207 10.8756 7.67111 12.416 6.13429C12.4701 6.08037 12.5217 6.02458 12.579 5.97489C12.8078 5.7761 13.1306 5.78267 13.3429 5.98848C13.5506 6.19008 13.5675 6.52389 13.3796 6.75267C13.3392 6.80237 13.2917 6.84691 13.2462 6.89239C11.5568 8.5783 9.86741 10.2637 8.17804 11.9492C7.82147 12.305 7.54147 12.3055 7.18725 11.9525C6.35901 11.1264 5.53171 10.2994 4.70205 9.4747C4.57192 9.34531 4.48078 9.20325 4.48877 9.01244Z" fill="#FEFEFE"/>
</svg>
