<svg width="17" height="17" viewBox="0 0 17 17" fill="none" xmlns="http://www.w3.org/2000/svg">
<path d="M8.67737 9.61995C10.378 7.66621 12.1015 5.71247 13.8135 3.74737C14.0532 3.48611 14.3272 3.4066 14.6582 3.50883C15.0006 3.62242 15.2517 3.82688 15.2859 4.21308C15.2973 4.47434 15.2174 4.71288 15.0348 4.9287C13.7565 6.38265 12.4781 7.83659 11.1884 9.3019C10.5264 10.063 9.85298 10.824 9.19099 11.5737C9.00837 11.7782 8.80292 11.9031 8.52899 11.8917C8.31213 11.9031 8.1181 11.8236 7.96972 11.6646L5.36739 9.07472C5.03639 8.73395 5.03639 8.24552 5.36739 7.91611C5.7098 7.57534 6.18918 7.55262 6.55442 7.88203C7.17076 8.46134 7.77568 9.04064 8.38061 9.63131C8.50616 9.7449 8.56323 9.7449 8.67737 9.61995Z" fill="#010101"/>
<path d="M17 8.35907C17 10.2674 16.4636 12.0053 15.3108 13.5274C13.8042 15.5266 11.7839 16.7079 9.27291 16.9464C4.81015 17.3667 0.91807 14.3907 0.130523 9.97204C-0.5543 6.21222 1.51158 2.33881 5.01559 0.759913C6.78472 -0.0352146 8.5995 -0.19424 10.4828 0.226042C10.6426 0.260119 10.7909 0.294196 10.9279 0.385067C11.2931 0.623606 11.4073 0.964375 11.2361 1.35058C11.0649 1.7595 10.654 1.97532 10.2659 1.89581C9.06746 1.63455 7.85761 1.57776 6.682 1.94125C4.09108 2.73637 2.50458 4.48566 1.85399 7.08686C1.73986 7.55258 1.71703 8.02965 1.70562 8.47265C1.72844 11.8576 4.21663 14.7428 7.52661 15.2199C11.2018 15.7651 14.6374 13.2889 15.2765 9.63127C15.345 9.2337 15.3564 8.83614 15.3793 8.43858C15.4021 7.80247 16.0641 7.43899 16.6233 7.74568C16.863 7.88199 17 8.08645 17 8.35907Z" fill="#010101"/>
<path d="M17 8.35907C17 10.2674 16.4636 12.0053 15.3108 13.5274C13.8042 15.5266 11.7839 16.7079 9.27291 16.9464C4.81015 17.3667 0.91807 14.3907 0.130523 9.97204C-0.5543 6.21222 1.51158 2.33881 5.01559 0.759913C6.78472 -0.0352146 8.5995 -0.19424 10.4828 0.226042C10.6426 0.260119 10.7909 0.294196 10.9279 0.385067C11.2931 0.623606 11.4073 0.964375 11.2361 1.35058C11.0649 1.7595 10.654 1.97532 10.2659 1.89581C9.06746 1.63455 7.85761 1.57776 6.682 1.94125C4.09108 2.73637 2.50458 4.48566 1.85399 7.08686C1.73986 7.55258 1.71703 8.02965 1.70562 8.47265C1.72844 11.8576 4.21663 14.7428 7.52661 15.2199C11.2018 15.7651 14.6374 13.2889 15.2765 9.63127C15.345 9.2337 15.3564 8.83614 15.3793 8.43858C15.4021 7.80247 16.0641 7.43899 16.6233 7.74568C16.863 7.88199 17 8.08645 17 8.35907Z" fill="#010101"/>
<path d="M15.2859 4.21308C15.2973 4.47434 15.2174 4.71288 15.0348 4.9287C13.7565 6.38265 12.4781 7.83659 11.1884 9.3019C10.5264 10.063 9.85298 10.824 9.19099 11.5737C9.00837 11.7782 8.80292 11.9031 8.52899 11.8917C8.31213 11.9031 8.1181 11.8236 7.96972 11.6646L5.36739 9.07472C5.03639 8.73395 5.03639 8.24552 5.36739 7.91611C5.7098 7.57534 6.18918 7.55262 6.55442 7.88203C7.17076 8.46134 7.77568 9.04064 8.38061 9.63131C8.50616 9.7449 8.56323 9.7449 8.67737 9.61995C10.378 7.66621 12.1015 5.71247 13.8135 3.74737C14.0532 3.48611 14.3272 3.4066 14.6582 3.50883C15.0006 3.62242 15.2517 3.82688 15.2859 4.21308Z" fill="#010101"/>
</svg>
