<svg width="100" height="100" viewBox="0 0 100 100" fill="none" xmlns="http://www.w3.org/2000/svg">
<path d="M95.3255 69.2741C92.0545 70.4559 88.8279 71.694 85.5422 72.8196C84.3285 73.2276 83.8401 73.8467 83.7957 75.0567C83.6773 78.4755 83.4848 81.8944 83.2924 85.3133C83.248 86.0309 83.2036 86.7625 83.026 87.4519C82.4044 89.9 80.2435 91.4195 77.0909 91.3914C75.4036 91.2788 73.4055 90.5191 71.3482 90.0407C69.1132 89.5061 66.8931 88.9292 64.6878 88.2961C63.6073 87.9865 62.8969 88.1835 62.1865 89.0418C59.8479 91.8838 57.4502 94.6696 55.0821 97.4694C53.75 99.0311 52.1663 100.129 49.9314 99.9879C47.9925 99.8612 46.5716 98.8482 45.4023 97.4694C43.0046 94.6414 40.592 91.8275 38.2387 88.9714C37.5727 88.1695 36.9362 87.9866 35.915 88.2679C32.4072 89.2528 28.855 90.1673 25.3324 91.11C20.6553 92.3622 17.0587 89.9 16.9699 85.2711C16.9107 81.8522 16.4815 78.4333 16.4223 75.0144C16.4075 73.903 15.9487 73.312 14.809 72.9181C11.316 71.7222 7.88221 70.4278 4.41881 69.1615C0.0673699 67.5717 -1.1611 64.0965 1.34024 60.354C3.30875 57.4135 5.29206 54.4729 7.33458 51.5605C8.07462 50.5194 8.13382 49.6612 7.34938 48.5919C5.29206 45.7076 3.32355 42.753 1.32544 39.8265C0.674204 38.8698 0.126573 37.8568 0.0229674 36.7031C-0.199045 34.1847 1.19223 32.2009 4.03399 31.1316C7.40858 29.8512 10.798 28.6413 14.1874 27.3891C16.1707 26.6575 16.1855 26.5871 16.2891 24.5611C16.4667 20.9312 16.6591 17.3153 16.9107 13.6854C17.1327 10.4212 19.7229 8.45149 23.3047 8.78916C26.1612 9.05648 28.8402 10.0273 31.5931 10.6604C32.8512 10.9559 34.0945 11.3076 35.3229 11.6593C36.4182 11.9829 37.2323 11.7578 37.9575 10.8574C40.1924 8.11382 42.4865 5.44061 44.7659 2.73926C44.9879 2.47194 45.2247 2.20462 45.4763 1.96543C48.1849 -0.707778 51.8259 -0.665569 54.3272 2.16241C56.7693 4.92004 59.0931 7.74801 61.4612 10.5619C62.5861 11.8845 62.8821 11.997 64.599 11.5468C68.1364 10.6323 71.6738 9.67554 75.2112 8.80323C79.459 7.74801 82.4932 9.63333 82.9372 13.7838C83.322 17.3153 83.3812 20.889 83.5589 24.4485C83.6477 26.3479 83.6921 26.4324 85.5718 27.1077C88.7095 28.2332 91.8325 29.3588 94.9555 30.4844C95.5327 30.6813 96.1099 30.8924 96.6576 31.1456C99.8842 32.7074 100.876 35.6057 99.1885 38.6588C98.7593 39.4326 98.2265 40.1783 97.7084 40.924C96.0359 43.358 94.4079 45.8202 92.6614 48.212C91.8621 49.2813 91.9213 50.1114 92.6762 51.1666C94.6891 53.9664 96.5244 56.8788 98.5521 59.6646C101.645 63.9277 99.3365 67.8249 95.3255 69.2741Z" fill="#FEFEFE"/>
<path d="M95.3255 69.2741C92.0545 70.4559 88.8279 71.694 85.5422 72.8196C84.3285 73.2276 83.8401 73.8467 83.7957 75.0567C83.6773 78.4755 83.4848 81.8944 83.2924 85.3133C83.248 86.0309 83.2036 86.7625 83.026 87.4519C82.4044 89.9 80.2435 91.4195 77.0909 91.3914C75.4036 91.2788 73.4055 90.5191 71.3482 90.0407C69.1132 89.5061 66.8931 88.9292 64.6878 88.2961C63.6073 87.9865 62.8969 88.1835 62.1865 89.0418C59.8479 91.8838 57.4502 94.6696 55.0821 97.4694C53.75 99.0311 52.1663 100.129 49.9314 99.9879C47.9925 99.8612 46.5716 98.8482 45.4023 97.4694C43.0046 94.6414 40.592 91.8275 38.2387 88.9714C37.5727 88.1695 36.9362 87.9866 35.915 88.2679C32.4072 89.2528 28.855 90.1673 25.3324 91.11C20.6553 92.3622 17.0587 89.9 16.9699 85.2711C16.9107 81.8522 16.4815 78.4333 16.4223 75.0144C16.4075 73.903 15.9487 73.312 14.809 72.9181C11.316 71.7222 7.88221 70.4278 4.41881 69.1615C0.0673699 67.5717 -1.1611 64.0965 1.34024 60.354C3.30875 57.4135 5.29206 54.4729 7.33458 51.5605C8.07462 50.5194 8.13382 49.6612 7.34938 48.5919C5.29206 45.7076 3.32355 42.753 1.32544 39.8265C0.674204 38.8698 0.126573 37.8568 0.0229674 36.7031C-0.199045 34.1847 1.19223 32.2009 4.03399 31.1316C7.40858 29.8512 10.798 28.6413 14.1874 27.3891C16.1707 26.6575 16.1855 26.5871 16.2891 24.5611C16.4667 20.9312 16.6591 17.3153 16.9107 13.6854C17.1327 10.4212 19.7229 8.45149 23.3047 8.78916C26.1612 9.05648 28.8402 10.0273 31.5931 10.6604C32.8512 10.9559 34.0945 11.3076 35.3229 11.6593C36.4182 11.9829 37.2323 11.7578 37.9575 10.8574C40.1924 8.11382 42.4865 5.44061 44.7659 2.73926C44.9879 2.47194 45.2247 2.20462 45.4763 1.96543C48.1849 -0.707778 51.8259 -0.665569 54.3272 2.16241C56.7693 4.92004 59.0931 7.74801 61.4612 10.5619C62.5861 11.8845 62.8821 11.997 64.599 11.5468C68.1364 10.6323 71.6738 9.67554 75.2112 8.80323C79.459 7.74801 82.4932 9.63333 82.9372 13.7838C83.322 17.3153 83.3812 20.889 83.5589 24.4485C83.6477 26.3479 83.6921 26.4324 85.5718 27.1077C88.7095 28.2332 91.8325 29.3588 94.9555 30.4844C95.5327 30.6813 96.1099 30.8924 96.6576 31.1456C99.8842 32.7074 100.876 35.6057 99.1885 38.6588C98.7593 39.4326 98.2265 40.1783 97.7084 40.924C96.0359 43.358 94.4079 45.8202 92.6614 48.212C91.8621 49.2813 91.9213 50.1114 92.6762 51.1666C94.6891 53.9664 96.5244 56.8788 98.5521 59.6646C101.645 63.9277 99.3365 67.8249 95.3255 69.2741Z" fill="#008000"/>
<path d="M32.4994 47.7618C33.9351 47.7899 35.0156 48.2964 35.948 49.1969C37.8721 51.04 39.8406 52.8549 41.7351 54.7262C42.2976 55.2749 42.5936 55.3312 43.2152 54.7403C49.8904 48.3527 56.5952 41.9933 63.2999 35.6198C64.5728 34.4098 66.0529 33.8751 67.8142 34.3816C69.4719 34.86 70.5967 35.9152 71.0408 37.5473C71.4552 39.0949 70.8928 40.3612 69.7383 41.4586C64.4396 46.4955 59.1409 51.5324 53.8422 56.5693C51.2669 59.0174 48.7063 61.4655 46.1162 63.8995C43.8072 66.0803 41.3503 66.0662 39.0414 63.8714C35.874 60.8746 32.7214 57.8778 29.5689 54.8528C28.2072 53.5444 27.9112 51.9686 28.6216 50.3084C29.332 48.6622 30.7529 47.8743 32.4994 47.7618Z" fill="#FEFEFE"/>
</svg>
