<svg width="26" height="26" viewBox="0 0 26 26" fill="none" xmlns="http://www.w3.org/2000/svg">
<path d="M12.9825 2.13844e-06C5.81373 -0.00406737 0.0106094 5.80068 1.6794e-05 12.9866C-0.0113906 20.1001 5.7901 25.926 12.8619 25.9781C20.0885 26.0302 25.9886 20.2222 26 13.0184C26.0114 5.82429 20.192 0.00407165 12.9825 2.13844e-06ZM17.2643 18.1256C16.8032 18.2599 16.3656 18.1736 16.0217 17.8342C14.6936 16.5214 13.3744 15.1996 12.0569 13.877C11.7929 13.6125 11.7 13.2788 11.7016 12.906C11.7081 11.6282 11.704 10.3504 11.704 9.07257H11.7065C11.7065 7.76463 11.6991 6.45587 11.7097 5.14793C11.7146 4.59529 12.0055 4.19974 12.5074 3.99463C13.0077 3.79034 13.4869 3.87825 13.891 4.2502C14.1933 4.52774 14.2992 4.88504 14.2976 5.29118C14.2919 7.03537 14.2952 8.77956 14.2952 10.5246C14.2952 11.0821 14.3025 11.6396 14.2911 12.1971C14.2878 12.3762 14.3473 12.4983 14.4703 12.6212C15.5801 13.7216 16.6899 14.8212 17.7866 15.9346C18.5167 16.676 18.234 17.8448 17.2643 18.1256Z" fill="black"/>
</svg>
