<svg width="26" height="26" viewBox="0 0 26 26" fill="none" xmlns="http://www.w3.org/2000/svg">
<path d="M5.75016 6.67194C5.63668 6.56088 5.59303 6.44909 5.59376 6.29156C5.59885 4.55444 5.59594 2.81659 5.59812 1.07875C5.59812 0.944452 5.61704 0.809431 5.62722 0.667877C5.76908 0.688929 5.83455 0.797091 5.91748 0.87186C8.25481 3.00098 10.59 5.13227 12.9258 7.26211C13.0197 7.34777 13.1164 7.39786 12.9586 7.54014C10.8307 9.46818 8.7102 11.4035 6.56637 13.3569C6.44707 13.0876 6.37723 12.8343 6.34231 12.5766C6.29794 12.2434 6.40779 11.9508 6.64276 11.7105C6.87773 11.471 7.11779 11.2372 7.35421 10.9991C8.18279 10.1658 8.18206 9.10086 7.34839 8.26315C6.8188 7.7296 6.28703 7.19751 5.75016 6.67194Z" fill="#FEFEFE"/>
<path d="M20.1679 22.3713C20.5687 22.7742 20.5636 23.2889 20.1643 23.6961C19.7518 24.1172 19.335 24.5338 18.9152 24.9462C18.3107 25.5392 17.5323 25.7425 16.7357 25.8971C16.3873 25.9646 16.033 25.9726 15.6795 25.9791C14.17 25.9646 12.7733 25.5131 11.4406 24.8496C9.0203 23.6446 6.95214 21.9663 5.09202 20.0266C3.5258 18.3926 2.15017 16.6133 1.139 14.5757C0.511207 13.3111 0.0638191 11.9922 0.00562229 10.565C-0.0220212 9.88119 0.0514522 9.21044 0.244229 8.55349C0.430459 7.91831 0.728717 7.35282 1.22848 6.89839C1.59076 6.56955 1.92393 6.2095 2.27239 5.86614C2.6914 5.45454 3.20354 5.4422 3.61964 5.85525C4.67009 6.89404 5.71473 7.93791 6.75427 8.98686C7.15146 9.38757 7.14273 9.88482 6.75281 10.2892C6.52002 10.5302 6.27996 10.7646 6.04136 11.0006C5.4543 11.582 5.28552 12.2724 5.49212 13.0651C5.82384 14.3427 6.48874 15.4432 7.32023 16.4478C8.50235 17.8757 9.84815 19.1149 11.5191 19.962C12.0371 20.2248 12.5769 20.4317 13.1494 20.5413C13.8063 20.6669 14.3919 20.513 14.8858 20.0607C15.1666 19.8045 15.4278 19.5265 15.7006 19.2608C16.1174 18.8564 16.6361 18.8477 17.0515 19.2593C18.0954 20.2916 19.1334 21.3296 20.1679 22.3713Z" fill="#FEFEFE"/>
<path d="M6.46471 0.112548C6.43997 0.0900443 6.42179 0.0610076 6.37305 3.05176e-05H25.2208C25.2339 0.111096 25.1393 0.140133 25.0862 0.189495C22.2222 2.80425 19.3567 5.41683 16.4906 8.02868C16.0592 8.42213 15.5994 8.44318 15.1804 8.06135C12.2727 5.41465 9.36873 2.76287 6.46471 0.112548Z" fill="#FEFEFE"/>
<path d="M20.8567 10.7748C22.3167 12.1054 23.776 13.4353 25.2986 14.8232H7.55075C7.31578 14.8232 6.99425 14.5242 6.98261 14.2933C6.97751 14.1823 7.07936 14.1489 7.14192 14.0915C8.84127 12.5395 10.5428 10.9897 12.2436 9.43911C12.699 9.02388 13.1609 8.61592 13.6054 8.19053C13.7458 8.05624 13.8251 8.07003 13.9517 8.19634C14.1699 8.41339 14.3991 8.62027 14.6355 8.817C15.3637 9.42241 16.3341 9.40572 17.0426 8.78143C17.2602 8.58979 17.4798 8.3996 17.6821 8.19198C17.8116 8.05914 17.8916 8.0664 18.0269 8.19053C18.9653 9.05728 19.9125 9.91458 20.8567 10.7748Z" fill="#FEFEFE"/>
<path d="M26.0002 0.651886V14.204C25.3964 13.6552 24.8348 13.1449 24.2739 12.6346C22.4189 10.9447 20.5646 9.25401 18.7074 7.56625C18.6012 7.4697 18.5357 7.41816 18.6849 7.28242C21.0986 5.08942 23.5065 2.88989 25.9158 0.691811C25.9282 0.680197 25.9471 0.676567 26.0002 0.651886Z" fill="#FEFEFE"/>
<path d="M20.1643 23.6961C19.7518 24.1172 19.335 24.5338 18.9152 24.9462C18.3107 25.5392 17.5323 25.7425 16.7357 25.8971C16.3873 25.9646 16.033 25.9726 15.6795 25.9791C14.17 25.9646 12.7733 25.5131 11.4406 24.8496C9.0203 23.6446 6.95214 21.9663 5.09202 20.0266C3.5258 18.3926 2.15017 16.6133 1.139 14.5757C0.511207 13.3111 0.0638191 11.9922 0.00562229 10.565C-0.0220212 9.88119 0.0514522 9.21044 0.244229 8.55349C0.430459 7.91831 0.728717 7.35282 1.22848 6.89839C1.59076 6.56955 1.92393 6.2095 2.27239 5.86614C2.6914 5.45454 3.20354 5.4422 3.61964 5.85525C4.67009 6.89404 5.71473 7.93791 6.75427 8.98686C7.15146 9.38757 7.14273 9.88482 6.75281 10.2892C6.52002 10.5302 6.27996 10.7646 6.04136 11.0006C5.4543 11.582 5.28552 12.2724 5.49212 13.0651C5.82384 14.3427 6.48874 15.4432 7.32023 16.4478C8.50235 17.8757 9.84815 19.1149 11.5191 19.962C12.0371 20.2248 12.5769 20.4317 13.1494 20.5413C13.8063 20.6669 14.3919 20.513 14.8858 20.0607C15.1666 19.8045 15.4278 19.5265 15.7006 19.2608C16.1174 18.8564 16.6361 18.8477 17.0515 19.2593C18.0954 20.2916 19.1334 21.3296 20.1679 22.3713C20.5687 22.7742 20.5636 23.2889 20.1643 23.6961Z" fill="black"/>
<path d="M25.0862 0.189495C22.2222 2.80425 19.3567 5.41683 16.4906 8.02868C16.0592 8.42213 15.5994 8.44318 15.1804 8.06135C12.2727 5.41465 9.36873 2.76287 6.46471 0.112548C6.43997 0.0900443 6.42179 0.0610076 6.37305 3.05176e-05H25.2208C25.2339 0.111096 25.1393 0.140133 25.0862 0.189495Z" fill="black"/>
<path d="M25.2986 14.8232H7.55075C7.31578 14.8232 6.99425 14.5242 6.98261 14.2933C6.97751 14.1823 7.07936 14.1489 7.14192 14.0915C8.84127 12.5395 10.5428 10.9897 12.2436 9.43911C12.699 9.02388 13.1609 8.61592 13.6054 8.19053C13.7458 8.05624 13.8251 8.07003 13.9517 8.19634C14.1699 8.41339 14.3991 8.62027 14.6355 8.817C15.3637 9.42241 16.3341 9.40572 17.0426 8.78143C17.2602 8.58979 17.4798 8.3996 17.6821 8.19198C17.8116 8.05914 17.8916 8.0664 18.0269 8.19053C18.9653 9.05728 19.9125 9.91458 20.8567 10.7748C22.3167 12.1054 23.776 13.4353 25.2986 14.8232Z" fill="black"/>
<path d="M26.0002 0.651886V14.204C25.3964 13.6552 24.8348 13.1449 24.2739 12.6346C22.4189 10.9447 20.5646 9.25401 18.7074 7.56625C18.6012 7.4697 18.5357 7.41816 18.6849 7.28242C21.0986 5.08942 23.5065 2.88989 25.9158 0.691811C25.9282 0.680197 25.9471 0.676567 26.0002 0.651886Z" fill="black"/>
<path d="M12.9586 7.54014C10.8307 9.46818 8.7102 11.4035 6.56637 13.3569C6.44707 13.0876 6.37723 12.8343 6.34231 12.5766C6.29794 12.2434 6.40779 11.9508 6.64276 11.7105C6.87773 11.471 7.11779 11.2372 7.35421 10.9991C8.18279 10.1658 8.18206 9.10086 7.34839 8.26315C6.8188 7.7296 6.28703 7.19751 5.75016 6.67194C5.63668 6.56088 5.59303 6.44909 5.59376 6.29156C5.59885 4.55444 5.59594 2.81659 5.59812 1.07875C5.59812 0.944452 5.61704 0.809431 5.62722 0.667877C5.76908 0.688929 5.83455 0.797091 5.91748 0.87186C8.25481 3.00098 10.59 5.13227 12.9258 7.26211C13.0197 7.34777 13.1164 7.39786 12.9586 7.54014Z" fill="black"/>
</svg>
