<svg width="54" height="54" viewBox="0 0 54 54" fill="none" xmlns="http://www.w3.org/2000/svg">
<circle cx="27" cy="27" r="27" fill="#D90102"/>
<path d="M17.4785 24.8082C17.5272 24.7224 17.6094 24.76 17.6757 24.7592C18.5649 24.7565 19.4541 24.7592 20.3434 24.7557C20.4927 24.7557 20.5951 24.7574 20.5984 24.9712C20.6077 25.7696 20.71 26.5591 20.8409 27.3828C19.2486 26.9508 17.8409 25.8677 17.4785 24.8082Z" fill="white"/>
<path d="M17.4336 23.6367C18.1467 22.0909 19.4755 21.5423 20.8463 20.9814C20.7213 21.8376 20.6105 22.6578 20.5988 23.4868C20.5971 23.6314 20.5183 23.6375 20.4159 23.6367C19.4445 23.6358 18.4722 23.6367 17.4336 23.6367Z" fill="white"/>
<path d="M21.1602 28.8218C21.4471 29.9697 21.932 31.0231 22.5704 32.0159C20.3363 31.1203 18.7894 29.5009 17.8809 27.184C18.0235 27.1331 18.0805 27.2321 18.1518 27.2812C18.9983 27.8719 19.9093 28.3153 20.8917 28.5974C21.015 28.6325 21.1191 28.6579 21.1602 28.8218Z" fill="white"/>
<path d="M18.007 21.2259C17.9852 21.2416 17.9516 21.2416 17.8711 21.2618C18.7822 18.9001 20.3375 17.2833 22.5807 16.3746C21.9406 17.3727 21.4457 18.4339 21.1588 19.5968C21.1303 19.7133 21.0623 19.7572 20.9684 19.7835C19.8979 20.077 18.9139 20.5651 18.007 21.2259Z" fill="white"/>
<path d="M24.8599 29.4247C24.8574 30.4272 24.8582 31.4297 24.8582 32.4331C24.0109 32.3674 22.8046 30.7103 22.3457 28.9603C23.1485 29.0803 23.9203 29.1977 24.7022 29.2091C24.8524 29.2109 24.8599 29.3029 24.8599 29.4247Z" fill="white"/>
<path d="M24.8563 16.7654C24.8681 17.4866 24.8614 18.2078 24.8597 18.9281C24.8589 19.0377 24.9084 19.177 24.7171 19.1849C23.9344 19.2182 23.1567 19.2979 22.3203 19.4574C22.7188 18.2788 23.1701 17.2193 24.0334 16.4158C24.2582 16.2054 24.5367 15.9022 24.7959 15.9855C24.9721 16.0416 24.8521 16.492 24.8563 16.7654Z" fill="white"/>
<path d="M24.8666 23.4044C24.8716 23.5945 24.8129 23.6419 24.6367 23.6401C23.7173 23.6313 22.797 23.6305 21.8767 23.641C21.6863 23.6427 21.6569 23.5718 21.6653 23.3965C21.7098 22.5342 21.818 21.6816 21.974 20.8333C22.0042 20.6685 22.0965 20.6536 22.2073 20.6291C23.026 20.4451 23.8549 20.3496 24.6913 20.304C24.88 20.2935 24.8633 20.396 24.8633 20.5213C24.8616 21.0015 24.8624 21.4826 24.8624 21.9629C24.8624 22.4431 24.854 22.9242 24.8666 23.4044Z" fill="white"/>
<path d="M24.862 24.9835C24.8519 25.9449 24.8528 26.9062 24.862 27.8675C24.8637 28.0611 24.8058 28.0971 24.6304 28.0901C23.8133 28.0559 23.0088 27.942 22.2085 27.7746C22.05 27.7413 21.9946 27.6773 21.9619 27.5099C21.8033 26.6845 21.7102 25.8511 21.6599 25.0116C21.6481 24.8109 21.6959 24.7461 21.8956 24.7531C22.3545 24.7688 22.815 24.7575 23.2748 24.7575C23.7244 24.7575 24.1741 24.7636 24.6237 24.7548C24.7882 24.7513 24.8645 24.7829 24.862 24.9835Z" fill="white"/>
<path d="M28.4727 28.9489C27.9367 30.3991 27.404 31.775 25.9309 32.5216V31.4682C25.9309 30.7926 25.9309 30.1161 25.9317 29.4405C25.9317 29.3362 25.9023 29.2144 26.0684 29.21C26.8595 29.1916 27.6431 29.0934 28.4727 28.9489Z" fill="white"/>
<path d="M25.9239 18.9511C25.9348 18.0117 25.9322 17.0723 25.9264 16.1328C25.9247 15.9366 25.97 15.9103 26.1369 15.9926C26.4742 16.1591 26.7611 16.3905 27.0111 16.6727C27.7049 17.457 28.1159 18.4025 28.4423 19.4067C28.2334 19.4593 28.0547 19.3734 27.8718 19.3498C27.3013 19.2762 26.7301 19.2096 26.1546 19.1938C25.991 19.1894 25.9222 19.1439 25.9239 18.9511Z" fill="white"/>
<path d="M25.9239 23.4245C25.9314 22.4527 25.9314 21.48 25.9239 20.5082C25.9222 20.3303 25.9708 20.3005 26.1361 20.3066C26.9423 20.3399 27.7376 20.4608 28.5304 20.6072C28.7015 20.6387 28.7879 20.7097 28.8248 20.9104C28.9725 21.7166 29.0589 22.5281 29.121 23.3448C29.1377 23.5682 29.0991 23.6532 28.8643 23.6418C28.4154 23.6217 27.9658 23.6366 27.5161 23.6366C27.0556 23.6366 26.595 23.6296 26.1353 23.6401C25.9742 23.6436 25.9222 23.6007 25.9239 23.4245Z" fill="white"/>
<path d="M25.9257 27.8841C25.9299 27.4039 25.9274 26.9228 25.9274 26.4425C25.9274 25.9615 25.9333 25.4812 25.9241 25.001C25.9207 24.8266 25.9526 24.7513 26.143 24.753C27.0625 24.7635 27.9827 24.7618 28.903 24.7539C29.0809 24.7521 29.1354 24.8021 29.1237 24.9931C29.0675 25.8545 28.971 26.7098 28.8133 27.5572C28.7856 27.7027 28.7143 27.7509 28.5884 27.7772C27.7671 27.9454 26.9408 28.0585 26.1036 28.0935C25.9274 28.1005 25.9249 28.019 25.9257 27.8841Z" fill="white"/>
<path d="M29.8523 28.6036C30.9454 28.3109 31.9403 27.7947 32.8841 27.1375C32.0217 29.4703 30.4764 31.0949 28.25 32.0396C28.1979 31.9248 28.2634 31.8854 28.2919 31.8407C28.8783 30.9425 29.3221 29.9741 29.5947 28.9234C29.6342 28.7736 29.6744 28.6518 29.8523 28.6036Z" fill="white"/>
<path d="M32.8959 21.2215C32.7667 21.2741 32.7198 21.1795 32.6577 21.1365C31.8095 20.545 30.901 20.0937 29.917 19.8098C29.7769 19.7695 29.6611 19.7406 29.6116 19.546C29.3238 18.4208 28.8515 17.3833 28.2324 16.4036C30.4606 17.2956 32 18.9081 32.8959 21.2215Z" fill="white"/>
<path d="M33.245 24.9817C33.0697 25.362 32.8189 25.6801 32.5219 25.9605C31.9103 26.538 30.7921 27.1585 29.9355 27.3863C30.0765 26.5494 30.1604 25.7476 30.1872 24.9405C30.1931 24.7635 30.2753 24.7556 30.4045 24.7556C31.3038 24.7591 32.2031 24.7617 33.1033 24.7547C33.2903 24.753 33.3222 24.8143 33.245 24.9817Z" fill="white"/>
<path d="M33.2887 23.6366H30.8197C30.2241 23.6366 30.2182 23.6366 30.1704 23.0109C30.1201 22.3502 30.0479 21.6921 29.9414 21.0296C31.6066 21.4923 33.1226 22.6841 33.2887 23.6366Z" fill="white"/>
<path d="M38.2433 27.0018C38.2433 23.6798 38.2467 20.3577 38.2425 17.0356C38.24 14.7098 36.6049 13.0054 34.3793 13.0045C28.2075 13.0019 22.0356 13.0037 15.8637 13.0028C15.5693 13.0028 15.2773 13.0256 14.9913 13.0939C13.1817 13.5303 12.0022 15.0709 12.0014 17.0101C11.9989 23.6324 12.0005 30.2556 12.0005 36.8779C12.0005 39.3061 13.618 40.9886 15.9493 40.9895C22.0691 40.9895 28.189 40.9676 34.3088 41C36.6108 41.0123 38.292 39.116 38.2568 36.8709C38.2047 33.5821 38.2433 30.2915 38.2433 27.0018ZM34.1704 38.6997C34.032 38.7672 33.8844 38.7541 33.7392 38.7541C28.1731 38.7541 22.6077 38.7541 17.0424 38.7523C16.9182 38.7523 16.789 38.7497 16.6716 38.7155C16.404 38.6366 16.2832 38.4272 16.2916 38.1476C16.3 37.876 16.5105 37.6665 16.779 37.6411C16.883 37.6315 16.9887 37.6359 17.0927 37.6359C19.8653 37.635 22.6371 37.635 25.4097 37.635C28.1714 37.635 30.9331 37.635 33.6948 37.6359C33.8097 37.6359 33.9271 37.628 34.0396 37.6455C34.2979 37.685 34.4531 37.8471 34.4833 38.1187C34.5144 38.3869 34.4087 38.584 34.1704 38.6997ZM16.2874 35.9192C16.3058 35.6353 16.5089 35.4267 16.8008 35.4013C16.9048 35.3925 17.0097 35.396 17.1145 35.396H25.4307C28.1823 35.396 30.9331 35.396 33.6847 35.3969C33.8097 35.3969 33.938 35.3899 34.0597 35.4127C34.3181 35.4591 34.464 35.6318 34.4867 35.9025C34.5085 36.1724 34.3911 36.3644 34.1503 36.4686C34.0211 36.5247 33.8844 36.5168 33.7485 36.5168C28.1831 36.516 22.6178 36.516 17.0525 36.516C16.9484 36.516 16.8419 36.5186 16.7404 36.4984C16.456 36.4423 16.2698 36.1979 16.2874 35.9192ZM25.408 33.7126C20.367 33.7047 16.2656 29.4327 16.2832 24.209C16.3008 18.9284 20.3796 14.6827 25.4256 14.6914C30.439 14.7011 34.4976 18.9608 34.4942 24.209C34.4901 29.452 30.4088 33.7214 25.408 33.7126Z" fill="white"/>
<path d="M41.9965 28.0576C41.9973 30.9854 41.9973 33.9123 41.9965 36.84C41.9965 39.3147 40.3933 40.9885 38.0243 40.9894H37.5293C37.8422 40.7002 38.0914 40.4425 38.3044 40.1516C39.0007 39.1973 39.3187 38.1203 39.3153 36.9198C39.3053 33.2384 39.3111 29.557 39.3111 25.8765C39.3111 22.9706 39.2986 20.0648 39.3162 17.159C39.3262 15.5465 38.8028 14.1979 37.6476 13.1227C37.6258 13.1025 37.6115 13.0736 37.5704 13.0166C38.5024 12.9544 39.3657 13.0526 40.1425 13.5547C41.3581 14.339 41.9881 15.4913 41.9931 16.9811C42.0049 20.673 41.9965 24.3657 41.9965 28.0576Z" fill="white"/>
<path d="M17.4785 24.8082C17.5272 24.7224 17.6094 24.76 17.6757 24.7592C18.5649 24.7565 19.4541 24.7592 20.3434 24.7557C20.4927 24.7557 20.5951 24.7574 20.5984 24.9712C20.6077 25.7696 20.71 26.5591 20.8409 27.3828C19.2486 26.9508 17.8409 25.8677 17.4785 24.8082Z" fill="white"/>
<path d="M17.4336 23.6367C18.1467 22.0909 19.4755 21.5423 20.8463 20.9814C20.7213 21.8376 20.6105 22.6578 20.5988 23.4868C20.5971 23.6314 20.5183 23.6375 20.4159 23.6367C19.4445 23.6358 18.4722 23.6367 17.4336 23.6367Z" fill="white"/>
<path d="M21.1602 28.8218C21.4471 29.9697 21.932 31.0231 22.5704 32.0159C20.3363 31.1203 18.7894 29.5009 17.8809 27.184C18.0235 27.1331 18.0805 27.2321 18.1518 27.2812C18.9983 27.8719 19.9093 28.3153 20.8917 28.5974C21.015 28.6325 21.1191 28.6579 21.1602 28.8218Z" fill="white"/>
<path d="M18.007 21.2259C17.9852 21.2416 17.9516 21.2416 17.8711 21.2618C18.7822 18.9001 20.3375 17.2833 22.5807 16.3746C21.9406 17.3727 21.4457 18.4339 21.1588 19.5968C21.1303 19.7133 21.0623 19.7572 20.9684 19.7835C19.8979 20.077 18.9139 20.5651 18.007 21.2259Z" fill="white"/>
<path d="M24.8599 29.4247C24.8574 30.4272 24.8582 31.4297 24.8582 32.4331C24.0109 32.3674 22.8046 30.7103 22.3457 28.9603C23.1485 29.0803 23.9203 29.1977 24.7022 29.2091C24.8524 29.2109 24.8599 29.3029 24.8599 29.4247Z" fill="white"/>
<path d="M24.8563 16.7654C24.8681 17.4866 24.8614 18.2078 24.8597 18.9281C24.8589 19.0377 24.9084 19.177 24.7171 19.1849C23.9344 19.2182 23.1567 19.2979 22.3203 19.4574C22.7188 18.2788 23.1701 17.2193 24.0334 16.4158C24.2582 16.2054 24.5367 15.9022 24.7959 15.9855C24.9721 16.0416 24.8521 16.492 24.8563 16.7654Z" fill="white"/>
<path d="M24.8666 23.4044C24.8716 23.5945 24.8129 23.6419 24.6367 23.6401C23.7173 23.6313 22.797 23.6305 21.8767 23.641C21.6863 23.6427 21.6569 23.5718 21.6653 23.3965C21.7098 22.5342 21.818 21.6816 21.974 20.8333C22.0042 20.6685 22.0965 20.6536 22.2073 20.6291C23.026 20.4451 23.8549 20.3496 24.6913 20.304C24.88 20.2935 24.8633 20.396 24.8633 20.5213C24.8616 21.0015 24.8624 21.4826 24.8624 21.9629C24.8624 22.4431 24.854 22.9242 24.8666 23.4044Z" fill="white"/>
<path d="M24.862 24.9835C24.8519 25.9449 24.8528 26.9062 24.862 27.8675C24.8637 28.0611 24.8058 28.0971 24.6304 28.0901C23.8133 28.0559 23.0088 27.942 22.2085 27.7746C22.05 27.7413 21.9946 27.6773 21.9619 27.5099C21.8033 26.6845 21.7102 25.8511 21.6599 25.0116C21.6481 24.8109 21.6959 24.7461 21.8956 24.7531C22.3545 24.7688 22.815 24.7575 23.2748 24.7575C23.7244 24.7575 24.1741 24.7636 24.6237 24.7548C24.7882 24.7513 24.8645 24.7829 24.862 24.9835Z" fill="white"/>
<path d="M28.4727 28.9489C27.9367 30.3991 27.404 31.775 25.9309 32.5216V31.4682C25.9309 30.7926 25.9309 30.1161 25.9317 29.4405C25.9317 29.3362 25.9023 29.2144 26.0684 29.21C26.8595 29.1916 27.6431 29.0934 28.4727 28.9489Z" fill="white"/>
<path d="M25.9239 18.9511C25.9348 18.0117 25.9322 17.0723 25.9264 16.1328C25.9247 15.9366 25.97 15.9103 26.1369 15.9926C26.4742 16.1591 26.7611 16.3905 27.0111 16.6727C27.7049 17.457 28.1159 18.4025 28.4423 19.4067C28.2334 19.4593 28.0547 19.3734 27.8718 19.3498C27.3013 19.2762 26.7301 19.2096 26.1546 19.1938C25.991 19.1894 25.9222 19.1439 25.9239 18.9511Z" fill="white"/>
<path d="M25.9239 23.4245C25.9314 22.4527 25.9314 21.48 25.9239 20.5082C25.9222 20.3303 25.9708 20.3005 26.1361 20.3066C26.9423 20.3399 27.7376 20.4608 28.5304 20.6072C28.7015 20.6387 28.7879 20.7097 28.8248 20.9104C28.9725 21.7166 29.0589 22.5281 29.121 23.3448C29.1377 23.5682 29.0991 23.6532 28.8643 23.6418C28.4154 23.6217 27.9658 23.6366 27.5161 23.6366C27.0556 23.6366 26.595 23.6296 26.1353 23.6401C25.9742 23.6436 25.9222 23.6007 25.9239 23.4245Z" fill="white"/>
<path d="M25.9257 27.8841C25.9299 27.4039 25.9274 26.9228 25.9274 26.4425C25.9274 25.9615 25.9333 25.4812 25.9241 25.001C25.9207 24.8266 25.9526 24.7513 26.143 24.753C27.0625 24.7635 27.9827 24.7618 28.903 24.7539C29.0809 24.7521 29.1354 24.8021 29.1237 24.9931C29.0675 25.8545 28.971 26.7098 28.8133 27.5572C28.7856 27.7027 28.7143 27.7509 28.5884 27.7772C27.7671 27.9454 26.9408 28.0585 26.1036 28.0935C25.9274 28.1005 25.9249 28.019 25.9257 27.8841Z" fill="white"/>
<path d="M29.8523 28.6036C30.9454 28.3109 31.9403 27.7947 32.8841 27.1375C32.0217 29.4703 30.4764 31.0949 28.25 32.0396C28.1979 31.9248 28.2634 31.8854 28.2919 31.8407C28.8783 30.9425 29.3221 29.9741 29.5947 28.9234C29.6342 28.7736 29.6744 28.6518 29.8523 28.6036Z" fill="white"/>
<path d="M32.8959 21.2215C32.7667 21.2741 32.7198 21.1795 32.6577 21.1365C31.8095 20.545 30.901 20.0937 29.917 19.8098C29.7769 19.7695 29.6611 19.7406 29.6116 19.546C29.3238 18.4208 28.8515 17.3833 28.2324 16.4036C30.4606 17.2956 32 18.9081 32.8959 21.2215Z" fill="white"/>
<path d="M33.245 24.9817C33.0697 25.362 32.8189 25.6801 32.5219 25.9605C31.9103 26.538 30.7921 27.1585 29.9355 27.3863C30.0765 26.5494 30.1604 25.7476 30.1872 24.9405C30.1931 24.7635 30.2753 24.7556 30.4045 24.7556C31.3038 24.7591 32.2031 24.7617 33.1033 24.7547C33.2903 24.753 33.3222 24.8143 33.245 24.9817Z" fill="white"/>
<path d="M33.2887 23.6366H30.8197C30.2241 23.6366 30.2182 23.6366 30.1704 23.0109C30.1201 22.3502 30.0479 21.6921 29.9414 21.0296C31.6066 21.4923 33.1226 22.6841 33.2887 23.6366Z" fill="white"/>
<path d="M38.2433 27.0018C38.2433 23.6798 38.2467 20.3577 38.2425 17.0356C38.24 14.7098 36.6049 13.0054 34.3793 13.0045C28.2075 13.0019 22.0356 13.0037 15.8637 13.0028C15.5693 13.0028 15.2773 13.0256 14.9913 13.0939C13.1817 13.5303 12.0022 15.0709 12.0014 17.0101C11.9989 23.6324 12.0005 30.2556 12.0005 36.8779C12.0005 39.3061 13.618 40.9886 15.9493 40.9895C22.0691 40.9895 28.189 40.9676 34.3088 41C36.6108 41.0123 38.292 39.116 38.2568 36.8709C38.2047 33.5821 38.2433 30.2915 38.2433 27.0018ZM34.1704 38.6997C34.032 38.7672 33.8844 38.7541 33.7392 38.7541C28.1731 38.7541 22.6077 38.7541 17.0424 38.7523C16.9182 38.7523 16.789 38.7497 16.6716 38.7155C16.404 38.6366 16.2832 38.4272 16.2916 38.1476C16.3 37.876 16.5105 37.6665 16.779 37.6411C16.883 37.6315 16.9887 37.6359 17.0927 37.6359C19.8653 37.635 22.6371 37.635 25.4097 37.635C28.1714 37.635 30.9331 37.635 33.6948 37.6359C33.8097 37.6359 33.9271 37.628 34.0396 37.6455C34.2979 37.685 34.4531 37.8471 34.4833 38.1187C34.5144 38.3869 34.4087 38.584 34.1704 38.6997ZM16.2874 35.9192C16.3058 35.6353 16.5089 35.4267 16.8008 35.4013C16.9048 35.3925 17.0097 35.396 17.1145 35.396H25.4307C28.1823 35.396 30.9331 35.396 33.6847 35.3969C33.8097 35.3969 33.938 35.3899 34.0597 35.4127C34.3181 35.4591 34.464 35.6318 34.4867 35.9025C34.5085 36.1724 34.3911 36.3644 34.1503 36.4686C34.0211 36.5247 33.8844 36.5168 33.7485 36.5168C28.1831 36.516 22.6178 36.516 17.0525 36.516C16.9484 36.516 16.8419 36.5186 16.7404 36.4984C16.456 36.4423 16.2698 36.1979 16.2874 35.9192ZM25.408 33.7126C20.367 33.7047 16.2656 29.4327 16.2832 24.209C16.3008 18.9284 20.3796 14.6827 25.4256 14.6914C30.439 14.7011 34.4976 18.9608 34.4942 24.209C34.4901 29.452 30.4088 33.7214 25.408 33.7126Z" fill="white"/>
<path d="M41.9965 28.0576C41.9973 30.9854 41.9973 33.9123 41.9965 36.84C41.9965 39.3147 40.3933 40.9885 38.0243 40.9894H37.5293C37.8422 40.7002 38.0914 40.4425 38.3044 40.1516C39.0007 39.1973 39.3187 38.1203 39.3153 36.9198C39.3053 33.2384 39.3111 29.557 39.3111 25.8765C39.3111 22.9706 39.2986 20.0648 39.3162 17.159C39.3262 15.5465 38.8028 14.1979 37.6476 13.1227C37.6258 13.1025 37.6115 13.0736 37.5704 13.0166C38.5024 12.9544 39.3657 13.0526 40.1425 13.5547C41.3581 14.339 41.9881 15.4913 41.9931 16.9811C42.0049 20.673 41.9965 24.3657 41.9965 28.0576Z" fill="white"/>
<path d="M17.4785 24.8082C17.5272 24.7224 17.6094 24.76 17.6757 24.7592C18.5649 24.7565 19.4541 24.7592 20.3434 24.7557C20.4927 24.7557 20.5951 24.7574 20.5984 24.9712C20.6077 25.7696 20.71 26.5591 20.8409 27.3828C19.2486 26.9508 17.8409 25.8677 17.4785 24.8082Z" fill="white"/>
<path d="M17.4336 23.6367C18.1467 22.0909 19.4755 21.5423 20.8463 20.9814C20.7213 21.8376 20.6105 22.6578 20.5988 23.4868C20.5971 23.6314 20.5183 23.6375 20.4159 23.6367C19.4445 23.6358 18.4722 23.6367 17.4336 23.6367Z" fill="white"/>
<path d="M21.1602 28.8218C21.4471 29.9697 21.932 31.0231 22.5704 32.0159C20.3363 31.1203 18.7894 29.5009 17.8809 27.184C18.0235 27.1331 18.0805 27.2321 18.1518 27.2812C18.9983 27.8719 19.9093 28.3153 20.8917 28.5974C21.015 28.6325 21.1191 28.6579 21.1602 28.8218Z" fill="white"/>
<path d="M18.007 21.2259C17.9852 21.2416 17.9516 21.2416 17.8711 21.2618C18.7822 18.9001 20.3375 17.2833 22.5807 16.3746C21.9406 17.3727 21.4457 18.4339 21.1588 19.5968C21.1303 19.7133 21.0623 19.7572 20.9684 19.7835C19.8979 20.077 18.9139 20.5651 18.007 21.2259Z" fill="white"/>
<path d="M24.8599 29.4247C24.8574 30.4272 24.8582 31.4297 24.8582 32.4331C24.0109 32.3674 22.8046 30.7103 22.3457 28.9603C23.1485 29.0803 23.9203 29.1977 24.7022 29.2091C24.8524 29.2109 24.8599 29.3029 24.8599 29.4247Z" fill="white"/>
<path d="M24.8563 16.7654C24.8681 17.4866 24.8614 18.2078 24.8597 18.9281C24.8589 19.0377 24.9084 19.177 24.7171 19.1849C23.9344 19.2182 23.1567 19.2979 22.3203 19.4574C22.7188 18.2788 23.1701 17.2193 24.0334 16.4158C24.2582 16.2054 24.5367 15.9022 24.7959 15.9855C24.9721 16.0416 24.8521 16.492 24.8563 16.7654Z" fill="white"/>
<path d="M24.8666 23.4044C24.8716 23.5945 24.8129 23.6419 24.6367 23.6401C23.7173 23.6313 22.797 23.6305 21.8767 23.641C21.6863 23.6427 21.6569 23.5718 21.6653 23.3965C21.7098 22.5342 21.818 21.6816 21.974 20.8333C22.0042 20.6685 22.0965 20.6536 22.2073 20.6291C23.026 20.4451 23.8549 20.3496 24.6913 20.304C24.88 20.2935 24.8633 20.396 24.8633 20.5213C24.8616 21.0015 24.8624 21.4826 24.8624 21.9629C24.8624 22.4431 24.854 22.9242 24.8666 23.4044Z" fill="white"/>
<path d="M24.862 24.9835C24.8519 25.9449 24.8528 26.9062 24.862 27.8675C24.8637 28.0611 24.8058 28.0971 24.6304 28.0901C23.8133 28.0559 23.0088 27.942 22.2085 27.7746C22.05 27.7413 21.9946 27.6773 21.9619 27.5099C21.8033 26.6845 21.7102 25.8511 21.6599 25.0116C21.6481 24.8109 21.6959 24.7461 21.8956 24.7531C22.3545 24.7688 22.815 24.7575 23.2748 24.7575C23.7244 24.7575 24.1741 24.7636 24.6237 24.7548C24.7882 24.7513 24.8645 24.7829 24.862 24.9835Z" fill="white"/>
<path d="M28.4727 28.9489C27.9367 30.3991 27.404 31.775 25.9309 32.5216V31.4682C25.9309 30.7926 25.9309 30.1161 25.9317 29.4405C25.9317 29.3362 25.9023 29.2144 26.0684 29.21C26.8595 29.1916 27.6431 29.0934 28.4727 28.9489Z" fill="white"/>
<path d="M25.9239 18.9511C25.9348 18.0117 25.9322 17.0723 25.9264 16.1328C25.9247 15.9366 25.97 15.9103 26.1369 15.9926C26.4742 16.1591 26.7611 16.3905 27.0111 16.6727C27.7049 17.457 28.1159 18.4025 28.4423 19.4067C28.2334 19.4593 28.0547 19.3734 27.8718 19.3498C27.3013 19.2762 26.7301 19.2096 26.1546 19.1938C25.991 19.1894 25.9222 19.1439 25.9239 18.9511Z" fill="white"/>
<path d="M25.9239 23.4245C25.9314 22.4527 25.9314 21.48 25.9239 20.5082C25.9222 20.3303 25.9708 20.3005 26.1361 20.3066C26.9423 20.3399 27.7376 20.4608 28.5304 20.6072C28.7015 20.6387 28.7879 20.7097 28.8248 20.9104C28.9725 21.7166 29.0589 22.5281 29.121 23.3448C29.1377 23.5682 29.0991 23.6532 28.8643 23.6418C28.4154 23.6217 27.9658 23.6366 27.5161 23.6366C27.0556 23.6366 26.595 23.6296 26.1353 23.6401C25.9742 23.6436 25.9222 23.6007 25.9239 23.4245Z" fill="white"/>
<path d="M25.9257 27.8841C25.9299 27.4039 25.9274 26.9228 25.9274 26.4425C25.9274 25.9615 25.9333 25.4812 25.9241 25.001C25.9207 24.8266 25.9526 24.7513 26.143 24.753C27.0625 24.7635 27.9827 24.7618 28.903 24.7539C29.0809 24.7521 29.1354 24.8021 29.1237 24.9931C29.0675 25.8545 28.971 26.7098 28.8133 27.5572C28.7856 27.7027 28.7143 27.7509 28.5884 27.7772C27.7671 27.9454 26.9408 28.0585 26.1036 28.0935C25.9274 28.1005 25.9249 28.019 25.9257 27.8841Z" fill="white"/>
<path d="M29.8523 28.6036C30.9454 28.3109 31.9403 27.7947 32.8841 27.1375C32.0217 29.4703 30.4764 31.0949 28.25 32.0396C28.1979 31.9248 28.2634 31.8854 28.2919 31.8407C28.8783 30.9425 29.3221 29.9741 29.5947 28.9234C29.6342 28.7736 29.6744 28.6518 29.8523 28.6036Z" fill="white"/>
<path d="M29.6116 19.546C29.3238 18.4208 28.8515 17.3833 28.2324 16.4036C30.4606 17.2956 32 18.9081 32.8959 21.2215C32.7667 21.2741 32.7198 21.1795 32.6577 21.1365C31.8095 20.545 30.901 20.0937 29.917 19.8098C29.7769 19.7695 29.6611 19.7406 29.6116 19.546Z" fill="white"/>
<path d="M33.245 24.9817C33.0697 25.362 32.8189 25.6801 32.5219 25.9605C31.9103 26.538 30.7921 27.1585 29.9355 27.3863C30.0765 26.5494 30.1604 25.7476 30.1872 24.9405C30.1931 24.7635 30.2753 24.7556 30.4045 24.7556C31.3038 24.7591 32.2031 24.7617 33.1033 24.7547C33.2903 24.753 33.3222 24.8143 33.245 24.9817Z" fill="white"/>
<path d="M33.2887 23.6366H30.8197C30.2241 23.6366 30.2182 23.6366 30.1704 23.0109C30.1201 22.3502 30.0479 21.6921 29.9414 21.0296C31.6066 21.4923 33.1226 22.6841 33.2887 23.6366Z" fill="white"/>
<path d="M24.862 27.8675C24.8637 28.0611 24.8058 28.0971 24.6304 28.0901C23.8133 28.0559 23.0088 27.942 22.2085 27.7746C22.05 27.7413 21.9946 27.6773 21.9619 27.5099C21.8033 26.6845 21.7102 25.8511 21.6599 25.0116C21.6481 24.8109 21.6959 24.7461 21.8956 24.7531C22.3545 24.7688 22.815 24.7575 23.2748 24.7575C23.7244 24.7575 24.1741 24.7636 24.6237 24.7548C24.7882 24.7513 24.8645 24.7829 24.862 24.9835C24.8519 25.9449 24.8528 26.9062 24.862 27.8675Z" fill="white"/>
<path d="M29.1237 24.9931C29.0675 25.8545 28.971 26.7098 28.8133 27.5572C28.7856 27.7027 28.7143 27.7509 28.5884 27.7772C27.7671 27.9454 26.9408 28.0585 26.1036 28.0935C25.9274 28.1005 25.9249 28.019 25.9257 27.8841C25.9299 27.4039 25.9274 26.9228 25.9274 26.4425C25.9274 25.9615 25.9333 25.4812 25.9241 25.001C25.9207 24.8266 25.9526 24.7513 26.143 24.753C27.0625 24.7635 27.9827 24.7618 28.903 24.7539C29.0809 24.7521 29.1354 24.8021 29.1237 24.9931Z" fill="white"/>
<path d="M24.8666 23.4044C24.8716 23.5945 24.8129 23.6419 24.6367 23.6401C23.7173 23.6313 22.797 23.6305 21.8767 23.641C21.6863 23.6427 21.6569 23.5718 21.6653 23.3965C21.7098 22.5342 21.818 21.6816 21.974 20.8333C22.0042 20.6685 22.0965 20.6536 22.2073 20.6291C23.026 20.4451 23.8549 20.3496 24.6913 20.304C24.88 20.2935 24.8633 20.396 24.8633 20.5213C24.8616 21.0015 24.8624 21.4826 24.8624 21.9629C24.8624 22.4431 24.854 22.9242 24.8666 23.4044Z" fill="white"/>
<path d="M28.8643 23.6418C28.4154 23.6217 27.9658 23.6366 27.5161 23.6366C27.0556 23.6366 26.595 23.6296 26.1353 23.6401C25.9742 23.6436 25.9222 23.6007 25.9239 23.4245C25.9314 22.4527 25.9314 21.48 25.9239 20.5082C25.9222 20.3303 25.9708 20.3005 26.1361 20.3066C26.9423 20.3399 27.7376 20.4608 28.5304 20.6072C28.7015 20.6387 28.7879 20.7097 28.8248 20.9104C28.9725 21.7166 29.0589 22.5281 29.121 23.3448C29.1377 23.5682 29.0991 23.6532 28.8643 23.6418Z" fill="white"/>
<path d="M22.5704 32.0159C20.3363 31.1203 18.7894 29.5009 17.8809 27.184C18.0235 27.1331 18.0805 27.2321 18.1518 27.2812C18.9983 27.8719 19.9093 28.3153 20.8917 28.5974C21.015 28.6325 21.1191 28.6579 21.1602 28.8218C21.4471 29.9697 21.932 31.0231 22.5704 32.0159Z" fill="white"/>
<path d="M22.5807 16.3746C21.9406 17.3727 21.4457 18.4339 21.1588 19.5968C21.1303 19.7133 21.0623 19.7572 20.9684 19.7835C19.8979 20.077 18.9139 20.5651 18.007 21.2259C17.9852 21.2416 17.9516 21.2416 17.8711 21.2618C18.7822 18.9001 20.3375 17.2833 22.5807 16.3746Z" fill="white"/>
<path d="M32.8959 21.2215C32.7667 21.2741 32.7198 21.1795 32.6577 21.1365C31.8095 20.545 30.901 20.0937 29.917 19.8098C29.7769 19.7695 29.6611 19.7406 29.6116 19.546C29.3238 18.4208 28.8515 17.3833 28.2324 16.4036C30.4606 17.2956 32 18.9081 32.8959 21.2215Z" fill="white"/>
<path d="M32.8841 27.1375C32.0217 29.4703 30.4764 31.0949 28.25 32.0396C28.1979 31.9248 28.2634 31.8854 28.2919 31.8407C28.8783 30.9425 29.3221 29.9741 29.5947 28.9234C29.6342 28.7736 29.6744 28.6518 29.8523 28.6036C30.9454 28.3109 31.9403 27.7947 32.8841 27.1375Z" fill="white"/>
<path d="M20.8409 27.3828C19.2486 26.9508 17.8409 25.8677 17.4785 24.8082C17.5272 24.7224 17.6094 24.76 17.6757 24.7592C18.5649 24.7565 19.4541 24.7592 20.3434 24.7557C20.4927 24.7557 20.5951 24.7574 20.5984 24.9712C20.6077 25.7696 20.71 26.5591 20.8409 27.3828Z" fill="white"/>
<path d="M33.245 24.9817C33.0697 25.362 32.8189 25.6801 32.5219 25.9605C31.9103 26.538 30.7921 27.1585 29.9355 27.3863C30.0765 26.5494 30.1604 25.7476 30.1872 24.9405C30.1931 24.7635 30.2753 24.7556 30.4045 24.7556C31.3038 24.7591 32.2031 24.7617 33.1033 24.7547C33.2903 24.753 33.3222 24.8143 33.245 24.9817Z" fill="white"/>
<path d="M24.8582 32.4331C24.0109 32.3674 22.8046 30.7103 22.3457 28.9603C23.1485 29.0803 23.9203 29.1977 24.7022 29.2091C24.8524 29.2109 24.8599 29.3029 24.8599 29.4247C24.8574 30.4272 24.8582 31.4297 24.8582 32.4331Z" fill="white"/>
<path d="M24.8597 18.9281C24.8589 19.0377 24.9084 19.177 24.7171 19.1849C23.9344 19.2182 23.1567 19.2979 22.3203 19.4574C22.7188 18.2788 23.1701 17.2193 24.0334 16.4158C24.2582 16.2054 24.5367 15.9022 24.7959 15.9855C24.9721 16.0416 24.8521 16.492 24.8563 16.7654C24.8681 17.4866 24.8614 18.2078 24.8597 18.9281Z" fill="white"/>
<path d="M28.4423 19.4067C28.2334 19.4593 28.0547 19.3734 27.8718 19.3498C27.3013 19.2762 26.7301 19.2096 26.1546 19.1938C25.991 19.1894 25.9222 19.1439 25.9239 18.9511C25.9348 18.0117 25.9322 17.0723 25.9264 16.1328C25.9247 15.9366 25.97 15.9103 26.1369 15.9926C26.4742 16.1591 26.7611 16.3905 27.0111 16.6727C27.7049 17.457 28.1159 18.4025 28.4423 19.4067Z" fill="white"/>
<path d="M28.4727 28.9489C27.9367 30.3991 27.404 31.775 25.9309 32.5216V31.4682C25.9309 30.7926 25.9309 30.1161 25.9317 29.4405C25.9317 29.3362 25.9023 29.2144 26.0684 29.21C26.8595 29.1916 27.6431 29.0934 28.4727 28.9489Z" fill="white"/>
<path d="M20.8463 20.9814C20.7213 21.8376 20.6105 22.6578 20.5988 23.4868C20.5971 23.6314 20.5183 23.6375 20.4159 23.6367C19.4445 23.6358 18.4722 23.6367 17.4336 23.6367C18.1467 22.0909 19.4755 21.5423 20.8463 20.9814Z" fill="white"/>
<path d="M33.2887 23.6366H30.8197C30.2241 23.6366 30.2182 23.6366 30.1704 23.0109C30.1201 22.3502 30.0479 21.6921 29.9414 21.0296C31.6066 21.4923 33.1226 22.6841 33.2887 23.6366Z" fill="white"/>
</svg>
