<svg width="42" height="42" viewBox="0 0 42 42" fill="none" xmlns="http://www.w3.org/2000/svg">
<circle cx="21" cy="21" r="21" fill="#0160BC"/>
<path d="M18.7581 11.2121C18.7781 9.96099 19.8093 8.9724 21.0646 9.00059C22.2749 9.02753 23.2678 10.0656 23.2396 11.2735C23.2102 12.5114 22.1904 13.4988 20.9682 13.4724C19.7272 13.4461 18.7387 12.435 18.7581 11.2121Z" fill="white"/>
<path d="M16.1823 19.104C16.4397 16.7165 18.4412 14.837 20.7991 14.7687C23.2598 14.6973 25.3627 16.3869 25.773 18.7707C25.8113 18.9931 25.8163 19.2212 25.8382 19.4461C25.8877 19.9473 25.6665 20.3225 25.2807 20.6126C24.6599 21.0793 23.9301 21.2748 23.1846 21.4201C22.4623 21.5605 21.7313 21.6187 20.9952 21.6143C19.7724 21.5962 18.5659 21.4853 17.4207 21.0085C17.313 20.9634 17.2071 20.9139 17.105 20.8582C16.3188 20.4322 16.087 19.9905 16.1823 19.104Z" fill="white"/>
<path d="M32.9989 22.1348C32.9951 22.6441 32.7101 22.9611 32.2002 22.9818C31.394 23.015 30.7137 23.3007 30.1874 23.9234C29.3173 24.9527 29.3443 26.4312 30.2501 27.4299C30.6861 27.9104 30.6773 28.2919 30.2194 28.7505C29.7339 29.2373 29.2472 29.7228 28.7617 30.209C28.29 30.6807 27.9266 30.6888 27.4242 30.2447C26.6575 29.5662 25.7742 29.3757 24.8107 29.6977C23.8504 30.0191 23.2502 30.6957 23.0366 31.6962C23.0128 31.8102 22.994 31.9293 22.9984 32.0446C23.0147 32.4988 22.8224 32.817 22.4058 32.9999C22.3995 32.8866 22.4985 32.8653 22.5668 32.8233C22.7742 32.6948 22.8844 32.5163 22.9082 32.2695C22.9433 31.9048 22.964 31.5346 23.1162 31.1938C23.5365 30.2522 24.2526 29.6802 25.2736 29.5236C26.083 29.3995 26.8028 29.6244 27.423 30.1607C27.5 30.2271 27.5796 30.291 27.661 30.3505C27.9053 30.5303 28.1935 30.5422 28.451 30.3819C28.5838 30.2992 28.7028 30.1977 28.8137 30.0868C29.2384 29.6608 29.6637 29.236 30.0891 28.8106C30.1329 28.7662 30.1768 28.7217 30.2169 28.6741C30.5865 28.2393 30.5915 27.9217 30.2213 27.49C30.0791 27.3234 29.9413 27.1555 29.8323 26.9644C29.2634 25.9651 29.4219 24.6852 30.1937 23.8276C30.7406 23.2192 31.4322 22.963 32.2265 22.9054C32.6851 22.8722 32.9262 22.5928 32.9338 22.1361C32.9375 21.9017 32.9369 21.6674 32.9338 21.4331C32.93 21.1312 32.8655 21.0666 32.5548 21.0648C32.0549 21.061 31.555 21.0635 31.0551 21.0635C29.821 21.0635 28.5869 21.0629 27.3528 21.0641C26.987 21.0641 26.9519 21.093 26.9168 21.4526C26.8028 22.6397 26.4113 23.7217 25.6595 24.6552C24.6453 25.9156 23.3423 26.6812 21.7261 26.8773C20.0592 27.079 18.5588 26.6518 17.2621 25.593C16.0443 24.5988 15.3195 23.3088 15.1222 21.7376C15.104 21.5979 15.0796 21.4594 15.0708 21.3191C15.0608 21.1493 14.9631 21.0679 14.7952 21.0654C14.725 21.0641 14.6549 21.0635 14.5847 21.0635C13.0932 21.0635 11.601 21.0623 10.1094 21.0648C9.73857 21.0654 9.36396 21.0265 9 21.1399C9.10775 21.0259 9.23805 20.9958 9.39528 20.9958C11.1763 21.0015 12.9572 20.999 14.7388 20.9996C15.0783 20.9996 15.126 21.0453 15.1466 21.3868C15.3114 24.1809 17.5258 26.507 20.3179 26.819C23.4864 27.173 26.3167 25.0104 26.8015 21.861C26.8291 21.6837 26.841 21.5039 26.8548 21.3254C26.8736 21.071 26.9444 20.9996 27.2043 20.9996C29.0248 20.999 30.8452 20.999 32.665 21.0002C32.9175 21.0002 32.9964 21.0823 32.9983 21.3379C33.0008 21.6035 33.0002 21.8692 32.9989 22.1348Z" fill="white"/>
<path d="M32.9989 22.1348C32.9951 22.6441 32.7101 22.9611 32.2002 22.9818C31.394 23.015 30.7137 23.3007 30.1874 23.9234C29.3173 24.9527 29.3443 26.4312 30.2501 27.4299C30.6861 27.9104 30.6773 28.2919 30.2194 28.7505C29.7339 29.2373 29.2472 29.7228 28.7617 30.209C28.29 30.6807 27.9266 30.6888 27.4242 30.2447C26.6575 29.5662 25.7742 29.3757 24.8107 29.6977C23.8504 30.0191 23.2502 30.6957 23.0366 31.6962C23.0128 31.8102 22.994 31.9293 22.9984 32.0446C23.0147 32.4988 22.8224 32.817 22.4058 32.9999H19.5931C19.1771 32.8176 18.9842 32.4994 19.0005 32.0458C19.0042 31.9299 18.9854 31.8115 18.9616 31.6975C18.748 30.687 18.1416 30.006 17.1707 29.6896C16.1972 29.372 15.3101 29.5762 14.5459 30.2716C14.1017 30.6751 13.7002 30.6688 13.2773 30.2478C12.7687 29.741 12.2619 29.2323 11.7545 28.7236C11.3316 28.2994 11.3241 27.9016 11.725 27.4562C12.4623 26.6367 12.6496 25.6964 12.25 24.6783C11.8459 23.6509 11.0654 23.0689 9.95344 23.0037C9.50303 22.9768 9.18229 22.8221 9 22.4054V21.1399C9.10775 21.0259 9.23805 20.9958 9.39528 20.9958C11.1763 21.0015 12.9572 20.999 14.7388 20.9996C15.0783 20.9996 15.126 21.0453 15.1466 21.3868C15.3114 24.1809 17.5258 26.507 20.3179 26.819C23.4864 27.173 26.3167 25.0104 26.8015 21.861C26.8291 21.6837 26.841 21.5039 26.8548 21.3254C26.8736 21.071 26.9444 20.9996 27.2043 20.9996C29.0248 20.999 30.8452 20.999 32.665 21.0002C32.9175 21.0002 32.9964 21.0823 32.9983 21.3379C33.0008 21.6035 33.0002 21.8692 32.9989 22.1348Z" fill="white"/>
<path d="M25.2807 20.6126C24.6599 21.0793 23.9301 21.2748 23.1846 21.4201C22.4623 21.5605 21.7313 21.6187 20.9952 21.6143C19.7724 21.5962 18.5659 21.4853 17.4207 21.0085C17.313 20.9634 17.2071 20.9139 17.105 20.8582C16.3188 20.4322 16.087 19.9905 16.1823 19.104C16.4397 16.7165 18.4412 14.837 20.7991 14.7687C23.2598 14.6973 25.3627 16.3869 25.773 18.7707C25.8113 18.9931 25.8163 19.2212 25.8382 19.4461C25.8877 19.9473 25.6665 20.3225 25.2807 20.6126Z" fill="white"/>
<path d="M23.2396 11.2735C23.2102 12.5114 22.1904 13.4988 20.9682 13.4724C19.7272 13.4461 18.7387 12.435 18.7581 11.2121C18.7781 9.96099 19.8093 8.9724 21.0646 9.00059C22.2749 9.02753 23.2678 10.0656 23.2396 11.2735Z" fill="white"/>
</svg>
