<svg width="42" height="42" viewBox="0 0 42 42" fill="none" xmlns="http://www.w3.org/2000/svg">
<circle cx="21" cy="21" r="21" fill="#0160BC"/>
<path d="M14.6208 12.0394C14.6201 11.4588 14.6171 10.8789 14.6215 10.2991C14.6282 9.54316 15.1844 9.0034 15.9687 9.00268C18.4891 8.99911 21.0087 8.99911 23.5291 9.00268C24.2934 9.00412 24.8571 9.54459 24.8689 10.2841C24.8785 10.8911 24.8734 11.4982 24.8704 12.1045C24.8674 12.9442 24.3312 13.4639 23.4476 13.4689C22.2108 13.4754 20.9739 13.4704 19.7363 13.4704C18.5276 13.4704 17.3182 13.4718 16.1087 13.4696C15.1311 13.4682 14.6215 12.9764 14.6208 12.0394Z" fill="white"/>
<path d="M30.2944 27.2478C30.4262 27.3731 30.4492 27.4404 30.3063 27.5778C28.6561 29.1627 27.0127 30.7533 25.3699 32.3447C25.207 32.5022 25.0226 32.5945 24.793 32.6303C24.0835 32.7413 23.3762 32.8644 22.6681 32.9818C22.6044 32.9926 22.54 32.9954 22.5081 32.999C22.0104 32.9926 21.6653 32.5995 21.7408 32.155C21.8623 31.4427 21.9875 30.7319 22.1112 30.0203C22.1489 29.8027 22.2504 29.6216 22.4141 29.4641C24.0561 27.8842 25.6958 26.3029 27.3304 24.7158C27.4644 24.5862 27.5326 24.5755 27.6718 24.7122C28.5391 25.5641 29.4145 26.4088 30.2944 27.2478Z" fill="white"/>
<path d="M30.4497 14.1491C30.4237 12.7825 29.4357 11.6708 28.0737 11.3329C27.4916 11.1883 26.8983 11.2592 26.3095 11.2406C26.1718 11.2363 26.2007 11.3308 26.2007 11.4052C26.1977 11.6908 26.2059 11.9772 26.1955 12.2621C26.1466 13.6165 25.0838 14.6939 23.6847 14.7375C22.3842 14.7783 21.0814 14.7554 19.7794 14.7554C18.4411 14.7547 17.1013 14.7733 15.7637 14.7361C14.5565 14.7024 13.564 13.8262 13.3374 12.6801C13.2552 12.2635 13.3063 11.844 13.2885 11.426C13.2855 11.3451 13.3285 11.237 13.17 11.2406C12.6812 11.252 12.1879 11.1969 11.7043 11.2756C10.0453 11.5441 9.00171 12.7768 9.00097 14.4583C8.99949 19.5638 8.99949 24.6686 9.00245 29.7734C9.00319 30.0132 9.01134 30.258 9.058 30.4928C9.35351 31.974 10.6326 32.9955 12.1953 32.9976C14.9008 33.0019 17.6064 32.9991 20.3112 32.9991H20.5459C20.3934 32.591 20.3712 32.1973 20.4497 31.7936C20.5615 31.2159 20.6874 30.6382 20.7578 30.0555C20.8407 29.3732 21.1614 28.8442 21.6621 28.3653C23.9003 26.2249 26.1236 24.0702 28.3448 21.9133C28.8958 21.3785 29.5328 21.017 30.306 20.8975C30.4386 20.8767 30.4689 20.8266 30.4689 20.7085C30.4637 18.5215 30.4904 16.3346 30.4497 14.1491ZM18.3063 23.9478C17.679 23.9506 17.0516 23.9485 16.4243 23.9485C15.8066 23.9485 15.189 23.9499 14.5705 23.9478C14.0839 23.9456 13.7403 23.6442 13.7247 23.2133C13.7084 22.7623 14.0313 22.4137 14.529 22.4087C15.8015 22.3951 17.0746 22.3958 18.347 22.4087C18.824 22.4137 19.1654 22.7652 19.161 23.1861C19.1558 23.6235 18.7981 23.9456 18.3063 23.9478ZM23.0671 19.5646C22.1072 19.5739 21.1481 19.5674 20.1882 19.5674H18.7773C17.3746 19.5674 15.9725 19.5688 14.5705 19.566C14.0639 19.5653 13.7262 19.2553 13.7247 18.805C13.7225 18.4041 14.0091 18.0906 14.4239 18.0441C14.515 18.034 14.6083 18.0312 14.7001 18.0312C17.4308 18.0305 20.1616 18.0305 22.8923 18.0312C23.3952 18.0312 23.6788 18.1851 23.8136 18.5237C24.0165 19.0305 23.647 19.5581 23.0671 19.5646Z" fill="white"/>
<path d="M32.4403 25.4982C32.1544 25.8117 31.8285 26.0909 31.5308 26.3944C31.4227 26.5047 31.3627 26.471 31.2701 26.3808C30.3732 25.5089 29.4733 24.6392 28.5705 23.7737C28.472 23.6792 28.4572 23.6205 28.5653 23.5217C28.8645 23.2447 29.1482 22.9512 29.4481 22.6748C29.8525 22.3019 30.3488 22.1179 31.0605 22.1193C31.7767 22.1544 32.4396 22.5331 32.798 23.3141C33.1587 24.1015 33.0313 24.8482 32.4403 25.4982Z" fill="white"/>
<path d="M30.4497 14.1491C30.4237 12.7825 29.4357 11.6708 28.0737 11.3329C27.4916 11.1883 26.8983 11.2592 26.3095 11.2406C26.1718 11.2363 26.2007 11.3308 26.2007 11.4052C26.1977 11.6908 26.2059 11.9772 26.1955 12.2621C26.1466 13.6165 25.0838 14.6939 23.6847 14.7375C22.3842 14.7783 21.0814 14.7554 19.7794 14.7554C18.4411 14.7547 17.1013 14.7733 15.7637 14.7361C14.5565 14.7024 13.564 13.8262 13.3374 12.6801C13.2552 12.2635 13.3063 11.844 13.2885 11.426C13.2855 11.3451 13.3285 11.237 13.17 11.2406C12.6812 11.252 12.1879 11.1969 11.7043 11.2756C10.0453 11.5441 9.00171 12.7768 9.00097 14.4583C8.99949 19.5638 8.99949 24.6686 9.00245 29.7734C9.00319 30.0132 9.01134 30.258 9.058 30.4928C9.35351 31.974 10.6326 32.9955 12.1953 32.9976C14.9008 33.0019 17.6064 32.9991 20.3112 32.9991H20.5459C20.3934 32.591 20.3712 32.1973 20.4497 31.7936C20.5615 31.2159 20.6874 30.6382 20.7578 30.0555C20.8407 29.3732 21.1614 28.8442 21.6621 28.3653C23.9003 26.2249 26.1236 24.0702 28.3448 21.9133C28.8958 21.3785 29.5328 21.017 30.306 20.8975C30.4386 20.8767 30.4689 20.8266 30.4689 20.7085C30.4637 18.5215 30.4904 16.3346 30.4497 14.1491ZM18.3063 23.9478C17.679 23.9506 17.0516 23.9485 16.4243 23.9485C15.8066 23.9485 15.189 23.9499 14.5705 23.9478C14.0839 23.9456 13.7403 23.6442 13.7247 23.2133C13.7084 22.7623 14.0313 22.4137 14.529 22.4087C15.8015 22.3951 17.0746 22.3958 18.347 22.4087C18.824 22.4137 19.1654 22.7652 19.161 23.1861C19.1558 23.6235 18.7981 23.9456 18.3063 23.9478ZM23.0671 19.5646C22.1072 19.5739 21.1481 19.5674 20.1882 19.5674H18.7773C17.3746 19.5674 15.9725 19.5688 14.5705 19.566C14.0639 19.5653 13.7262 19.2553 13.7247 18.805C13.7225 18.4041 14.0091 18.0906 14.4239 18.0441C14.515 18.034 14.6083 18.0312 14.7001 18.0312C17.4308 18.0305 20.1616 18.0305 22.8923 18.0312C23.3952 18.0312 23.6788 18.1851 23.8136 18.5237C24.0165 19.0305 23.647 19.5581 23.0671 19.5646Z" fill="white"/>
<path d="M24.8704 12.1045C24.8674 12.9442 24.3312 13.4639 23.4476 13.4689C22.2108 13.4754 20.9739 13.4704 19.7363 13.4704C18.5276 13.4704 17.3182 13.4718 16.1087 13.4696C15.1311 13.4682 14.6215 12.9764 14.6208 12.0394C14.6201 11.4588 14.6171 10.8789 14.6215 10.2991C14.6282 9.54316 15.1844 9.0034 15.9687 9.00268C18.4891 8.99911 21.0087 8.99911 23.5291 9.00268C24.2934 9.00412 24.8571 9.54459 24.8689 10.2841C24.8785 10.8911 24.8734 11.4982 24.8704 12.1045Z" fill="white"/>
<path d="M30.3063 27.5778C28.6561 29.1627 27.0127 30.7533 25.3699 32.3447C25.207 32.5022 25.0226 32.5945 24.793 32.6303C24.0835 32.7413 23.3762 32.8644 22.6681 32.9818C22.6044 32.9926 22.54 32.9954 22.5081 32.999C22.0104 32.9926 21.6653 32.5995 21.7408 32.155C21.8623 31.4427 21.9875 30.7319 22.1112 30.0203C22.1489 29.8027 22.2504 29.6216 22.4141 29.4641C24.0561 27.8842 25.6958 26.3029 27.3304 24.7158C27.4644 24.5862 27.5326 24.5755 27.6718 24.7122C28.5391 25.5641 29.4145 26.4088 30.2944 27.2478C30.4262 27.3731 30.4492 27.4404 30.3063 27.5778Z" fill="white"/>
<path d="M32.4403 25.4982C32.1544 25.8117 31.8285 26.0909 31.5308 26.3944C31.4227 26.5047 31.3627 26.471 31.2701 26.3808C30.3732 25.5089 29.4733 24.6392 28.5705 23.7737C28.472 23.6792 28.4572 23.6205 28.5653 23.5217C28.8645 23.2447 29.1482 22.9512 29.4481 22.6748C29.8525 22.3019 30.3488 22.1179 31.0605 22.1193C31.7767 22.1544 32.4396 22.5331 32.798 23.3141C33.1587 24.1015 33.0313 24.8482 32.4403 25.4982Z" fill="white"/>
</svg>
