<svg width="50" height="50" viewBox="0 0 50 50" fill="none" xmlns="http://www.w3.org/2000/svg">
<g filter="url(#filter0_d_236_961)">
<circle cx="25" cy="21" r="21" fill="#D90102"/>
<path d="M13.0421 16.7434C12.8549 15.6583 13.4947 14.6326 14.5802 14.279C15.6712 13.9241 16.8834 14.3279 17.4367 15.2603C17.5556 15.4613 17.6514 15.46 17.8506 15.3993C18.7072 15.139 19.5575 15.2218 20.3734 15.6394C18.5559 16.9339 17.4979 18.6121 17.2058 20.7248C16.4223 20.2752 15.9303 19.6593 15.736 18.8548C15.6825 18.6343 15.6325 18.5501 15.3538 18.5527C14.2212 18.5631 13.2181 17.7593 13.0421 16.7434Z" fill="white"/>
<path d="M20.3802 27.3579C19.9522 27.6 19.5045 27.709 19.0336 27.7442C18.6 27.7762 18.1755 27.7168 17.7672 27.5798C17.6321 27.5347 17.568 27.5341 17.4892 27.6698C16.9746 28.5565 15.916 29.0159 14.9002 28.8077C13.8317 28.5885 13.0834 27.7794 13.0053 26.7596C12.9124 25.5382 14.059 24.412 15.3922 24.4466C15.645 24.4531 15.6872 24.365 15.728 24.1823C15.9082 23.3785 16.458 22.679 17.2168 22.2902C17.3449 23.3211 17.6779 24.2639 18.2269 25.1376C18.7717 26.0053 19.4834 26.7387 20.3802 27.3579Z" fill="white"/>
<path d="M21.8481 14.8453C21.8115 14.5061 21.9023 14.1896 22.0205 13.8823C22.2099 13.391 22.5231 12.9721 22.9595 12.6413C23.0757 12.5539 23.0736 12.5023 22.999 12.3907C22.357 11.4349 22.5632 10.2376 23.4868 9.50877C24.3441 8.83215 25.6513 8.8302 26.5101 9.5042C27.4364 10.2311 27.649 11.4323 27.0063 12.3836C26.9169 12.5167 26.9549 12.5669 27.0626 12.6543C27.7708 13.2292 28.1424 13.9528 28.1685 14.8473C26.0567 14.048 23.9633 14.0435 21.8481 14.8453Z" fill="white"/>
<path d="M27.0325 30.6587C27.8955 31.9388 27.0565 33.6757 25.4508 33.9569C25.4164 33.9628 25.3819 33.9635 25.3678 34C25.379 33.8701 25.5029 33.893 25.5846 33.8708C26.7932 33.5446 27.4999 32.4575 27.2508 31.3118C27.2008 31.0841 27.0987 30.8779 26.9664 30.6854C26.8566 30.5256 26.8784 30.4107 27.0311 30.2855C27.5823 29.8333 27.923 29.2676 28.0574 28.5962C28.0687 28.5401 28.0771 28.484 28.0849 28.4272C28.1046 28.2837 28.0504 28.2563 27.9082 28.3111C27.2965 28.5466 26.6588 28.6889 26.0013 28.7606C24.673 28.9048 23.3799 28.7809 22.1298 28.3248C22.0685 28.3019 22.0024 28.2367 21.9383 28.2909C21.8813 28.3391 21.9186 28.4148 21.9271 28.4775C22.0284 29.173 22.3579 29.7583 22.9097 30.2398C23.1617 30.459 23.1568 30.4636 23.0005 30.7291C22.2797 31.9519 22.9069 33.4108 24.3408 33.8532C24.4302 33.8806 24.5597 33.8675 24.5773 34C24.483 33.9178 24.3534 33.9282 24.2408 33.893C22.8105 33.446 22.1741 31.8214 22.9794 30.6384C23.0815 30.4884 23.0435 30.4342 22.9196 30.3324C22.2234 29.7589 21.856 29.0399 21.832 28.1525C23.9473 28.9583 26.0485 28.957 28.1679 28.1545C28.1419 29.0314 27.7829 29.7452 27.0966 30.3161C26.9614 30.4284 26.9192 30.491 27.0325 30.6587Z" fill="white"/>
<path d="M31.3989 21.4698C31.3011 25.3018 28.2968 27.4321 24.9265 27.3975C21.5118 27.3623 18.6891 25.1354 18.5898 21.4333C18.6272 18.1885 21.5322 15.533 25.0187 15.5571C28.5361 15.5819 31.4813 18.2701 31.3989 21.4698Z" fill="white"/>
<path d="M29.6191 15.6354C30.4674 15.21 31.3205 15.1408 32.2011 15.4135C32.3721 15.467 32.4425 15.4572 32.534 15.3007C33.1 14.333 34.3325 13.9083 35.4405 14.2854C36.5302 14.6567 37.1679 15.715 36.9476 16.7863C36.7315 17.8349 35.696 18.5976 34.5212 18.5552C34.3501 18.5493 34.3262 18.6022 34.2959 18.732C34.0848 19.6331 33.5505 20.3325 32.7903 20.7077C32.4981 18.6146 31.4423 16.9299 29.6191 15.6354Z" fill="white"/>
<path d="M35.1431 28.7912C34.1139 29.0189 33.0482 28.5817 32.5358 27.7035C32.4443 27.5476 32.3753 27.5365 32.2021 27.59C31.3208 27.8634 30.4677 27.7936 29.6152 27.3642C30.512 26.7424 31.2307 26.0064 31.7777 25.1328C32.3246 24.2585 32.6561 23.315 32.7871 22.2782C33.4572 22.6534 33.9056 23.159 34.1611 23.8122C34.2209 23.9642 34.2765 24.1214 34.2977 24.2806C34.3174 24.434 34.3835 24.449 34.5335 24.4451C35.804 24.4092 36.8134 25.2398 36.9824 26.4482C37.1288 27.4986 36.3186 28.5315 35.1431 28.7912Z" fill="white"/>
<path d="M27.0325 30.6587C27.8955 31.9388 27.0565 33.6757 25.4508 33.9569C25.4164 33.9628 25.3819 33.9635 25.3678 34H24.5773C24.483 33.9178 24.3534 33.9282 24.2408 33.893C22.8105 33.446 22.1741 31.8214 22.9794 30.6384C23.0815 30.4884 23.0435 30.4342 22.9196 30.3324C22.2234 29.7589 21.856 29.0399 21.832 28.1525C23.9473 28.9583 26.0485 28.957 28.1679 28.1545C28.1419 29.0314 27.7829 29.7452 27.0966 30.3161C26.9614 30.4284 26.9192 30.491 27.0325 30.6587Z" fill="white"/>
<path d="M31.3989 21.4698C31.3011 25.3018 28.2968 27.4321 24.9265 27.3975C21.5118 27.3623 18.6891 25.1354 18.5898 21.4333C18.6272 18.1885 21.5322 15.533 25.0187 15.5571C28.5361 15.5819 31.4813 18.2701 31.3989 21.4698Z" fill="white"/>
<path d="M20.3802 27.3579C19.9522 27.6 19.5045 27.709 19.0336 27.7442C18.6 27.7762 18.1755 27.7168 17.7672 27.5798C17.6321 27.5347 17.568 27.5341 17.4892 27.6698C16.9746 28.5565 15.916 29.0159 14.9002 28.8077C13.8317 28.5885 13.0834 27.7794 13.0053 26.7596C12.9124 25.5382 14.059 24.412 15.3922 24.4466C15.645 24.4531 15.6872 24.365 15.728 24.1823C15.9082 23.3785 16.458 22.679 17.2168 22.2902C17.3449 23.3211 17.6779 24.2639 18.2269 25.1376C18.7717 26.0053 19.4834 26.7387 20.3802 27.3579Z" fill="white"/>
<path d="M36.9476 16.7863C36.7315 17.8349 35.696 18.5976 34.5212 18.5552C34.3501 18.5493 34.3262 18.6022 34.2959 18.732C34.0848 19.6331 33.5505 20.3325 32.7903 20.7077C32.4981 18.6146 31.4423 16.9299 29.6191 15.6354C30.4674 15.21 31.3205 15.1408 32.2011 15.4135C32.3721 15.467 32.4425 15.4572 32.534 15.3007C33.1 14.333 34.3325 13.9083 35.4405 14.2854C36.5302 14.6567 37.1679 15.715 36.9476 16.7863Z" fill="white"/>
<path d="M35.1431 28.7912C34.1139 29.0189 33.0482 28.5817 32.5358 27.7035C32.4443 27.5476 32.3753 27.5365 32.2021 27.59C31.3208 27.8634 30.4677 27.7936 29.6152 27.3642C30.512 26.7424 31.2307 26.0064 31.7777 25.1328C32.3246 24.2585 32.6561 23.315 32.7871 22.2782C33.4572 22.6534 33.9056 23.159 34.1611 23.8122C34.2209 23.9642 34.2765 24.1214 34.2977 24.2806C34.3174 24.434 34.3835 24.449 34.5335 24.4451C35.804 24.4092 36.8134 25.2398 36.9824 26.4482C37.1288 27.4986 36.3186 28.5315 35.1431 28.7912Z" fill="white"/>
<path d="M28.1685 14.8473C26.0567 14.048 23.9633 14.0435 21.8481 14.8453C21.8115 14.5061 21.9023 14.1896 22.0205 13.8823C22.2099 13.391 22.5231 12.9721 22.9595 12.6413C23.0757 12.5539 23.0736 12.5023 22.999 12.3907C22.357 11.4349 22.5632 10.2376 23.4868 9.50877C24.3441 8.83215 25.6513 8.8302 26.5101 9.5042C27.4364 10.2311 27.649 11.4323 27.0063 12.3836C26.9169 12.5167 26.9549 12.5669 27.0626 12.6543C27.7708 13.2292 28.1424 13.9528 28.1685 14.8473Z" fill="white"/>
<path d="M20.3734 15.6394C18.5559 16.9339 17.4979 18.6121 17.2058 20.7248C16.4223 20.2752 15.9303 19.6593 15.736 18.8548C15.6825 18.6343 15.6325 18.5501 15.3538 18.5527C14.2212 18.5631 13.2181 17.7593 13.0421 16.7434C12.8549 15.6583 13.4947 14.6326 14.5802 14.279C15.6712 13.9241 16.8834 14.3279 17.4367 15.2603C17.5556 15.4613 17.6514 15.46 17.8506 15.3993C18.7072 15.139 19.5575 15.2218 20.3734 15.6394Z" fill="white"/>
</g>
<defs>
<filter id="filter0_d_236_961" x="0" y="0" width="50" height="50" filterUnits="userSpaceOnUse" color-interpolation-filters="sRGB">
<feFlood flood-opacity="0" result="BackgroundImageFix"/>
<feColorMatrix in="SourceAlpha" type="matrix" values="0 0 0 0 0 0 0 0 0 0 0 0 0 0 0 0 0 0 127 0" result="hardAlpha"/>
<feOffset dy="4"/>
<feGaussianBlur stdDeviation="2"/>
<feComposite in2="hardAlpha" operator="out"/>
<feColorMatrix type="matrix" values="0 0 0 0 0 0 0 0 0 0 0 0 0 0 0 0 0 0 0.25 0"/>
<feBlend mode="normal" in2="BackgroundImageFix" result="effect1_dropShadow_236_961"/>
<feBlend mode="normal" in="SourceGraphic" in2="effect1_dropShadow_236_961" result="shape"/>
</filter>
</defs>
</svg>
