<svg width="16" height="17" viewBox="0 0 16 17" fill="none" xmlns="http://www.w3.org/2000/svg">
<path d="M10.9834 0.936684C10.9844 0.724248 10.9839 0.512242 10.9839 0.299805C11.2475 0.539389 11.5011 0.769493 11.7584 1.00348C11.5364 1.00348 11.2967 1.00304 11.0569 1.00391C11.0035 1.00434 10.9829 0.983653 10.9834 0.936684Z" fill="#FEFEFE"/>
<path d="M12.099 7.28361C12.0994 7.1608 12.0603 7.11556 11.9285 7.1371C11.8034 7.15736 11.7542 7.11685 11.7413 6.99577C11.7188 6.79152 11.6697 6.58942 11.6276 6.36621C11.4194 6.50152 11.2299 6.62045 11.047 6.7467C10.9643 6.80315 10.9123 6.81866 10.8273 6.73895C10.4973 6.42912 10.1592 6.1262 9.81779 5.82629C9.74282 5.75993 9.7347 5.7177 9.8006 5.64143C9.94816 5.47036 10.0838 5.2911 10.2332 5.10409C9.98445 5.06746 9.7624 5.02652 9.53795 5.00498C9.41189 4.99291 9.367 4.95844 9.36939 4.83822C9.37798 4.41938 9.37798 4.0001 9.36939 3.58083C9.367 3.46621 9.41714 3.43519 9.52888 3.42226C9.75762 3.39554 9.98493 3.35892 10.2342 3.32315C10.0795 3.1301 9.94243 2.94912 9.79344 2.77633C9.73231 2.70523 9.74282 2.66731 9.81063 2.60741C10.1554 2.30276 10.4959 1.99467 10.834 1.68398C10.8989 1.62409 10.9414 1.60771 11.0221 1.66545C11.1902 1.78481 11.3683 1.89297 11.5407 2.00716C11.6076 2.05198 11.6401 2.05155 11.6501 1.96536C11.663 1.85376 11.6826 1.74172 11.7117 1.63227C11.738 1.53317 11.6969 1.51593 11.5971 1.51765C11.3354 1.52325 11.0732 1.51981 10.8111 1.51938C10.4978 1.51895 10.4133 1.44181 10.4128 1.15311C10.4123 0.820015 10.4047 0.486493 10.4166 0.153834C10.4214 0.0206835 10.3708 0.000430906 10.239 0.000430906C8.04137 0.00387816 5.84424 0.00430906 3.64711 0C3.51531 0 3.47949 0.0258544 3.47949 0.148663C3.48379 3.40502 3.48379 6.66138 3.47949 9.91774C3.47949 10.0457 3.51769 10.0767 3.65713 10.0767C6.41441 10.0729 9.17121 10.0729 11.928 10.0763C12.0579 10.0767 12.0999 10.0526 12.099 9.92765C12.0928 9.04645 12.0928 8.16525 12.099 7.28361ZM5.1924 1.5155C5.25018 1.50602 5.31083 1.50774 5.37052 1.50774H8.76196C8.78584 1.50774 8.80972 1.50731 8.83312 1.50774C9.0609 1.51248 9.18601 1.60599 9.18315 1.76887C9.18028 1.9296 9.05183 2.02267 8.82357 2.02311C8.23477 2.0244 7.64549 2.02354 7.05622 2.02354C6.47315 2.02354 5.89008 2.02483 5.30701 2.02311C5.08018 2.02224 4.95411 1.92615 4.95984 1.76025C4.96462 1.62495 5.04437 1.54006 5.1924 1.5155ZM5.07015 2.91465C5.14656 2.85993 5.23681 2.86467 5.32564 2.86467H7.07532C7.65265 2.86467 8.22951 2.86424 8.80685 2.86467C9.05374 2.8651 9.18124 2.95128 9.18315 3.11675C9.18554 3.28308 9.0523 3.38003 8.81449 3.38003C7.64836 3.38089 6.48174 3.38003 5.31561 3.38132C5.16089 3.38132 5.0267 3.34771 4.97322 3.20293C4.93215 3.09262 4.96462 2.99092 5.07015 2.91465ZM5.0692 4.27071C5.13987 4.21944 5.22297 4.22073 5.30653 4.22116H7.00321C7.57434 4.22116 8.14595 4.2203 8.71707 4.22116C8.94152 4.22159 9.07332 4.31941 9.07045 4.47884C9.06806 4.63526 8.93101 4.73609 8.70943 4.73652C7.57864 4.73739 6.44784 4.73652 5.31704 4.73739C5.16232 4.73782 5.02765 4.70377 4.97369 4.55985C4.93263 4.44954 4.96366 4.34785 5.0692 4.27071ZM4.96557 5.77932C5.00043 5.62936 5.11886 5.57464 5.28075 5.57507C5.85808 5.57593 6.43542 5.5755 7.01276 5.5755C7.57816 5.5755 8.14404 5.57464 8.70943 5.5755C8.93722 5.57593 9.06806 5.669 9.07093 5.82758C9.07379 5.984 8.93483 6.09043 8.71755 6.09086C7.58102 6.09172 6.44402 6.09172 5.30701 6.09086C5.06156 6.09043 4.9226 5.96374 4.96557 5.77932ZM10.3861 8.79566C10.3287 8.806 10.2676 8.80299 10.2084 8.80299C8.5953 8.80299 6.98267 8.80342 5.36957 8.80256C5.29889 8.80256 5.22488 8.80256 5.1585 8.78489C5.01428 8.74568 4.94647 8.64958 4.96223 8.51471C4.97799 8.37898 5.06872 8.30055 5.21819 8.28978C5.33614 8.28159 5.456 8.28719 5.57491 8.28719H7.78875C8.62205 8.28719 9.45534 8.28676 10.2886 8.28762C10.4882 8.28762 10.6019 8.36863 10.6172 8.51471C10.6315 8.65346 10.5403 8.76808 10.3861 8.79566ZM10.3865 7.4396C10.3287 7.45037 10.2681 7.44693 10.2084 7.44693C8.59578 7.44736 6.98315 7.44736 5.37005 7.44649C5.29937 7.44649 5.22535 7.44649 5.15898 7.42883C5.01381 7.39048 4.94695 7.29395 4.96223 7.15951C4.97751 7.02377 5.06824 6.94492 5.21771 6.93458C5.33614 6.92639 5.45552 6.93156 5.57443 6.93156C6.3127 6.93113 7.05048 6.93156 7.78875 6.93156C8.62157 6.93156 9.45486 6.9307 10.2882 6.93199C10.4801 6.93199 10.5923 7.00697 10.6153 7.1427C10.6396 7.28749 10.5479 7.4103 10.3865 7.4396Z" fill="#FEFEFE"/>
<path d="M14.939 3.84185C14.6649 3.81772 14.4538 3.76343 14.3779 3.47515C14.3454 3.35105 14.3148 3.27004 14.4137 3.1649C14.5359 3.03433 14.7255 2.88524 14.7212 2.74864C14.7164 2.59869 14.4715 2.49743 14.3454 2.36384C14.2785 2.29231 14.2275 2.28326 14.1425 2.34618C14.0001 2.45175 13.8454 2.5431 13.6969 2.64135C13.6468 2.67453 13.6057 2.68271 13.5365 2.66419C13.2165 2.57714 12.9978 2.42805 13.0279 2.09022C13.0331 2.03291 13.0045 1.97387 13.0007 1.91527C12.9945 1.82693 12.9477 1.79979 12.8512 1.8041C12.6912 1.81099 12.5298 1.81185 12.3694 1.80367C12.2763 1.79893 12.2471 1.83211 12.2357 1.90838C12.2099 2.07815 12.1769 2.24707 12.1473 2.41685C12.1402 2.45864 12.1373 2.49398 12.0829 2.51983C11.6808 2.71072 11.6421 2.70986 11.2706 2.46597C11.2562 2.45649 11.2414 2.44744 11.2266 2.43796C10.9855 2.27982 10.9855 2.27982 10.7701 2.47329C10.4726 2.74003 10.464 2.74606 10.7219 3.04381C10.8699 3.21488 10.9435 3.35234 10.8093 3.57728C10.7185 3.72896 10.6469 3.80781 10.4564 3.816C10.2926 3.82289 10.0791 3.81815 9.98075 3.90477C9.86996 4.00258 9.95735 4.20037 9.94446 4.3542C9.94207 4.38049 9.94732 4.40806 9.9435 4.43435C9.933 4.51364 9.96547 4.54595 10.0586 4.55587C10.2472 4.57569 10.4335 4.61274 10.6216 4.63774C10.6856 4.64592 10.7276 4.66014 10.7515 4.72306C10.8021 4.85793 10.9239 4.99668 10.9053 5.12035C10.8866 5.24747 10.7357 5.35821 10.6426 5.47628C10.6187 5.50688 10.5987 5.54135 10.5686 5.56677C10.4654 5.65511 10.4936 5.72147 10.5925 5.79817C10.7271 5.90288 10.8389 6.09334 10.9812 6.11144C11.1373 6.13126 11.2777 5.94425 11.4305 5.85462C11.495 5.8167 11.5566 5.77533 11.6173 5.73698C11.6411 5.7443 11.6574 5.74991 11.6736 5.75508C12.1144 5.88952 12.1144 5.88952 12.196 6.29845C12.26 6.62077 12.26 6.62077 12.6234 6.62077C12.9835 6.62077 13.0031 6.62249 13.0308 6.29931C13.0527 6.03861 13.1411 5.87142 13.4457 5.79817C13.5799 5.76585 13.6635 5.75551 13.7748 5.8335C13.9276 5.9408 14.0904 6.13255 14.2509 6.10885C14.4099 6.08472 14.5316 5.88047 14.6787 5.7637C14.7575 5.70121 14.7437 5.65812 14.6864 5.59306C14.5904 5.48447 14.5111 5.36295 14.4113 5.25695C14.3201 5.16 14.3411 5.082 14.3721 4.96221C14.4452 4.67781 14.6448 4.61231 14.9247 4.5843C15.29 4.54768 15.2881 4.53389 15.2881 4.19606C15.2881 3.88193 15.2895 3.87245 14.939 3.84185ZM12.6034 5.17249C12.015 5.16603 11.538 4.72737 11.548 4.20166C11.558 3.66949 12.0365 3.25022 12.6291 3.25453C13.217 3.25884 13.6888 3.69319 13.6826 4.22493C13.6769 4.75408 13.1931 5.17852 12.6034 5.17249Z" fill="#FEFEFE"/>
<path d="M15.2855 11.8843C15.2836 12.4902 14.766 12.9263 14.0697 12.928C12.8315 12.9306 11.5932 12.9319 10.355 12.925C10.1883 12.9241 10.1353 12.9513 10.1406 13.112C10.1554 13.5575 10.1496 14.004 10.143 14.4495C10.141 14.5564 10.1745 14.5822 10.29 14.5809C10.8258 14.5753 11.3616 14.5779 11.8974 14.5788C12.1419 14.5788 12.3664 14.6378 12.5655 14.7692C12.7651 14.9011 12.8783 15.0756 12.883 15.301C12.8869 15.4996 12.8807 15.6987 12.8859 15.8974C12.8883 15.9754 12.8606 16.0068 12.7746 15.9965C12.745 15.993 12.715 15.996 12.6853 15.996C9.42236 15.996 6.15985 15.9943 2.89735 15.9999C2.71923 16.0003 2.671 15.9564 2.6901 15.8051C2.70442 15.6884 2.69296 15.569 2.69296 15.4509C2.69296 14.9106 3.04825 14.5853 3.65663 14.5796C4.19815 14.5745 4.74015 14.5762 5.28167 14.5801C5.38673 14.5809 5.43735 14.5715 5.43496 14.4547C5.42636 13.9876 5.42636 13.5201 5.43496 13.0525C5.43735 12.9362 5.38721 12.9267 5.28167 12.9271C4.04916 12.9297 2.81712 12.9288 1.58461 12.9288C0.76182 12.9284 0.289062 12.5022 0.289062 11.7607V4.8459C0.289062 4.11293 0.76182 3.6872 1.57458 3.68677C1.97332 3.68677 2.37254 3.69021 2.77128 3.68461C2.88063 3.68332 2.91645 3.71219 2.91263 3.8113C2.90499 4.02072 2.90547 4.23057 2.91263 4.43999C2.91549 4.53091 2.88589 4.55849 2.78417 4.5572C2.36156 4.55246 1.93894 4.55461 1.51585 4.55547C1.3 4.5559 1.2532 4.5977 1.2532 4.79032C1.2532 6.86944 1.25463 8.94856 1.24986 11.0281C1.24938 11.1531 1.28997 11.1759 1.41938 11.1759C5.66418 11.1729 9.90897 11.1725 14.1542 11.1764C14.2989 11.1768 14.3276 11.138 14.3271 11.0156C14.3223 9.66171 14.3257 8.30781 14.3214 6.9539C14.3214 6.8479 14.3562 6.77464 14.4393 6.70225C14.7153 6.46051 14.9842 6.21274 15.2879 5.93825C15.2879 7.95231 15.2917 9.91853 15.2855 11.8843Z" fill="#FEFEFE"/>
<path d="M15.2855 11.8843C15.2836 12.4902 14.766 12.9263 14.0697 12.928C12.8315 12.9306 11.5932 12.9319 10.355 12.925C10.1883 12.9241 10.1353 12.9513 10.1406 13.112C10.1554 13.5575 10.1496 14.004 10.143 14.4495C10.141 14.5564 10.1745 14.5822 10.29 14.5809C10.8258 14.5753 11.3616 14.5779 11.8974 14.5788C12.1419 14.5788 12.3664 14.6378 12.5655 14.7692C12.7651 14.9011 12.8783 15.0756 12.883 15.301C12.8869 15.4996 12.8807 15.6987 12.8859 15.8974C12.8883 15.9754 12.8606 16.0068 12.7746 15.9965C12.745 15.993 12.715 15.996 12.6853 15.996C9.42236 15.996 6.15985 15.9943 2.89735 15.9999C2.71923 16.0003 2.671 15.9564 2.6901 15.8051C2.70442 15.6884 2.69296 15.569 2.69296 15.4509C2.69296 14.9106 3.04825 14.5853 3.65663 14.5796C4.19815 14.5745 4.74015 14.5762 5.28167 14.5801C5.38673 14.5809 5.43735 14.5715 5.43496 14.4547C5.42636 13.9876 5.42636 13.5201 5.43496 13.0525C5.43735 12.9362 5.38721 12.9267 5.28167 12.9271C4.04916 12.9297 2.81712 12.9288 1.58461 12.9288C0.76182 12.9284 0.289062 12.5022 0.289062 11.7607V4.8459C0.289062 4.11293 0.76182 3.6872 1.57458 3.68677C1.97332 3.68677 2.37254 3.69021 2.77128 3.68461C2.88063 3.68332 2.91645 3.71219 2.91263 3.8113C2.90499 4.02072 2.90547 4.23057 2.91263 4.43999C2.91549 4.53091 2.88589 4.55849 2.78417 4.5572C2.36156 4.55246 1.93894 4.55461 1.51585 4.55547C1.3 4.5559 1.2532 4.5977 1.2532 4.79032C1.2532 6.86944 1.25463 8.94856 1.24986 11.0281C1.24938 11.1531 1.28997 11.1759 1.41938 11.1759C5.66418 11.1729 9.90897 11.1725 14.1542 11.1764C14.2989 11.1768 14.3276 11.138 14.3271 11.0156C14.3223 9.66171 14.3257 8.30781 14.3214 6.9539C14.3214 6.8479 14.3562 6.77464 14.4393 6.70225C14.7153 6.46051 14.9842 6.21274 15.2879 5.93825C15.2879 7.95231 15.2917 9.91853 15.2855 11.8843Z" fill="black"/>
<path d="M12.099 7.28361C12.0994 7.1608 12.0603 7.11556 11.9285 7.1371C11.8034 7.15736 11.7542 7.11685 11.7413 6.99577C11.7188 6.79152 11.6697 6.58942 11.6276 6.36621C11.4194 6.50152 11.2299 6.62045 11.047 6.7467C10.9643 6.80315 10.9123 6.81866 10.8273 6.73895C10.4973 6.42912 10.1592 6.1262 9.81779 5.82629C9.74282 5.75993 9.7347 5.7177 9.8006 5.64143C9.94816 5.47036 10.0838 5.2911 10.2332 5.10409C9.98445 5.06746 9.7624 5.02652 9.53795 5.00498C9.41189 4.99291 9.367 4.95844 9.36939 4.83822C9.37798 4.41938 9.37798 4.0001 9.36939 3.58083C9.367 3.46621 9.41714 3.43519 9.52888 3.42226C9.75762 3.39554 9.98493 3.35892 10.2342 3.32315C10.0795 3.1301 9.94243 2.94912 9.79344 2.77633C9.73231 2.70523 9.74282 2.66731 9.81063 2.60741C10.1554 2.30276 10.4959 1.99467 10.834 1.68398C10.8989 1.62409 10.9414 1.60771 11.0221 1.66545C11.1902 1.78481 11.3683 1.89297 11.5407 2.00716C11.6076 2.05198 11.6401 2.05155 11.6501 1.96536C11.663 1.85376 11.6826 1.74172 11.7117 1.63227C11.738 1.53317 11.6969 1.51593 11.5971 1.51765C11.3354 1.52325 11.0732 1.51981 10.8111 1.51938C10.4978 1.51895 10.4133 1.44181 10.4128 1.15311C10.4123 0.820015 10.4047 0.486493 10.4166 0.153834C10.4214 0.0206835 10.3708 0.000430906 10.239 0.000430906C8.04137 0.00387816 5.84424 0.00430906 3.64711 0C3.51531 0 3.47949 0.0258544 3.47949 0.148663C3.48379 3.40502 3.48379 6.66138 3.47949 9.91774C3.47949 10.0457 3.51769 10.0767 3.65713 10.0767C6.41441 10.0729 9.17121 10.0729 11.928 10.0763C12.0579 10.0767 12.0999 10.0526 12.099 9.92765C12.0928 9.04645 12.0928 8.16525 12.099 7.28361ZM5.1924 1.5155C5.25018 1.50602 5.31083 1.50774 5.37052 1.50774H8.76196C8.78584 1.50774 8.80972 1.50731 8.83312 1.50774C9.0609 1.51248 9.18601 1.60599 9.18315 1.76887C9.18028 1.9296 9.05183 2.02267 8.82357 2.02311C8.23477 2.0244 7.64549 2.02354 7.05622 2.02354C6.47315 2.02354 5.89008 2.02483 5.30701 2.02311C5.08018 2.02224 4.95411 1.92615 4.95984 1.76025C4.96462 1.62495 5.04437 1.54006 5.1924 1.5155ZM5.07015 2.91465C5.14656 2.85993 5.23681 2.86467 5.32564 2.86467H7.07532C7.65265 2.86467 8.22951 2.86424 8.80685 2.86467C9.05374 2.8651 9.18124 2.95128 9.18315 3.11675C9.18554 3.28308 9.0523 3.38003 8.81449 3.38003C7.64836 3.38089 6.48174 3.38003 5.31561 3.38132C5.16089 3.38132 5.0267 3.34771 4.97322 3.20293C4.93215 3.09262 4.96462 2.99092 5.07015 2.91465ZM5.0692 4.27071C5.13987 4.21944 5.22297 4.22073 5.30653 4.22116H7.00321C7.57434 4.22116 8.14595 4.2203 8.71707 4.22116C8.94152 4.22159 9.07332 4.31941 9.07045 4.47884C9.06806 4.63526 8.93101 4.73609 8.70943 4.73652C7.57864 4.73739 6.44784 4.73652 5.31704 4.73739C5.16232 4.73782 5.02765 4.70377 4.97369 4.55985C4.93263 4.44954 4.96366 4.34785 5.0692 4.27071ZM4.96557 5.77932C5.00043 5.62936 5.11886 5.57464 5.28075 5.57507C5.85808 5.57593 6.43542 5.5755 7.01276 5.5755C7.57816 5.5755 8.14404 5.57464 8.70943 5.5755C8.93722 5.57593 9.06806 5.669 9.07093 5.82758C9.07379 5.984 8.93483 6.09043 8.71755 6.09086C7.58102 6.09172 6.44402 6.09172 5.30701 6.09086C5.06156 6.09043 4.9226 5.96374 4.96557 5.77932ZM10.3861 8.79566C10.3287 8.806 10.2676 8.80299 10.2084 8.80299C8.5953 8.80299 6.98267 8.80342 5.36957 8.80256C5.29889 8.80256 5.22488 8.80256 5.1585 8.78489C5.01428 8.74568 4.94647 8.64958 4.96223 8.51471C4.97799 8.37898 5.06872 8.30055 5.21819 8.28978C5.33614 8.28159 5.456 8.28719 5.57491 8.28719H7.78875C8.62205 8.28719 9.45534 8.28676 10.2886 8.28762C10.4882 8.28762 10.6019 8.36863 10.6172 8.51471C10.6315 8.65346 10.5403 8.76808 10.3861 8.79566ZM10.3865 7.4396C10.3287 7.45037 10.2681 7.44693 10.2084 7.44693C8.59578 7.44736 6.98315 7.44736 5.37005 7.44649C5.29937 7.44649 5.22535 7.44649 5.15898 7.42883C5.01381 7.39048 4.94695 7.29395 4.96223 7.15951C4.97751 7.02377 5.06824 6.94492 5.21771 6.93458C5.33614 6.92639 5.45552 6.93156 5.57443 6.93156C6.3127 6.93113 7.05048 6.93156 7.78875 6.93156C8.62157 6.93156 9.45486 6.9307 10.2882 6.93199C10.4801 6.93199 10.5923 7.00697 10.6153 7.1427C10.6396 7.28749 10.5479 7.4103 10.3865 7.4396Z" fill="black"/>
<path d="M14.939 3.84185C14.6649 3.81772 14.4538 3.76343 14.3779 3.47515C14.3454 3.35105 14.3148 3.27004 14.4137 3.1649C14.5359 3.03433 14.7255 2.88524 14.7212 2.74864C14.7164 2.59869 14.4715 2.49743 14.3454 2.36384C14.2785 2.29231 14.2275 2.28326 14.1425 2.34618C14.0001 2.45175 13.8454 2.5431 13.6969 2.64135C13.6468 2.67453 13.6057 2.68271 13.5365 2.66419C13.2165 2.57714 12.9978 2.42805 13.0279 2.09022C13.0331 2.03291 13.0045 1.97387 13.0007 1.91527C12.9945 1.82693 12.9477 1.79979 12.8512 1.8041C12.6912 1.81099 12.5298 1.81185 12.3694 1.80367C12.2763 1.79893 12.2471 1.83211 12.2357 1.90838C12.2099 2.07815 12.1769 2.24707 12.1473 2.41685C12.1402 2.45864 12.1373 2.49398 12.0829 2.51983C11.6808 2.71072 11.6421 2.70986 11.2706 2.46597C11.2562 2.45649 11.2414 2.44744 11.2266 2.43796C10.9855 2.27982 10.9855 2.27982 10.7701 2.47329C10.4726 2.74003 10.464 2.74606 10.7219 3.04381C10.8699 3.21488 10.9435 3.35234 10.8093 3.57728C10.7185 3.72896 10.6469 3.80781 10.4564 3.816C10.2926 3.82289 10.0791 3.81815 9.98075 3.90477C9.86996 4.00258 9.95735 4.20037 9.94446 4.3542C9.94207 4.38049 9.94732 4.40806 9.9435 4.43435C9.933 4.51364 9.96547 4.54595 10.0586 4.55587C10.2472 4.57569 10.4335 4.61274 10.6216 4.63774C10.6856 4.64592 10.7276 4.66014 10.7515 4.72306C10.8021 4.85793 10.9239 4.99668 10.9053 5.12035C10.8866 5.24747 10.7357 5.35821 10.6426 5.47628C10.6187 5.50688 10.5987 5.54135 10.5686 5.56677C10.4654 5.65511 10.4936 5.72147 10.5925 5.79817C10.7271 5.90288 10.8389 6.09334 10.9812 6.11144C11.1373 6.13126 11.2777 5.94425 11.4305 5.85462C11.495 5.8167 11.5566 5.77533 11.6173 5.73698C11.6411 5.7443 11.6574 5.74991 11.6736 5.75508C12.1144 5.88952 12.1144 5.88952 12.196 6.29845C12.26 6.62077 12.26 6.62077 12.6234 6.62077C12.9835 6.62077 13.0031 6.62249 13.0308 6.29931C13.0527 6.03861 13.1411 5.87142 13.4457 5.79817C13.5799 5.76585 13.6635 5.75551 13.7748 5.8335C13.9276 5.9408 14.0904 6.13255 14.2509 6.10885C14.4099 6.08472 14.5316 5.88047 14.6787 5.7637C14.7575 5.70121 14.7437 5.65812 14.6864 5.59306C14.5904 5.48447 14.5111 5.36295 14.4113 5.25695C14.3201 5.16 14.3411 5.082 14.3721 4.96221C14.4452 4.67781 14.6448 4.61231 14.9247 4.5843C15.29 4.54768 15.2881 4.53389 15.2881 4.19606C15.2881 3.88193 15.2895 3.87245 14.939 3.84185ZM12.6034 5.17249C12.015 5.16603 11.538 4.72737 11.548 4.20166C11.558 3.66949 12.0365 3.25022 12.6291 3.25453C13.217 3.25884 13.6888 3.69319 13.6826 4.22493C13.6769 4.75408 13.1931 5.17852 12.6034 5.17249Z" fill="black"/>
<path d="M11.7584 1.00348C11.5364 1.00348 11.2967 1.00304 11.0569 1.00391C11.0035 1.00434 10.9829 0.983653 10.9834 0.936684C10.9844 0.724248 10.9839 0.512242 10.9839 0.299805C11.2475 0.539389 11.5011 0.769493 11.7584 1.00348Z" fill="#030303"/>
</svg>
