<svg width="15" height="16" viewBox="0 0 15 16" fill="none" xmlns="http://www.w3.org/2000/svg">
<g clip-path="url(#clip0_524_626)">
<path d="M2.58357 12.4804C2.13861 12.5926 1.6981 12.7222 1.25492 12.8412C1.17564 12.8625 1.09101 12.8643 1.00906 12.8754C0.299082 12.8661 -0.283954 12.3209 -0.377935 11.5717C-0.463453 10.8912 -0.0300727 10.2444 0.634473 10.0689C1.04603 9.96026 1.46159 9.86495 1.87181 9.75226C1.97514 9.72375 1.99296 9.76028 2.01479 9.84268C2.23348 10.6658 2.4544 11.4885 2.6771 12.3102C2.70294 12.4051 2.69937 12.451 2.58357 12.4804Z" fill="#FEFEFE"/>
<path d="M3.92391 15.06C4.11856 15.4217 3.99117 15.8408 3.64865 16.0207C3.30569 16.2007 2.9075 16.0777 2.71018 15.7214C2.24384 14.8787 1.78151 14.0338 1.3125 13.1808C1.74989 13.0597 2.16679 12.9474 2.58146 12.8258C2.66253 12.8018 2.69771 12.8156 2.73691 12.8869C3.13154 13.612 3.53285 14.3331 3.92391 15.06Z" fill="#FEFEFE"/>
<path d="M4.19593 2.10287C2.89668 2.10243 1.59743 2.10243 0.298179 2.10287C-0.135201 2.10287 -0.384629 2.35052 -0.385074 2.78256C-0.385965 3.58207 -0.385965 4.38157 -0.385074 5.18107C-0.385074 5.62826 -0.143219 5.8719 0.301742 5.87279C0.945799 5.87368 1.58986 5.87279 2.23391 5.87279C2.8891 5.87279 3.5443 5.87368 4.19949 5.87279C4.63554 5.8719 4.88141 5.62737 4.88185 5.19444C4.88274 4.38914 4.88274 3.58385 4.88185 2.779C4.88096 2.34829 4.63153 2.10287 4.19593 2.10287ZM3.03342 4.18737C2.72074 4.37533 2.4045 4.55706 2.08604 4.73433C1.89719 4.83945 1.74441 4.74547 1.73951 4.52677C1.73506 4.34416 1.73862 4.16154 1.73862 3.97848C1.73862 3.80121 1.73506 3.62393 1.73951 3.44666C1.7453 3.22841 1.89852 3.13711 2.08826 3.24311C2.40628 3.42127 2.72208 3.60389 3.03475 3.79141C3.20891 3.89563 3.20846 4.08226 3.03342 4.18737Z" fill="#FEFEFE"/>
<path d="M6.29422 6.91992C6.81446 8.86234 7.32712 10.7758 7.84468 12.7071C7.61841 12.6113 7.4113 12.5133 7.1975 12.4349C6.23276 12.0826 5.23683 12.0381 4.22665 12.1494C3.86275 12.1895 3.50242 12.2559 3.14609 12.3383C3.05567 12.3592 3.02583 12.3423 3.00134 12.2497C2.78175 11.4145 2.55816 10.5798 2.32877 9.74691C2.29848 9.63601 2.34347 9.61908 2.42988 9.59191C3.28105 9.32734 4.08857 8.97146 4.81815 8.45167C5.3749 8.05482 5.85639 7.58402 6.22875 7.00678C6.243 6.98495 6.26037 6.96491 6.29422 6.91992Z" fill="#FEFEFE"/>
<path d="M9.40154 13.0862C9.51244 13.5 9.2884 13.8389 8.90491 13.838C8.64346 13.8376 8.45371 13.6812 8.3771 13.3966C8.01053 12.0337 7.6453 10.6698 7.27962 9.30646C6.98744 8.21521 6.6948 7.12441 6.40485 6.03317C6.32423 5.72896 6.48146 5.44791 6.76785 5.36595C7.07251 5.2791 7.35445 5.45281 7.44487 5.78686C7.59987 6.35876 7.75309 6.93066 7.90631 7.50301C8.40472 9.36391 8.90313 11.2248 9.40154 13.0862Z" fill="#FEFEFE"/>
<path d="M9.54818 9.51403C9.59628 9.71669 9.53526 9.85254 9.36022 9.9679C8.97895 10.22 8.97806 10.2204 8.86003 9.78439C8.76026 9.41604 8.66271 9.0468 8.56472 8.678C8.55359 8.63569 8.54735 8.59249 8.53711 8.54126C8.70235 8.54126 8.85736 8.5328 9.01147 8.54349C9.18829 8.55552 9.31434 8.65262 9.36467 8.82454C9.43193 9.05259 9.49295 9.28287 9.54818 9.51403Z" fill="#FEFEFE"/>
<path d="M10.4718 6.24607C10.2487 6.63357 10.0242 7.02019 9.80191 7.40813C9.74045 7.51637 9.66072 7.59476 9.53645 7.52171C9.4202 7.45357 9.44781 7.35246 9.50794 7.24912C9.73911 6.8536 9.96627 6.45586 10.1948 6.05855C10.2424 5.97571 10.3034 5.9138 10.4077 5.94542C10.4838 5.96858 10.5253 6.02515 10.5221 6.10532C10.5239 6.161 10.4967 6.20287 10.4718 6.24607Z" fill="#FEFEFE"/>
<path d="M11.6312 11.4963C11.2384 11.2683 10.846 11.0398 10.4522 10.814C10.3658 10.7641 10.3146 10.7026 10.3427 10.5984C10.3627 10.524 10.4193 10.4946 10.4901 10.4844C10.5418 10.4862 10.5859 10.508 10.6295 10.5334C11.0179 10.7579 11.4067 10.981 11.7951 11.205C11.8967 11.2638 11.9951 11.332 11.9181 11.4661C11.8428 11.5966 11.735 11.5565 11.6312 11.4963Z" fill="#FEFEFE"/>
<path d="M10.5761 8.86827C10.5587 8.77162 10.6006 8.70213 10.6928 8.67541C10.8679 8.62419 11.0456 8.58054 11.222 8.53332C11.5003 8.45805 11.7778 8.381 12.0562 8.3075C12.1635 8.27944 12.2767 8.26697 12.3159 8.40505C12.3568 8.5498 12.258 8.60147 12.1395 8.63265C11.7057 8.74712 11.2723 8.86248 10.8385 8.97784C10.8068 8.9863 10.7748 8.99521 10.7494 9.00234C10.6554 8.99566 10.5921 8.95869 10.5761 8.86827Z" fill="#FEFEFE"/>
<path d="M14.4814 14.0479C14.3206 14.3936 14.0819 14.6862 13.8257 14.9632C13.5019 15.3133 13.1674 15.6536 12.8352 15.9961C12.7073 16.128 12.6053 16.1409 12.4926 16.0242C12.0027 15.5187 11.4847 15.0381 11.0682 14.4657C10.9475 14.2996 10.8397 14.1259 10.7676 13.9321C10.6001 13.4827 10.8308 12.9055 11.274 12.6658C11.7025 12.4338 12.2134 12.5531 12.5176 12.9571C12.563 13.0177 12.6018 13.0845 12.653 13.1629C13.0209 12.5126 13.7055 12.3572 14.2097 12.7945C14.5691 13.1063 14.6814 13.6163 14.4814 14.0479Z" fill="#FEFEFE"/>
<path d="M15.5838 2.15903C15.4729 1.53234 15.0911 1.09139 14.5838 0.746646C14.0155 0.360925 13.3759 0.169846 12.6966 0.11996C11.6744 0.0446865 10.7155 0.236211 9.8848 0.869578C8.84299 1.66374 8.71873 2.90063 9.6327 3.80302C9.7249 3.89388 9.74004 3.98341 9.68615 4.101C9.55252 4.39318 9.42558 4.68804 9.29953 4.98335C9.27326 5.04437 9.20199 5.11341 9.27771 5.17799C9.36189 5.25059 9.42024 5.16017 9.47859 5.12009C9.76677 4.92277 10.0545 4.72412 10.336 4.51701C10.4465 4.43594 10.5453 4.41813 10.6727 4.4738C11.1943 4.70051 11.7461 4.78158 12.3314 4.7945C12.6218 4.78737 12.9318 4.7651 13.2365 4.69873C13.962 4.54106 14.6181 4.24798 15.1179 3.67831C15.4982 3.24448 15.6875 2.74385 15.5838 2.15903ZM12.9795 3.09126C12.225 3.09304 11.47 3.09527 10.715 3.09839C10.5943 3.09883 10.4981 3.06142 10.5012 2.92557C10.5048 2.7875 10.6072 2.76434 10.7253 2.76523C11.103 2.7679 11.4802 2.76612 11.8575 2.76612V2.75944C12.2294 2.75944 12.6013 2.76211 12.9732 2.75854C13.0935 2.75721 13.1951 2.78616 13.1973 2.91978C13.2 3.05251 13.0993 3.09082 12.9795 3.09126ZM14.1932 2.13319C13.0383 2.13275 11.8833 2.13275 10.7284 2.13364C10.6028 2.13364 10.4963 2.10291 10.5003 1.95726C10.5039 1.82141 10.6068 1.7978 10.7257 1.79825C11.303 1.80137 11.8807 1.79959 12.4579 1.79959C13.0356 1.79959 13.6133 1.80092 14.1905 1.79869C14.3144 1.79825 14.4221 1.81829 14.4172 1.97107C14.4132 2.11092 14.309 2.13319 14.1932 2.13319Z" fill="#FEFEFE"/>
<path d="M15.5838 2.15903C15.4729 1.53234 15.0911 1.09139 14.5838 0.746646C14.0155 0.360925 13.3759 0.169846 12.6966 0.11996C11.6744 0.0446865 10.7155 0.236211 9.8848 0.869578C8.84299 1.66374 8.71873 2.90063 9.6327 3.80302C9.7249 3.89388 9.74004 3.98341 9.68615 4.101C9.55252 4.39318 9.42558 4.68804 9.29953 4.98335C9.27326 5.04437 9.20199 5.11341 9.27771 5.17799C9.36189 5.25059 9.42024 5.16017 9.47859 5.12009C9.76677 4.92277 10.0545 4.72412 10.336 4.51701C10.4465 4.43594 10.5453 4.41813 10.6727 4.4738C11.1943 4.70051 11.7461 4.78158 12.3314 4.7945C12.6218 4.78737 12.9318 4.7651 13.2365 4.69873C13.962 4.54106 14.6181 4.24798 15.1179 3.67831C15.4982 3.24448 15.6875 2.74385 15.5838 2.15903ZM12.9795 3.09126C12.225 3.09304 11.47 3.09527 10.715 3.09839C10.5943 3.09883 10.4981 3.06142 10.5012 2.92557C10.5048 2.7875 10.6072 2.76434 10.7253 2.76523C11.103 2.7679 11.4802 2.76612 11.8575 2.76612V2.75944C12.2294 2.75944 12.6013 2.76211 12.9732 2.75854C13.0935 2.75721 13.1951 2.78616 13.1973 2.91978C13.2 3.05251 13.0993 3.09082 12.9795 3.09126ZM14.1932 2.13319C13.0383 2.13275 11.8833 2.13275 10.7284 2.13364C10.6028 2.13364 10.4963 2.10291 10.5003 1.95726C10.5039 1.82141 10.6068 1.7978 10.7257 1.79825C11.303 1.80137 11.8807 1.79959 12.4579 1.79959C13.0356 1.79959 13.6133 1.80092 14.1905 1.79869C14.3144 1.79825 14.4221 1.81829 14.4172 1.97107C14.4132 2.11092 14.309 2.13319 14.1932 2.13319Z" fill="black"/>
<path d="M4.19593 2.10287C2.89668 2.10243 1.59743 2.10243 0.298179 2.10287C-0.135201 2.10287 -0.384629 2.35052 -0.385074 2.78256C-0.385965 3.58207 -0.385965 4.38157 -0.385074 5.18107C-0.385074 5.62826 -0.143219 5.8719 0.301742 5.87279C0.945799 5.87368 1.58986 5.87279 2.23391 5.87279C2.8891 5.87279 3.5443 5.87368 4.19949 5.87279C4.63554 5.8719 4.88141 5.62737 4.88185 5.19444C4.88274 4.38914 4.88274 3.58385 4.88185 2.779C4.88096 2.34829 4.63153 2.10287 4.19593 2.10287ZM3.03342 4.18737C2.72074 4.37533 2.4045 4.55706 2.08604 4.73433C1.89719 4.83945 1.74441 4.74547 1.73951 4.52677C1.73506 4.34416 1.73862 4.16154 1.73862 3.97848C1.73862 3.80121 1.73506 3.62393 1.73951 3.44666C1.7453 3.22841 1.89852 3.13711 2.08826 3.24311C2.40628 3.42127 2.72208 3.60389 3.03475 3.79141C3.20891 3.89563 3.20846 4.08226 3.03342 4.18737Z" fill="black"/>
<path d="M7.84468 12.7071C7.61841 12.6113 7.4113 12.5133 7.1975 12.4349C6.23276 12.0826 5.23683 12.0381 4.22665 12.1494C3.86275 12.1895 3.50242 12.2559 3.14609 12.3383C3.05567 12.3592 3.02583 12.3423 3.00134 12.2497C2.78175 11.4145 2.55816 10.5798 2.32877 9.74691C2.29848 9.63601 2.34347 9.61908 2.42988 9.59191C3.28105 9.32734 4.08857 8.97146 4.81815 8.45167C5.3749 8.05482 5.85639 7.58402 6.22875 7.00678C6.243 6.98495 6.26037 6.96491 6.29422 6.91992C6.81446 8.86234 7.32712 10.7758 7.84468 12.7071Z" fill="black"/>
<path d="M14.4814 14.0479C14.3206 14.3936 14.0819 14.6862 13.8257 14.9632C13.5019 15.3133 13.1674 15.6536 12.8352 15.9961C12.7073 16.128 12.6053 16.1409 12.4926 16.0242C12.0027 15.5187 11.4847 15.0381 11.0682 14.4657C10.9475 14.2996 10.8397 14.1259 10.7676 13.9321C10.6001 13.4827 10.8308 12.9055 11.274 12.6658C11.7025 12.4338 12.2134 12.5531 12.5176 12.9571C12.563 13.0177 12.6018 13.0845 12.653 13.1629C13.0209 12.5126 13.7055 12.3572 14.2097 12.7945C14.5691 13.1063 14.6814 13.6163 14.4814 14.0479Z" fill="black"/>
<path d="M8.90491 13.838C8.64346 13.8376 8.45371 13.6812 8.3771 13.3966C8.01053 12.0337 7.6453 10.6698 7.27962 9.30646C6.98744 8.21521 6.6948 7.12441 6.40485 6.03317C6.32423 5.72896 6.48146 5.44791 6.76785 5.36595C7.07251 5.2791 7.35445 5.45281 7.44487 5.78686C7.59987 6.35876 7.75309 6.93066 7.90631 7.50301C8.40472 9.36391 8.90313 11.2248 9.40154 13.0862C9.51244 13.5 9.2884 13.8389 8.90491 13.838Z" fill="black"/>
<path d="M2.58357 12.4804C2.13861 12.5926 1.6981 12.7222 1.25492 12.8412C1.17564 12.8625 1.09101 12.8643 1.00906 12.8754C0.299082 12.8661 -0.283954 12.3209 -0.377935 11.5717C-0.463453 10.8912 -0.0300727 10.2444 0.634473 10.0689C1.04603 9.96026 1.46159 9.86495 1.87181 9.75226C1.97514 9.72375 1.99296 9.76028 2.01479 9.84268C2.23348 10.6658 2.4544 11.4885 2.6771 12.3102C2.70294 12.4051 2.69937 12.451 2.58357 12.4804Z" fill="black"/>
<path d="M3.64865 16.0207C3.30569 16.2007 2.9075 16.0777 2.71018 15.7214C2.24384 14.8787 1.78151 14.0338 1.3125 13.1808C1.74989 13.0597 2.16679 12.9474 2.58146 12.8258C2.66253 12.8018 2.69771 12.8156 2.73691 12.8869C3.13154 13.612 3.53285 14.3331 3.92391 15.06C4.11856 15.4217 3.99117 15.8408 3.64865 16.0207Z" fill="black"/>
<path d="M9.36022 9.9679C8.97895 10.22 8.97806 10.2204 8.86003 9.78439C8.76026 9.41604 8.66271 9.0468 8.56472 8.678C8.55359 8.63569 8.54735 8.59249 8.53711 8.54126C8.70235 8.54126 8.85736 8.5328 9.01147 8.54349C9.18829 8.55552 9.31434 8.65262 9.36467 8.82454C9.43193 9.05259 9.49295 9.28287 9.54818 9.51403C9.59628 9.71669 9.53526 9.85254 9.36022 9.9679Z" fill="black"/>
<path d="M10.5221 6.10532C10.5239 6.161 10.4967 6.20287 10.4718 6.24607C10.2487 6.63357 10.0242 7.02019 9.80191 7.40813C9.74045 7.51637 9.66072 7.59476 9.53645 7.52171C9.4202 7.45357 9.44781 7.35246 9.50794 7.24912C9.73911 6.8536 9.96627 6.45586 10.1948 6.05855C10.2424 5.97571 10.3034 5.9138 10.4077 5.94542C10.4838 5.96858 10.5253 6.02515 10.5221 6.10532Z" fill="#010101"/>
<path d="M11.9181 11.4661C11.8428 11.5966 11.735 11.5565 11.6312 11.4963C11.2384 11.2683 10.846 11.0398 10.4522 10.814C10.3658 10.7641 10.3146 10.7026 10.3427 10.5984C10.3627 10.524 10.4193 10.4946 10.4901 10.4844C10.5418 10.4862 10.5859 10.508 10.6295 10.5334C11.0179 10.7579 11.4067 10.981 11.7951 11.205C11.8967 11.2638 11.9951 11.332 11.9181 11.4661Z" fill="#010101"/>
<path d="M12.1395 8.63265C11.7057 8.74712 11.2723 8.86248 10.8385 8.97784C10.8068 8.9863 10.7748 8.99521 10.7494 9.00234C10.6554 8.99566 10.5921 8.95869 10.5761 8.86827C10.5587 8.77162 10.6006 8.70213 10.6928 8.67541C10.8679 8.62419 11.0456 8.58054 11.222 8.53332C11.5003 8.45805 11.7778 8.381 12.0562 8.3075C12.1635 8.27944 12.2767 8.26697 12.3159 8.40505C12.3568 8.5498 12.258 8.60147 12.1395 8.63265Z" fill="#010101"/>
</g>
<defs>
<clipPath id="clip0_524_626">
<rect width="15" height="16" fill="white"/>
</clipPath>
</defs>
</svg>
