<svg width="17" height="17" viewBox="0 0 17 17" fill="none" xmlns="http://www.w3.org/2000/svg">
<path d="M6.54918 4.00818C5.16106 3.98458 4.01151 5.11031 3.99051 6.5148C3.96996 7.88946 5.08823 9.03746 6.47189 9.0615C7.8828 9.086 9.0377 7.98431 9.06049 6.59184C9.08327 5.16998 7.97796 4.03222 6.54918 4.00818ZM7.98198 6.10646C7.48204 6.6052 6.98344 7.10572 6.48082 7.60179C6.28514 7.79505 6.04031 7.80663 5.82317 7.61025C5.54707 7.36044 5.28481 7.09459 5.02971 6.82384C4.872 6.65596 4.89299 6.39635 5.0507 6.23426C5.21154 6.0695 5.45414 6.05124 5.64223 6.1924C5.69093 6.22892 5.73114 6.27656 5.77716 6.3162C5.90538 6.42708 6.00456 6.64928 6.15066 6.63637C6.27933 6.62524 6.39236 6.42797 6.51076 6.31085C6.79535 6.02897 7.07682 5.74398 7.3632 5.46388C7.50795 5.32227 7.68219 5.28398 7.86939 5.36903C8.0347 5.44429 8.12182 5.58011 8.12897 5.82502C8.13299 5.90117 8.07625 6.01205 7.98198 6.10646Z" fill="#FEFEFE"/>
<path d="M13.0046 5.81413C13.0055 5.72819 12.9792 5.68811 12.8987 5.65872C12.6124 5.55407 12.33 5.43785 12.0427 5.33454C11.9587 5.30425 11.9194 5.25883 11.8989 5.17512C11.7769 4.68261 11.5808 4.21949 11.3212 3.78443C11.272 3.70115 11.2765 3.6397 11.3145 3.55821C11.4405 3.28702 11.5562 3.01138 11.6822 2.74019C11.7175 2.66537 11.7175 2.61773 11.6536 2.55538C11.2877 2.1978 10.9253 1.83666 10.5661 1.47196C10.5027 1.40783 10.4562 1.4105 10.3807 1.44568C10.1091 1.57259 9.83254 1.68793 9.5609 1.8135C9.4778 1.85225 9.41436 1.85002 9.3326 1.80193C8.89566 1.5441 8.43101 1.34861 7.93688 1.22704C7.85155 1.20611 7.80866 1.16559 7.77828 1.08276C7.67418 0.796427 7.55713 0.514994 7.45258 0.229553C7.42265 0.148062 7.38199 0.12357 7.29666 0.124461C6.79002 0.128914 6.28293 0.129805 5.77629 0.12357C5.67845 0.122235 5.64271 0.15875 5.61233 0.241576C5.51359 0.511877 5.40413 0.77817 5.30629 1.04892C5.2692 1.15178 5.21649 1.20522 5.103 1.23416C4.62764 1.35662 4.17506 1.53964 3.75465 1.79436C3.66306 1.85002 3.59247 1.85091 3.49686 1.80504C3.23148 1.67902 2.9585 1.56859 2.69222 1.44524C2.60957 1.40694 2.55864 1.41451 2.49296 1.48131C2.13867 1.84245 1.77991 2.19958 1.41847 2.55405C1.35637 2.61461 1.35012 2.66048 1.38675 2.7384C1.51632 3.0136 1.63426 3.29459 1.76293 3.57068C1.79957 3.64995 1.79331 3.70783 1.74819 3.78309C1.48772 4.2186 1.29427 4.68261 1.16962 5.17423C1.14818 5.25839 1.11288 5.30381 1.0271 5.33409C0.739825 5.43696 0.457912 5.55363 0.171531 5.65916C0.0937922 5.68766 0.0616245 5.72373 0.0625181 5.8119C0.0674326 6.32267 0.0674326 6.83388 0.0629649 7.34465C0.0620713 7.42569 0.0920051 7.45998 0.162595 7.48625C0.448976 7.59223 0.73223 7.70623 1.01906 7.81043C1.10663 7.8425 1.14818 7.89059 1.17185 7.98277C1.29472 8.4686 1.48638 8.92771 1.74328 9.35876C1.79063 9.43758 1.80091 9.49992 1.76025 9.58587C1.63248 9.85617 1.5181 10.1323 1.39122 10.403C1.35324 10.484 1.35503 10.5348 1.42339 10.6016C1.78572 10.9552 2.14358 11.3132 2.49922 11.6735C2.55908 11.734 2.6051 11.7447 2.68373 11.7082C2.95537 11.5822 3.23326 11.47 3.50401 11.3417C3.59425 11.2985 3.65904 11.299 3.74616 11.3511C4.17729 11.6084 4.63836 11.799 5.12579 11.9206C5.21917 11.9438 5.26429 11.9896 5.29556 12.0765C5.39251 12.3414 5.50421 12.6015 5.59624 12.8682C5.63645 12.9844 5.68738 13.0325 5.81739 13.0254C6.05642 13.0129 6.29633 13.0218 6.5358 13.0218C6.78644 13.0218 7.03708 13.0174 7.28772 13.0245C7.37976 13.0272 7.42354 13.0014 7.45526 12.9123C7.55177 12.6411 7.66435 12.3757 7.7613 12.105C7.80062 11.9954 7.85512 11.9286 7.97754 11.9113C8.02713 11.9041 8.10353 11.9139 8.12408 11.8293C8.18752 11.5657 8.38634 11.4477 8.62536 11.3698C8.69193 11.3479 8.79245 11.3439 8.813 11.2771C8.89476 11.014 9.12306 10.7833 8.92425 10.46C8.76297 10.1982 8.83087 9.96883 9.04622 9.75197C9.25352 9.54267 9.46216 9.33427 9.67259 9.12765C9.86337 8.93973 10.0984 8.88317 10.3298 9.00742C10.5541 9.12809 10.7381 9.10939 10.9647 9.01365C11.1465 8.93617 11.2546 8.84354 11.3055 8.65651C11.3551 8.47349 11.461 8.30472 11.654 8.26331C11.8345 8.22501 11.8819 8.11859 11.9011 7.96941C11.9127 7.88035 11.9668 7.84339 12.0481 7.814C12.3295 7.71158 12.6065 7.59669 12.888 7.49427C12.9725 7.4631 13.0064 7.42569 13.0051 7.32995C12.9993 6.82497 13.0002 6.31955 13.0046 5.81413ZM6.53893 10.4814C4.38281 10.4854 2.62163 8.73355 2.61582 6.57916C2.61001 4.43146 4.36985 2.67294 6.53 2.6676C8.68433 2.66226 10.4495 4.41765 10.454 6.57026C10.4585 8.71797 8.69774 10.4769 6.53893 10.4814Z" fill="#FEFEFE"/>
<path d="M16.04 12.4463C16.0431 12.2802 16.0918 12.0798 16.0172 11.9573C15.9381 11.8264 15.7201 11.8099 15.5588 11.7547C15.4569 11.7195 15.4091 11.659 15.385 11.5588C15.3332 11.3424 15.2523 11.1335 15.1348 10.9461C15.0566 10.8223 15.0562 10.7216 15.1228 10.5974C15.1925 10.4665 15.2983 10.3186 15.2845 10.189C15.2706 10.0563 15.0964 9.9695 14.9923 9.86307C14.8681 9.73571 14.7564 9.55313 14.6054 9.5086C14.4517 9.46318 14.2855 9.62705 14.1206 9.68851C14.1153 9.69029 14.1095 9.69118 14.105 9.6943C14.0358 9.74061 13.9728 9.72769 13.904 9.68628C13.6989 9.56249 13.4795 9.46452 13.2477 9.40797C13.1185 9.37679 13.0506 9.31401 13.01 9.19244C12.9613 9.04638 12.9322 8.86157 12.8272 8.77608C12.7187 8.68791 12.5275 8.75025 12.3724 8.75069C12.1951 8.75114 11.9779 8.68078 11.8519 8.7783C11.7349 8.86915 11.709 9.08067 11.6527 9.24276C11.6214 9.33226 11.5682 9.37189 11.478 9.39505C11.2568 9.45116 11.0428 9.53176 10.848 9.65066C10.7328 9.72146 10.6345 9.73615 10.5112 9.66624C10.3816 9.59321 10.2386 9.54423 10.1113 9.48901C10.0537 9.48634 10.0331 9.52374 10.0063 9.55002C9.8638 9.69073 9.72217 9.8319 9.58055 9.9735C9.3728 10.1801 9.3585 10.1881 9.49343 10.438C9.61406 10.6619 9.64756 10.8632 9.48226 11.0747C9.44607 11.1215 9.41479 11.1821 9.40675 11.24C9.35359 11.6234 9.11858 11.8211 8.75402 11.8914C8.65618 11.9106 8.64188 11.9743 8.64367 12.062C8.64858 12.2949 8.65349 12.5282 8.64233 12.7611C8.63607 12.8925 8.66869 12.9664 8.80584 12.9953C9.11948 13.0621 9.3451 13.2242 9.38531 13.5698C9.38799 13.5961 9.39871 13.625 9.4148 13.6464C9.6431 13.9581 9.63773 14.2698 9.41971 14.5838C9.36922 14.6559 9.38844 14.7098 9.45232 14.7694C9.59842 14.9057 9.73647 15.0509 9.87854 15.192C10.0827 15.3951 10.0881 15.4049 10.3445 15.2758C10.5581 15.168 10.7556 15.1003 10.9646 15.2789C11.0129 15.3203 11.0826 15.3488 11.146 15.3581C11.5294 15.4138 11.7268 15.6494 11.7983 16.0114C11.8166 16.1067 11.8761 16.1267 11.9668 16.1232C12.1446 16.116 12.3233 16.1209 12.5015 16.1209C12.8438 16.1209 12.8581 16.1254 12.9595 15.8057C13.0261 15.5959 13.1252 15.4583 13.3531 15.4258C13.4335 15.4142 13.522 15.3871 13.5854 15.339C13.8932 15.1043 14.193 15.1497 14.4942 15.3466C14.5732 15.3982 14.63 15.3764 14.6934 15.3092C14.8618 15.1319 15.0334 14.9565 15.2139 14.7922C15.301 14.7124 15.3059 14.6474 15.2514 14.5504C15.1947 14.4493 15.1612 14.3357 15.1058 14.2337C15.0531 14.1362 15.0557 14.0552 15.1147 13.9585C15.2358 13.7595 15.3287 13.5449 15.381 13.3173C15.4078 13.1997 15.4712 13.1436 15.5825 13.1067C15.7344 13.0568 15.9256 13.0243 16.0141 12.9152C16.1048 12.803 16.0373 12.6057 16.04 12.4463ZM12.3465 14.1905C11.3717 14.1923 10.5844 13.4122 10.5795 12.4392C10.5751 11.4688 11.3609 10.682 12.3376 10.6789C13.3129 10.6762 14.1023 11.4582 14.1041 12.4298C14.1059 13.4006 13.3191 14.1888 12.3465 14.1905Z" fill="#FEFEFE"/>
<path d="M6.54918 4.00818C5.16106 3.98458 4.01151 5.11031 3.99051 6.5148C3.96996 7.88946 5.08823 9.03746 6.47189 9.0615C7.8828 9.086 9.0377 7.98431 9.06049 6.59184C9.08327 5.16998 7.97796 4.03222 6.54918 4.00818ZM7.98198 6.10646C7.48204 6.6052 6.98344 7.10572 6.48082 7.60179C6.28514 7.79505 6.04031 7.80663 5.82317 7.61025C5.54707 7.36044 5.28481 7.09459 5.02971 6.82384C4.872 6.65596 4.89299 6.39635 5.0507 6.23426C5.21154 6.0695 5.45414 6.05124 5.64223 6.1924C5.69093 6.22892 5.73114 6.27656 5.77716 6.3162C5.90538 6.42708 6.00456 6.64928 6.15066 6.63637C6.27933 6.62524 6.39236 6.42797 6.51076 6.31085C6.79535 6.02897 7.07682 5.74398 7.3632 5.46388C7.50795 5.32227 7.68219 5.28398 7.86939 5.36903C8.0347 5.44429 8.12182 5.58011 8.12897 5.82502C8.13299 5.90117 8.07625 6.01205 7.98198 6.10646Z" fill="black"/>
<path d="M13.0046 5.81413C13.0055 5.72819 12.9792 5.68811 12.8987 5.65872C12.6124 5.55407 12.33 5.43785 12.0427 5.33454C11.9587 5.30425 11.9194 5.25883 11.8989 5.17512C11.7769 4.68261 11.5808 4.21949 11.3212 3.78443C11.272 3.70115 11.2765 3.6397 11.3145 3.55821C11.4405 3.28702 11.5562 3.01138 11.6822 2.74019C11.7175 2.66537 11.7175 2.61773 11.6536 2.55538C11.2877 2.1978 10.9253 1.83666 10.5661 1.47196C10.5027 1.40783 10.4562 1.4105 10.3807 1.44568C10.1091 1.57259 9.83254 1.68793 9.5609 1.8135C9.4778 1.85225 9.41436 1.85002 9.3326 1.80193C8.89566 1.5441 8.43101 1.34861 7.93688 1.22704C7.85155 1.20611 7.80866 1.16559 7.77828 1.08276C7.67418 0.796427 7.55713 0.514994 7.45258 0.229553C7.42265 0.148062 7.38199 0.12357 7.29666 0.124461C6.79002 0.128914 6.28293 0.129805 5.77629 0.12357C5.67845 0.122235 5.64271 0.15875 5.61233 0.241576C5.51359 0.511877 5.40413 0.77817 5.30629 1.04892C5.2692 1.15178 5.21649 1.20522 5.103 1.23416C4.62764 1.35662 4.17506 1.53964 3.75465 1.79436C3.66306 1.85002 3.59247 1.85091 3.49686 1.80504C3.23148 1.67902 2.9585 1.56859 2.69222 1.44524C2.60957 1.40694 2.55864 1.41451 2.49296 1.48131C2.13867 1.84245 1.77991 2.19958 1.41847 2.55405C1.35637 2.61461 1.35012 2.66048 1.38675 2.7384C1.51632 3.0136 1.63426 3.29459 1.76293 3.57068C1.79957 3.64995 1.79331 3.70783 1.74819 3.78309C1.48772 4.2186 1.29427 4.68261 1.16962 5.17423C1.14818 5.25839 1.11288 5.30381 1.0271 5.33409C0.739825 5.43696 0.457912 5.55363 0.171531 5.65916C0.0937922 5.68766 0.0616245 5.72373 0.0625181 5.8119C0.0674326 6.32267 0.0674326 6.83388 0.0629649 7.34465C0.0620713 7.42569 0.0920051 7.45998 0.162595 7.48625C0.448976 7.59223 0.73223 7.70623 1.01906 7.81043C1.10663 7.8425 1.14818 7.89059 1.17185 7.98277C1.29472 8.4686 1.48638 8.92771 1.74328 9.35876C1.79063 9.43758 1.80091 9.49992 1.76025 9.58587C1.63248 9.85617 1.5181 10.1323 1.39122 10.403C1.35324 10.484 1.35503 10.5348 1.42339 10.6016C1.78572 10.9552 2.14358 11.3132 2.49922 11.6735C2.55908 11.734 2.6051 11.7447 2.68373 11.7082C2.95537 11.5822 3.23326 11.47 3.50401 11.3417C3.59425 11.2985 3.65904 11.299 3.74616 11.3511C4.17729 11.6084 4.63836 11.799 5.12579 11.9206C5.21917 11.9438 5.26429 11.9896 5.29556 12.0765C5.39251 12.3414 5.50421 12.6015 5.59624 12.8682C5.63645 12.9844 5.68738 13.0325 5.81739 13.0254C6.05642 13.0129 6.29633 13.0218 6.5358 13.0218C6.78644 13.0218 7.03708 13.0174 7.28772 13.0245C7.37976 13.0272 7.42354 13.0014 7.45526 12.9123C7.55177 12.6411 7.66435 12.3757 7.7613 12.105C7.80062 11.9954 7.85512 11.9286 7.97754 11.9113C8.02713 11.9041 8.10353 11.9139 8.12408 11.8293C8.18752 11.5657 8.38634 11.4477 8.62536 11.3698C8.69193 11.3479 8.79245 11.3439 8.813 11.2771C8.89476 11.014 9.12306 10.7833 8.92425 10.46C8.76297 10.1982 8.83087 9.96883 9.04622 9.75197C9.25352 9.54267 9.46216 9.33427 9.67259 9.12765C9.86337 8.93973 10.0984 8.88317 10.3298 9.00742C10.5541 9.12809 10.7381 9.10939 10.9647 9.01365C11.1465 8.93617 11.2546 8.84354 11.3055 8.65651C11.3551 8.47349 11.461 8.30472 11.654 8.26331C11.8345 8.22501 11.8819 8.11859 11.9011 7.96941C11.9127 7.88035 11.9668 7.84339 12.0481 7.814C12.3295 7.71158 12.6065 7.59669 12.888 7.49427C12.9725 7.4631 13.0064 7.42569 13.0051 7.32995C12.9993 6.82497 13.0002 6.31955 13.0046 5.81413ZM6.53893 10.4814C4.38281 10.4854 2.62163 8.73355 2.61582 6.57916C2.61001 4.43146 4.36985 2.67294 6.53 2.6676C8.68433 2.66226 10.4495 4.41765 10.454 6.57026C10.4585 8.71797 8.69774 10.4769 6.53893 10.4814Z" fill="black"/>
<path d="M16.04 12.4463C16.0431 12.2802 16.0918 12.0798 16.0172 11.9573C15.9381 11.8264 15.7201 11.8099 15.5588 11.7547C15.4569 11.7195 15.4091 11.659 15.385 11.5588C15.3332 11.3424 15.2523 11.1335 15.1348 10.9461C15.0566 10.8223 15.0562 10.7216 15.1228 10.5974C15.1925 10.4665 15.2983 10.3186 15.2845 10.189C15.2706 10.0563 15.0964 9.9695 14.9923 9.86307C14.8681 9.73571 14.7564 9.55313 14.6054 9.5086C14.4517 9.46318 14.2855 9.62705 14.1206 9.68851C14.1153 9.69029 14.1095 9.69118 14.105 9.6943C14.0358 9.74061 13.9728 9.72769 13.904 9.68628C13.6989 9.56249 13.4795 9.46452 13.2477 9.40797C13.1185 9.37679 13.0506 9.31401 13.01 9.19244C12.9613 9.04638 12.9322 8.86157 12.8272 8.77608C12.7187 8.68791 12.5275 8.75025 12.3724 8.75069C12.1951 8.75114 11.9779 8.68078 11.8519 8.7783C11.7349 8.86915 11.709 9.08067 11.6527 9.24276C11.6214 9.33226 11.5682 9.37189 11.478 9.39505C11.2568 9.45116 11.0428 9.53176 10.848 9.65066C10.7328 9.72146 10.6345 9.73615 10.5112 9.66624C10.3816 9.59321 10.2386 9.54423 10.1113 9.48901C10.0537 9.48634 10.0331 9.52374 10.0063 9.55002C9.8638 9.69073 9.72217 9.8319 9.58055 9.9735C9.3728 10.1801 9.3585 10.1881 9.49343 10.438C9.61406 10.6619 9.64756 10.8632 9.48226 11.0747C9.44607 11.1215 9.41479 11.1821 9.40675 11.24C9.35359 11.6234 9.11858 11.8211 8.75402 11.8914C8.65618 11.9106 8.64188 11.9743 8.64367 12.062C8.64858 12.2949 8.65349 12.5282 8.64233 12.7611C8.63607 12.8925 8.66869 12.9664 8.80584 12.9953C9.11948 13.0621 9.3451 13.2242 9.38531 13.5698C9.38799 13.5961 9.39871 13.625 9.4148 13.6464C9.6431 13.9581 9.63773 14.2698 9.41971 14.5838C9.36922 14.6559 9.38844 14.7098 9.45232 14.7694C9.59842 14.9057 9.73647 15.0509 9.87854 15.192C10.0827 15.3951 10.0881 15.4049 10.3445 15.2758C10.5581 15.168 10.7556 15.1003 10.9646 15.2789C11.0129 15.3203 11.0826 15.3488 11.146 15.3581C11.5294 15.4138 11.7268 15.6494 11.7983 16.0114C11.8166 16.1067 11.8761 16.1267 11.9668 16.1232C12.1446 16.116 12.3233 16.1209 12.5015 16.1209C12.8438 16.1209 12.8581 16.1254 12.9595 15.8057C13.0261 15.5959 13.1252 15.4583 13.3531 15.4258C13.4335 15.4142 13.522 15.3871 13.5854 15.339C13.8932 15.1043 14.193 15.1497 14.4942 15.3466C14.5732 15.3982 14.63 15.3764 14.6934 15.3092C14.8618 15.1319 15.0334 14.9565 15.2139 14.7922C15.301 14.7124 15.3059 14.6474 15.2514 14.5504C15.1947 14.4493 15.1612 14.3357 15.1058 14.2337C15.0531 14.1362 15.0557 14.0552 15.1147 13.9585C15.2358 13.7595 15.3287 13.5449 15.381 13.3173C15.4078 13.1997 15.4712 13.1436 15.5825 13.1067C15.7344 13.0568 15.9256 13.0243 16.0141 12.9152C16.1048 12.803 16.0373 12.6057 16.04 12.4463ZM12.3465 14.1905C11.3717 14.1923 10.5844 13.4122 10.5795 12.4392C10.5751 11.4688 11.3609 10.682 12.3376 10.6789C13.3129 10.6762 14.1023 11.4582 14.1041 12.4298C14.1059 13.4006 13.3191 14.1888 12.3465 14.1905Z" fill="black"/>
<path d="M6.54918 4.00818C5.16106 3.98458 4.01151 5.11031 3.99051 6.5148C3.96996 7.88946 5.08823 9.03746 6.47189 9.0615C7.8828 9.086 9.0377 7.98431 9.06049 6.59184C9.08327 5.16998 7.97796 4.03222 6.54918 4.00818ZM7.98198 6.10646C7.48204 6.6052 6.98344 7.10572 6.48082 7.60179C6.28514 7.79505 6.04031 7.80663 5.82317 7.61025C5.54707 7.36044 5.28481 7.09459 5.02971 6.82384C4.872 6.65596 4.89299 6.39635 5.0507 6.23426C5.21154 6.0695 5.45414 6.05124 5.64223 6.1924C5.69093 6.22892 5.73114 6.27656 5.77716 6.3162C5.90538 6.42708 6.00456 6.64928 6.15066 6.63637C6.27933 6.62524 6.39236 6.42797 6.51076 6.31085C6.79535 6.02897 7.07682 5.74398 7.3632 5.46388C7.50795 5.32227 7.68219 5.28398 7.86939 5.36903C8.0347 5.44429 8.12182 5.58011 8.12897 5.82502C8.13299 5.90117 8.07625 6.01205 7.98198 6.10646Z" fill="#FEFEFE"/>
<path d="M6.54918 4.00818C5.16106 3.98458 4.01151 5.11031 3.99051 6.5148C3.96996 7.88946 5.08823 9.03746 6.47189 9.0615C7.8828 9.086 9.0377 7.98431 9.06049 6.59184C9.08327 5.16998 7.97796 4.03222 6.54918 4.00818ZM7.98198 6.10646C7.48204 6.6052 6.98344 7.10572 6.48082 7.60179C6.28514 7.79505 6.04031 7.80663 5.82317 7.61025C5.54707 7.36044 5.28481 7.09459 5.02971 6.82384C4.872 6.65596 4.89299 6.39635 5.0507 6.23426C5.21154 6.0695 5.45414 6.05124 5.64223 6.1924C5.69093 6.22892 5.73114 6.27656 5.77716 6.3162C5.90538 6.42708 6.00456 6.64928 6.15066 6.63637C6.27933 6.62524 6.39236 6.42797 6.51076 6.31085C6.79535 6.02897 7.07682 5.74398 7.3632 5.46388C7.50795 5.32227 7.68219 5.28398 7.86939 5.36903C8.0347 5.44429 8.12182 5.58011 8.12897 5.82502C8.13299 5.90117 8.07625 6.01205 7.98198 6.10646Z" fill="black"/>
</svg>
