<svg width="17" height="17" viewBox="0 0 17 17" fill="none" xmlns="http://www.w3.org/2000/svg">
<path d="M4.75421 9.48187C4.75672 10.1433 4.243 10.6778 3.60901 10.6734C2.98074 10.6693 2.47132 10.1378 2.47168 9.48744C2.4724 8.83712 2.98396 8.30557 3.61151 8.30372C4.23978 8.30186 4.75206 8.82969 4.75421 9.48187Z" fill="#FEFEFE"/>
<path d="M5.04712 16.2984H4.89426C4.04082 16.2984 3.18702 16.295 2.33357 16.3021C2.2047 16.3032 2.18465 16.2605 2.18501 16.1406C2.1893 15.1584 2.18501 14.1763 2.19038 13.1937C2.19109 13.0716 2.16174 13.0315 2.04468 13.0445C1.94695 13.0553 1.84635 13.0549 1.74862 13.0445C1.63621 13.0326 1.61294 13.0768 1.6133 13.1878C1.6176 14.1592 1.61581 15.1306 1.61581 16.102C1.61581 16.285 1.61402 16.2887 1.44576 16.2245C0.951025 16.0356 0.63707 15.6748 0.505331 15.1447C0.498171 15.1154 0.508552 15.0783 0.47168 15.0615C0.56762 15.0797 0.560103 15.1722 0.580866 15.2371C0.712247 15.6503 0.964271 15.9472 1.34768 16.1261C1.55423 16.2223 1.58037 16.2085 1.58037 15.9773C1.58108 15.1031 1.58037 14.229 1.58073 13.3552C1.58108 13.0089 1.58681 13.0033 1.92153 13.004C1.95267 13.004 1.98382 13.0033 2.01496 13.0044C2.19933 13.0107 2.23441 13.0426 2.23584 13.2349C2.23942 13.8392 2.23692 14.4435 2.23728 15.0478C2.23728 15.3771 2.2362 15.7059 2.23763 16.0352C2.23871 16.2271 2.25231 16.243 2.42951 16.2434C3.2153 16.2445 4.00108 16.2445 4.78686 16.2434C4.93256 16.243 4.93972 16.2323 4.87529 16.1031C4.75321 15.8574 4.70488 15.5957 4.70524 15.3218C4.70596 14.3719 4.7056 13.4224 4.70524 12.4725C4.70524 12.2335 4.73782 11.9989 4.80047 11.7698C4.83197 11.6551 4.80512 11.6102 4.68878 11.6106C3.90836 11.6125 3.12723 11.5917 2.34718 11.6176C1.53204 11.6447 0.805324 12.2761 0.587668 13.1002C0.567262 13.1778 0.561177 13.2602 0.520724 13.3318C0.514996 13.34 0.508552 13.3455 0.501035 13.3478C0.499245 13.3485 0.497097 13.3492 0.494949 13.3492C0.487789 13.35 0.480271 13.3485 0.47168 13.3444C0.481345 13.3452 0.490653 13.3437 0.499603 13.3392C0.56941 12.5141 1.29434 11.7305 2.11449 11.5965C2.22725 11.5783 2.34181 11.5642 2.45565 11.5638C3.21566 11.5609 3.97566 11.5623 4.73567 11.5627C4.78686 11.5627 4.83806 11.5675 4.90393 11.5705C4.68376 12.2134 4.76753 12.8708 4.75715 13.5204C4.74784 14.0868 4.76145 14.654 4.75285 15.2204C4.74713 15.6016 4.80763 15.9591 5.04712 16.2984Z" fill="#FEFEFE"/>
<path d="M8.45917 9.48829C7.83413 9.48384 7.32041 8.94301 7.32722 8.2964C7.33402 7.64199 7.84308 7.1201 8.47349 7.12159C9.10319 7.1227 9.61261 7.6509 9.61332 8.30308C9.61404 8.95898 9.09388 9.49312 8.45917 9.48829Z" fill="#FEFEFE"/>
<path d="M11.6114 12.458C11.625 13.4298 11.6139 14.4019 11.6142 15.3737C11.6146 15.9212 11.233 16.3755 10.5317 16.3006C10.4697 16.2939 10.4697 16.262 10.4697 16.2163C10.4705 16.0756 10.4701 15.9353 10.4701 15.795C10.4701 14.6395 10.4679 13.484 10.4726 12.3285C10.4733 12.1971 10.4583 12.1277 10.3086 12.1488C10.1812 12.1666 10.0087 12.108 9.9324 12.1759C9.84255 12.2553 9.90304 12.4387 9.90269 12.5764C9.90018 13.7646 9.89947 14.9524 9.90412 16.1402C9.90448 16.2638 9.87906 16.3032 9.75233 16.3021C8.89817 16.2957 8.04437 16.2961 7.19021 16.3021C7.06778 16.3028 7.03592 16.2701 7.03628 16.1424C7.04093 14.8681 7.03735 13.5939 7.04201 12.3196C7.04272 12.1896 7.01874 12.1325 6.88306 12.1492C6.78569 12.1614 6.68474 12.1596 6.58665 12.1496C6.48462 12.1392 6.46815 12.183 6.46851 12.2776C6.47209 12.9309 6.4703 13.5846 6.4703 14.2379V16.0519C6.4703 16.3009 6.4703 16.2969 6.22329 16.3002C6.01816 16.3032 5.83201 16.2508 5.66912 16.1209C5.45899 15.9535 5.33333 15.7308 5.33226 15.4569C5.3276 14.4094 5.30004 13.3604 5.34336 12.3151C5.38775 11.2513 6.1653 10.4554 7.18807 10.392C8.02468 10.34 8.86524 10.3467 9.70221 10.3879C10.8052 10.4421 11.5949 11.3099 11.6114 12.458Z" fill="#FEFEFE"/>
<path d="M11.6246 9.09783C11.602 9.15351 11.5834 9.19768 11.5068 9.19694C10.9977 9.19285 10.489 9.19471 9.95812 9.19471C10.2073 8.69286 10.2606 8.18915 10.0712 7.67023C9.94022 7.31055 9.71863 7.02547 9.40968 6.81427C8.79251 6.39222 7.9831 6.43306 7.40066 6.91412C6.75914 7.44343 6.61666 8.18433 6.97143 9.19471C6.45915 9.19471 5.9594 9.19137 5.45965 9.19768C5.36263 9.19916 5.34008 9.1472 5.31001 9.07518C4.74797 7.72591 5.09844 6.06632 6.15307 5.08898C8.15673 3.23191 11.2723 4.28164 11.8322 7.00692C11.9793 7.72294 11.8981 8.42263 11.6246 9.09783Z" fill="#FEFEFE"/>
<path d="M13.3371 8.30383C13.9679 8.31274 14.4716 8.8428 14.4691 9.49498C14.4666 10.1446 13.95 10.6765 13.3242 10.6731C12.6881 10.6702 12.1815 10.136 12.1866 9.47345C12.1912 8.82424 12.7121 8.29455 13.3371 8.30383Z" fill="#FEFEFE"/>
<path d="M1.32656 8.38305C1.32656 7.89159 1.32548 7.40051 1.32692 6.90905C1.32763 6.62658 1.42107 6.53044 1.6935 6.53007C2.13597 6.52933 2.5788 6.52673 3.02127 6.5323C3.11936 6.53341 3.16733 6.51225 3.19167 6.40349C3.32234 5.82184 3.54107 5.27656 3.84894 4.77211C3.90586 4.67857 3.89011 4.63032 3.81923 4.55868C3.49847 4.23463 3.18344 3.90427 2.86734 3.5754C2.68297 3.38312 2.68226 3.24133 2.86519 3.05053C3.23284 2.66821 3.60121 2.28625 3.9703 1.90541C4.15753 1.71239 4.30036 1.71425 4.4901 1.91024C4.80763 2.238 5.12624 2.56428 5.43876 2.89649C5.50714 2.96924 5.55404 2.96961 5.63315 2.91802C6.12037 2.59954 6.64697 2.37497 7.20651 2.23614C7.30316 2.21239 7.32894 2.17081 7.32786 2.07282C7.32321 1.61403 7.325 1.15487 7.32608 0.696076C7.32679 0.402465 7.41736 0.309668 7.70089 0.309297C8.22176 0.308554 8.74227 0.308183 9.26315 0.309297C9.51481 0.310039 9.61254 0.41026 9.61362 0.67232C9.61612 1.13668 9.61684 1.60104 9.61254 2.0654C9.61147 2.16822 9.63545 2.2135 9.7407 2.23948C10.2952 2.37608 10.8179 2.59805 11.2994 2.91542C11.395 2.97852 11.4444 2.96071 11.5178 2.88276C11.8299 2.5498 12.1485 2.22352 12.4661 1.89613C12.6383 1.71833 12.7897 1.71833 12.964 1.89799C13.337 2.28254 13.709 2.66821 14.0795 3.05536C14.256 3.23984 14.2549 3.38535 14.0792 3.56909C13.7598 3.90241 13.4412 4.23649 13.118 4.56536C13.0521 4.63255 13.0374 4.67857 13.09 4.76543C13.399 5.27545 13.6213 5.82481 13.752 6.41203C13.7741 6.51151 13.8218 6.53304 13.9134 6.53192C14.3609 6.5271 14.8087 6.52895 15.2566 6.53007C15.5172 6.53081 15.6124 6.62955 15.6135 6.90348C15.6149 7.44319 15.6149 7.98328 15.6131 8.52336C15.6124 8.79173 15.509 8.88193 15.2541 8.9042C15.0393 8.92313 14.9283 8.86151 14.822 8.64511C14.4135 7.81364 13.4333 7.48514 12.6132 7.87266C12.5713 7.89271 12.5305 7.91461 12.4707 7.94504C12.5817 5.52897 10.7381 3.54756 8.44156 3.56463C6.20307 3.58134 4.37053 5.50818 4.47076 7.93948C4.26779 7.84816 4.07089 7.76168 3.85503 7.7305C3.1011 7.62174 2.36938 8.03079 2.06187 8.7535C2.01067 8.87376 1.95125 8.90494 1.83204 8.90308C1.37703 8.89566 1.32656 8.84852 1.32656 8.38305Z" fill="#FEFEFE"/>
<path d="M16.4679 14.8495C16.4586 15.4831 16.0527 16.0373 15.4713 16.2344C15.3528 16.2745 15.322 16.2592 15.3224 16.1238C15.3277 15.1516 15.322 14.1798 15.3288 13.2081C15.3299 13.0689 15.2916 13.0288 15.1652 13.0451C15.0829 13.0555 14.9969 13.0581 14.9157 13.0447C14.7682 13.0202 14.7499 13.0896 14.7507 13.2229C14.756 14.1951 14.7503 15.1668 14.7571 16.1386C14.7582 16.2785 14.7192 16.3027 14.5939 16.3019C13.7035 16.296 12.8132 16.2986 11.8936 16.2986C12.1373 15.9549 12.1928 15.5911 12.1885 15.2047C12.1803 14.4757 12.1857 13.7467 12.1864 13.018C12.1867 12.5329 12.2089 12.0462 12.0296 11.5626H12.7083C13.2811 11.5626 13.8539 11.5611 14.4267 11.5629C15.5941 11.5659 16.4658 12.4709 16.4694 13.6832C16.4704 14.0718 16.4736 14.4605 16.4679 14.8495Z" fill="#FEFEFE"/>
<path d="M5.04712 16.2984H4.89426C4.04082 16.2984 3.18702 16.295 2.33357 16.3021C2.2047 16.3032 2.18465 16.2605 2.18501 16.1406C2.1893 15.1584 2.18501 14.1763 2.19038 13.1937C2.19109 13.0716 2.16174 13.0315 2.04468 13.0445C1.94695 13.0553 1.84635 13.0549 1.74862 13.0445C1.63621 13.0326 1.61294 13.0768 1.6133 13.1878C1.6176 14.1592 1.61581 15.1306 1.61581 16.102C1.61581 16.285 1.61402 16.2887 1.44576 16.2245C0.951025 16.0356 0.63707 15.6748 0.505331 15.1447C0.498171 15.1154 0.508552 15.0783 0.47168 15.0615V13.5063C0.506762 13.4591 0.473828 13.399 0.494949 13.3492C0.496023 13.3459 0.497813 13.3426 0.499603 13.3392C0.56941 12.5141 1.29434 11.7305 2.11449 11.5965C2.22725 11.5783 2.34181 11.5642 2.45565 11.5638C3.21566 11.5609 3.97566 11.5623 4.73567 11.5627C4.78686 11.5627 4.83806 11.5675 4.90393 11.5705C4.68376 12.2134 4.76753 12.8708 4.75715 13.5204C4.74784 14.0868 4.76145 14.654 4.75285 15.2204C4.74713 15.6016 4.80763 15.9591 5.04712 16.2984Z" fill="black"/>
<path d="M0.47168 13.5064V13.3446C0.481345 13.3453 0.490653 13.3438 0.499603 13.3394C0.499961 13.3423 0.500319 13.3449 0.501035 13.3479C0.509984 13.4039 0.518218 13.46 0.47168 13.5064Z" fill="#3F3F3F"/>
<path d="M15.6131 8.52336C15.6124 8.79173 15.509 8.88193 15.2541 8.9042C15.0393 8.92313 14.9283 8.86151 14.822 8.64511C14.4135 7.81364 13.4333 7.48514 12.6132 7.87266C12.5713 7.89271 12.5305 7.91461 12.4707 7.94504C12.5817 5.52897 10.7381 3.54756 8.44156 3.56463C6.20307 3.58134 4.37053 5.50818 4.47076 7.93948C4.26779 7.84816 4.07089 7.76168 3.85503 7.7305C3.1011 7.62174 2.36938 8.03079 2.06187 8.7535C2.01067 8.87376 1.95125 8.90494 1.83204 8.90308C1.37703 8.89566 1.32656 8.84852 1.32656 8.38305C1.32656 7.89159 1.32548 7.40051 1.32692 6.90905C1.32763 6.62658 1.42107 6.53044 1.6935 6.53007C2.13597 6.52933 2.5788 6.52673 3.02127 6.5323C3.11936 6.53341 3.16733 6.51225 3.19167 6.40349C3.32234 5.82184 3.54107 5.27656 3.84894 4.77211C3.90586 4.67857 3.89011 4.63032 3.81923 4.55868C3.49847 4.23463 3.18344 3.90427 2.86734 3.5754C2.68297 3.38312 2.68226 3.24133 2.86519 3.05053C3.23284 2.66821 3.60121 2.28625 3.9703 1.90541C4.15753 1.71239 4.30036 1.71425 4.4901 1.91024C4.80763 2.238 5.12624 2.56428 5.43876 2.89649C5.50714 2.96924 5.55404 2.96961 5.63315 2.91802C6.12037 2.59954 6.64697 2.37497 7.20651 2.23614C7.30316 2.21239 7.32894 2.17081 7.32786 2.07282C7.32321 1.61403 7.325 1.15487 7.32608 0.696076C7.32679 0.402465 7.41736 0.309668 7.70089 0.309297C8.22176 0.308554 8.74227 0.308183 9.26315 0.309297C9.51481 0.310039 9.61254 0.41026 9.61362 0.67232C9.61612 1.13668 9.61684 1.60104 9.61254 2.0654C9.61147 2.16822 9.63545 2.2135 9.7407 2.23948C10.2952 2.37608 10.8179 2.59805 11.2994 2.91542C11.395 2.97852 11.4444 2.96071 11.5178 2.88276C11.8299 2.5498 12.1485 2.22352 12.4661 1.89613C12.6383 1.71833 12.7897 1.71833 12.964 1.89799C13.337 2.28254 13.709 2.66821 14.0795 3.05536C14.256 3.23984 14.2549 3.38535 14.0792 3.56909C13.7598 3.90241 13.4412 4.23649 13.118 4.56536C13.0521 4.63255 13.0374 4.67857 13.09 4.76543C13.399 5.27545 13.6213 5.82481 13.752 6.41203C13.7741 6.51151 13.8218 6.53304 13.9134 6.53192C14.3609 6.5271 14.8087 6.52895 15.2566 6.53007C15.5172 6.53081 15.6124 6.62955 15.6135 6.90348C15.6149 7.44319 15.6149 7.98328 15.6131 8.52336Z" fill="black"/>
<path d="M11.6142 15.3737C11.6146 15.9212 11.233 16.3755 10.5317 16.3006C10.4697 16.2939 10.4697 16.262 10.4697 16.2163C10.4705 16.0756 10.4701 15.9353 10.4701 15.795C10.4701 14.6395 10.4679 13.484 10.4726 12.3285C10.4733 12.1971 10.4583 12.1277 10.3086 12.1488C10.1812 12.1666 10.0087 12.108 9.9324 12.1759C9.84255 12.2553 9.90304 12.4387 9.90269 12.5764C9.90018 13.7646 9.89947 14.9524 9.90412 16.1402C9.90448 16.2638 9.87906 16.3032 9.75233 16.3021C8.89817 16.2957 8.04437 16.2961 7.19021 16.3021C7.06778 16.3028 7.03592 16.2701 7.03628 16.1424C7.04093 14.8681 7.03735 13.5939 7.04201 12.3196C7.04272 12.1896 7.01874 12.1325 6.88306 12.1492C6.78569 12.1614 6.68474 12.1596 6.58665 12.1496C6.48462 12.1392 6.46815 12.183 6.46851 12.2776C6.47209 12.9309 6.4703 13.5846 6.4703 14.2379V16.0519C6.4703 16.3009 6.4703 16.2969 6.22329 16.3002C6.01816 16.3032 5.83201 16.2508 5.66912 16.1209C5.45899 15.9535 5.33333 15.7308 5.33226 15.4569C5.3276 14.4094 5.30004 13.3604 5.34336 12.3151C5.38775 11.2513 6.1653 10.4554 7.18807 10.392C8.02468 10.34 8.86524 10.3467 9.70221 10.3879C10.8052 10.4421 11.5949 11.3099 11.6114 12.458C11.625 13.4298 11.6139 14.4019 11.6142 15.3737Z" fill="black"/>
<path d="M11.6246 9.09783C11.602 9.15351 11.5834 9.19768 11.5068 9.19694C10.9977 9.19285 10.489 9.19471 9.95812 9.19471C10.2073 8.69286 10.2606 8.18915 10.0712 7.67023C9.94022 7.31055 9.71863 7.02547 9.40968 6.81427C8.79251 6.39222 7.9831 6.43306 7.40066 6.91412C6.75914 7.44343 6.61666 8.18433 6.97143 9.19471C6.45915 9.19471 5.9594 9.19137 5.45965 9.19768C5.36263 9.19916 5.34008 9.1472 5.31001 9.07518C4.74797 7.72591 5.09844 6.06632 6.15307 5.08898C8.15673 3.23191 11.2723 4.28164 11.8322 7.00692C11.9793 7.72294 11.8981 8.42263 11.6246 9.09783Z" fill="black"/>
<path d="M16.4679 14.8495C16.4586 15.4831 16.0527 16.0373 15.4713 16.2344C15.3528 16.2745 15.322 16.2592 15.3224 16.1238C15.3277 15.1516 15.322 14.1798 15.3288 13.2081C15.3299 13.0689 15.2916 13.0288 15.1652 13.0451C15.0829 13.0555 14.9969 13.0581 14.9157 13.0447C14.7682 13.0202 14.7499 13.0896 14.7507 13.2229C14.756 14.1951 14.7503 15.1668 14.7571 16.1386C14.7582 16.2785 14.7192 16.3027 14.5939 16.3019C13.7035 16.296 12.8132 16.2986 11.8936 16.2986C12.1373 15.9549 12.1928 15.5911 12.1885 15.2047C12.1803 14.4757 12.1857 13.7467 12.1864 13.018C12.1867 12.5329 12.2089 12.0462 12.0296 11.5626H12.7083C13.2811 11.5626 13.8539 11.5611 14.4267 11.5629C15.5941 11.5659 16.4658 12.4709 16.4694 13.6832C16.4704 14.0718 16.4736 14.4605 16.4679 14.8495Z" fill="black"/>
<path d="M14.4691 9.49498C14.4666 10.1446 13.95 10.6765 13.3242 10.6731C12.6881 10.6702 12.1815 10.136 12.1866 9.47345C12.1912 8.82424 12.7121 8.29455 13.3371 8.30383C13.9679 8.31274 14.4716 8.8428 14.4691 9.49498Z" fill="black"/>
<path d="M9.61332 8.30308C9.61404 8.95898 9.09388 9.49312 8.45917 9.48829C7.83413 9.48384 7.32041 8.94301 7.32722 8.2964C7.33402 7.64199 7.84308 7.1201 8.47349 7.12159C9.10319 7.1227 9.61261 7.6509 9.61332 8.30308Z" fill="black"/>
<path d="M4.75421 9.48187C4.75672 10.1433 4.243 10.6778 3.60901 10.6734C2.98074 10.6693 2.47132 10.1378 2.47168 9.48744C2.4724 8.83712 2.98396 8.30557 3.61151 8.30372C4.23978 8.30186 4.75206 8.82969 4.75421 9.48187Z" fill="black"/>
</svg>
