<svg width="15" height="16" viewBox="0 0 15 16" fill="none" xmlns="http://www.w3.org/2000/svg">
<g clip-path="url(#clip0_524_631)">
<path d="M12.5639 15.0064C12.5553 15.2117 12.5653 15.4175 12.5601 15.6228C12.5529 15.9052 12.3283 16.1114 12.0251 16.1225C11.9828 16.1238 11.9411 16.123 11.8993 16.123H1.05858C0.590747 16.123 0.392578 15.9403 0.392578 15.5083V2.43074C0.392578 2.00719 0.590267 1.82414 1.04706 1.82414C1.21452 1.82414 1.38294 1.83438 1.54944 1.82102C1.69675 1.809 1.72074 1.8611 1.72074 1.98536C1.71738 5.93942 1.71882 9.89303 1.71594 13.8471C1.71594 14.1125 1.77976 14.3526 1.96929 14.5552C2.19577 14.7966 2.48463 14.8946 2.82867 14.8942C5.99313 14.891 9.15808 14.8924 12.323 14.8924C12.359 14.8924 12.395 14.8959 12.4305 14.8919C12.5265 14.8804 12.5677 14.9066 12.5639 15.0064Z" fill="#FEFEFE"/>
<path d="M11.8823 1.93659C11.8779 1.35983 11.8808 0.783508 11.8808 0.239258C12.6735 0.974129 13.4782 1.72013 14.2713 2.4559H13.2071C12.9499 2.4559 12.6932 2.4608 12.4365 2.45412C12.1111 2.4461 11.8842 2.23588 11.8823 1.93659Z" fill="#FEFEFE"/>
<path d="M14.2118 2.91957C13.6312 2.92536 13.0511 2.92491 12.471 2.92135C11.8218 2.9169 11.3799 2.50403 11.3775 1.90322C11.3755 1.37055 11.3712 0.836989 11.3808 0.304319C11.3837 0.162689 11.353 0.122605 11.1903 0.123051C8.415 0.128395 5.63919 0.127059 2.86339 0.127059C2.42003 0.127059 2.21994 0.313672 2.21994 0.726981C2.21946 2.90888 2.21994 5.09123 2.21994 7.27357C2.21994 9.4666 2.21946 11.6601 2.21994 13.8536C2.21994 14.2321 2.42867 14.4254 2.837 14.4254C6.48033 14.4259 10.1237 14.4259 13.7665 14.4254C14.1744 14.4254 14.3884 14.2299 14.3884 13.8549C14.3889 10.2625 14.3874 6.67009 14.3922 3.07723C14.3927 2.93783 14.3423 2.91823 14.2118 2.91957ZM4.01738 3.02646C4.03177 2.91601 4.10375 2.84564 4.2237 2.82693C4.276 2.81891 4.33118 2.82203 4.38492 2.82203H8.76192C8.81566 2.82203 8.86988 2.81981 8.92314 2.8256C9.05365 2.83985 9.12947 2.91601 9.14338 3.03136C9.15729 3.14983 9.09252 3.23712 8.9692 3.27186C8.90778 3.28879 8.83965 3.2879 8.77439 3.2879C7.30948 3.28879 5.84456 3.28879 4.37965 3.28834C4.30863 3.28834 4.23666 3.2968 4.16804 3.26607C4.05864 3.21753 4.0025 3.13825 4.01738 3.02646ZM4.0145 4.17553C4.01642 4.02499 4.12294 3.94883 4.3403 3.94839C4.75823 3.94705 5.17664 3.94794 5.59457 3.94794C6.00674 3.94794 6.41892 3.94705 6.83109 3.94839C7.04365 3.94928 7.15161 4.03034 7.14969 4.18132C7.14777 4.33008 7.03693 4.41381 6.82533 4.41425C5.99475 4.41559 5.16465 4.41603 4.33406 4.41381C4.12582 4.41336 4.01306 4.32473 4.0145 4.17553ZM5.52356 10.9929C5.52356 11.3149 5.525 11.6369 5.52356 11.9589C5.5226 12.1451 5.47078 12.1919 5.26685 12.1928C5.00966 12.1941 4.75247 12.191 4.49528 12.1936C4.33934 12.1954 4.26401 12.1335 4.26449 11.9848C4.26641 11.3131 4.26593 10.6411 4.26449 9.96943C4.26449 9.8287 4.34126 9.76679 4.48521 9.76634C4.75439 9.76545 5.02358 9.76679 5.29276 9.7659C5.45926 9.76501 5.5274 9.84117 5.525 9.99348C5.52068 10.3266 5.52356 10.6598 5.52356 10.9929ZM7.79314 11.9558C7.79266 12.1513 7.74948 12.1914 7.54219 12.1928C7.28549 12.1941 7.0283 12.1901 6.77111 12.1941C6.60317 12.1968 6.53311 12.1224 6.53311 11.9718C6.53407 10.9622 6.53312 9.95251 6.53455 8.9424C6.53455 8.76647 6.58973 8.71614 6.78071 8.71436C7.03789 8.71169 7.29508 8.71169 7.55179 8.71436C7.75188 8.71659 7.79266 8.75489 7.79314 8.94329C7.79458 9.44834 7.79362 9.95296 7.79362 10.458C7.79362 10.9573 7.79458 11.4565 7.79314 11.9558ZM10.0714 11.9442C10.0704 12.1429 10.0186 12.1919 9.80986 12.1928C9.56515 12.1941 9.31996 12.1936 9.07476 12.1928C8.85404 12.1919 8.81086 12.1545 8.81038 11.95C8.80894 11.2731 8.8099 10.5965 8.8099 9.91955C8.8099 9.2595 8.80942 8.59946 8.8099 7.93941C8.81038 7.68376 8.84013 7.65749 9.12275 7.65704H9.76812C10.0335 7.65749 10.0718 7.69445 10.0718 7.95054C10.0723 9.02123 10.0718 10.0915 10.0718 11.1622C10.0718 11.4231 10.0733 11.6837 10.0714 11.9442ZM10.8578 5.56466C10.6908 5.57713 10.5968 5.48138 10.5814 5.28897C10.5776 5.23642 10.5934 5.17897 10.5435 5.11661C10.4605 5.21638 10.3842 5.31169 10.3036 5.40388C9.17697 6.6977 7.71157 7.50828 6.01586 7.98929C5.54707 8.12201 5.06772 8.21153 4.58405 8.28279C4.38109 8.31263 4.24961 8.24405 4.22754 8.09752C4.20403 7.94431 4.29856 7.85211 4.50584 7.82272C6.28168 7.5693 7.87615 6.948 9.21391 5.8114C9.5805 5.50008 9.90727 5.15536 10.1889 4.75853C10.0651 4.75408 9.96772 4.79906 9.86504 4.81955C9.69182 4.85473 9.56035 4.79416 9.51909 4.66233C9.47926 4.5354 9.56611 4.41024 9.73309 4.36838C10.021 4.29578 10.3094 4.22497 10.5992 4.16128C10.8885 4.09804 11.0027 4.18132 11.0214 4.44988C11.0401 4.72112 11.0656 4.99235 11.0833 5.26359C11.0953 5.44753 11.0123 5.55308 10.8578 5.56466ZM12.3424 11.9696C12.3424 12.1411 12.2834 12.1914 12.0914 12.1928C11.84 12.1941 11.5886 12.1941 11.3372 12.1928C11.1303 12.1914 11.0848 12.15 11.0848 11.9572C11.0838 11.1074 11.0843 10.2576 11.0843 9.40781C11.0843 8.55804 11.0838 7.70826 11.0843 6.85848C11.0843 6.64203 11.1318 6.59882 11.3688 6.59793C11.614 6.59749 11.8597 6.59882 12.1049 6.59749C12.2675 6.59704 12.3443 6.66652 12.3443 6.82107C12.3424 8.5371 12.3438 10.2536 12.3424 11.9696Z" fill="#FEFEFE"/>
<path d="M14.2118 2.91957C13.6312 2.92536 13.0511 2.92491 12.471 2.92135C11.8218 2.9169 11.3799 2.50403 11.3775 1.90322C11.3755 1.37055 11.3712 0.836989 11.3808 0.304319C11.3837 0.162689 11.353 0.122605 11.1903 0.123051C8.415 0.128395 5.63919 0.127059 2.86339 0.127059C2.42003 0.127059 2.21994 0.313672 2.21994 0.726981C2.21946 2.90888 2.21994 5.09123 2.21994 7.27357C2.21994 9.4666 2.21946 11.6601 2.21994 13.8536C2.21994 14.2321 2.42867 14.4254 2.837 14.4254C6.48033 14.4259 10.1237 14.4259 13.7665 14.4254C14.1744 14.4254 14.3884 14.2299 14.3884 13.8549C14.3889 10.2625 14.3874 6.67009 14.3922 3.07723C14.3927 2.93783 14.3423 2.91823 14.2118 2.91957ZM4.01738 3.02646C4.03177 2.91601 4.10375 2.84564 4.2237 2.82693C4.276 2.81891 4.33118 2.82203 4.38492 2.82203H8.76192C8.81566 2.82203 8.86988 2.81981 8.92314 2.8256C9.05365 2.83985 9.12947 2.91601 9.14338 3.03136C9.15729 3.14983 9.09252 3.23712 8.9692 3.27186C8.90778 3.28879 8.83965 3.2879 8.77439 3.2879C7.30948 3.28879 5.84456 3.28879 4.37965 3.28834C4.30863 3.28834 4.23666 3.2968 4.16804 3.26607C4.05864 3.21753 4.0025 3.13825 4.01738 3.02646ZM4.0145 4.17553C4.01642 4.02499 4.12294 3.94883 4.3403 3.94839C4.75823 3.94705 5.17664 3.94794 5.59457 3.94794C6.00674 3.94794 6.41892 3.94705 6.83109 3.94839C7.04365 3.94928 7.15161 4.03034 7.14969 4.18132C7.14777 4.33008 7.03693 4.41381 6.82533 4.41425C5.99475 4.41559 5.16465 4.41603 4.33406 4.41381C4.12582 4.41336 4.01306 4.32473 4.0145 4.17553ZM5.52356 10.9929C5.52356 11.3149 5.525 11.6369 5.52356 11.9589C5.5226 12.1451 5.47078 12.1919 5.26685 12.1928C5.00966 12.1941 4.75247 12.191 4.49528 12.1936C4.33934 12.1954 4.26401 12.1335 4.26449 11.9848C4.26641 11.3131 4.26593 10.6411 4.26449 9.96943C4.26449 9.8287 4.34126 9.76679 4.48521 9.76634C4.75439 9.76545 5.02358 9.76679 5.29276 9.7659C5.45926 9.76501 5.5274 9.84117 5.525 9.99348C5.52068 10.3266 5.52356 10.6598 5.52356 10.9929ZM7.79314 11.9558C7.79266 12.1513 7.74948 12.1914 7.54219 12.1928C7.28549 12.1941 7.0283 12.1901 6.77111 12.1941C6.60317 12.1968 6.53311 12.1224 6.53311 11.9718C6.53407 10.9622 6.53312 9.95251 6.53455 8.9424C6.53455 8.76647 6.58973 8.71614 6.78071 8.71436C7.03789 8.71169 7.29508 8.71169 7.55179 8.71436C7.75188 8.71659 7.79266 8.75489 7.79314 8.94329C7.79458 9.44834 7.79362 9.95296 7.79362 10.458C7.79362 10.9573 7.79458 11.4565 7.79314 11.9558ZM10.0714 11.9442C10.0704 12.1429 10.0186 12.1919 9.80986 12.1928C9.56515 12.1941 9.31996 12.1936 9.07476 12.1928C8.85404 12.1919 8.81086 12.1545 8.81038 11.95C8.80894 11.2731 8.8099 10.5965 8.8099 9.91955C8.8099 9.2595 8.80942 8.59946 8.8099 7.93941C8.81038 7.68376 8.84013 7.65749 9.12275 7.65704H9.76812C10.0335 7.65749 10.0718 7.69445 10.0718 7.95054C10.0723 9.02123 10.0718 10.0915 10.0718 11.1622C10.0718 11.4231 10.0733 11.6837 10.0714 11.9442ZM10.8578 5.56466C10.6908 5.57713 10.5968 5.48138 10.5814 5.28897C10.5776 5.23642 10.5934 5.17897 10.5435 5.11661C10.4605 5.21638 10.3842 5.31169 10.3036 5.40388C9.17697 6.6977 7.71157 7.50828 6.01586 7.98929C5.54707 8.12201 5.06772 8.21153 4.58405 8.28279C4.38109 8.31263 4.24961 8.24405 4.22754 8.09752C4.20403 7.94431 4.29856 7.85211 4.50584 7.82272C6.28168 7.5693 7.87615 6.948 9.21391 5.8114C9.5805 5.50008 9.90727 5.15536 10.1889 4.75853C10.0651 4.75408 9.96772 4.79906 9.86504 4.81955C9.69182 4.85473 9.56035 4.79416 9.51909 4.66233C9.47926 4.5354 9.56611 4.41024 9.73309 4.36838C10.021 4.29578 10.3094 4.22497 10.5992 4.16128C10.8885 4.09804 11.0027 4.18132 11.0214 4.44988C11.0401 4.72112 11.0656 4.99235 11.0833 5.26359C11.0953 5.44753 11.0123 5.55308 10.8578 5.56466ZM12.3424 11.9696C12.3424 12.1411 12.2834 12.1914 12.0914 12.1928C11.84 12.1941 11.5886 12.1941 11.3372 12.1928C11.1303 12.1914 11.0848 12.15 11.0848 11.9572C11.0838 11.1074 11.0843 10.2576 11.0843 9.40781C11.0843 8.55804 11.0838 7.70826 11.0843 6.85848C11.0843 6.64203 11.1318 6.59882 11.3688 6.59793C11.614 6.59749 11.8597 6.59882 12.1049 6.59749C12.2675 6.59704 12.3443 6.66652 12.3443 6.82107C12.3424 8.5371 12.3438 10.2536 12.3424 11.9696Z" fill="black"/>
<path d="M12.5601 15.6228C12.5529 15.9052 12.3283 16.1114 12.0251 16.1225C11.9828 16.1238 11.9411 16.123 11.8993 16.123H1.05858C0.590747 16.123 0.392578 15.9403 0.392578 15.5083V2.43074C0.392578 2.00719 0.590267 1.82414 1.04706 1.82414C1.21452 1.82414 1.38294 1.83438 1.54944 1.82102C1.69675 1.809 1.72074 1.8611 1.72074 1.98536C1.71738 5.93942 1.71882 9.89303 1.71594 13.8471C1.71594 14.1125 1.77976 14.3526 1.96929 14.5552C2.19577 14.7966 2.48463 14.8946 2.82867 14.8942C5.99313 14.891 9.15808 14.8924 12.323 14.8924C12.359 14.8924 12.395 14.8959 12.4305 14.8919C12.5265 14.8804 12.5677 14.9066 12.5639 15.0064C12.5553 15.2117 12.5653 15.4175 12.5601 15.6228Z" fill="black"/>
<path d="M14.2713 2.4559H13.2071C12.9499 2.4559 12.6932 2.4608 12.4365 2.45412C12.1111 2.4461 11.8842 2.23588 11.8823 1.93659C11.8779 1.35983 11.8808 0.783508 11.8808 0.239258C12.6735 0.974129 13.4782 1.72013 14.2713 2.4559Z" fill="black"/>
</g>
<defs>
<clipPath id="clip0_524_631">
<rect width="15" height="16" fill="white"/>
</clipPath>
</defs>
</svg>
