<svg width="15" height="16" viewBox="0 0 15 16" fill="none" xmlns="http://www.w3.org/2000/svg">
<g clip-path="url(#clip0_524_636)">
<path d="M7.77351 4.38185C5.61884 4.37518 3.86216 6.12269 3.8584 8.27568C3.85507 10.4308 5.60299 12.1849 7.7564 12.1874C9.90439 12.19 11.6565 10.447 11.664 8.30071C11.6711 6.14438 9.92775 4.38811 7.77351 4.38185ZM7.74597 9.56931C7.58787 9.72742 7.42809 9.88386 7.27291 10.0449C7.2266 10.0929 7.1999 10.0962 7.15109 10.0466C6.68971 9.58141 6.22582 9.11836 5.7611 8.65656C5.71229 8.60816 5.71396 8.57938 5.76277 8.53224C5.94548 8.35453 6.12737 8.17598 6.30258 7.99118C6.36432 7.9261 6.39269 7.95989 6.43649 8.00411C6.69179 8.26317 6.94877 8.52056 7.2095 8.78254C7.83483 8.15721 8.45516 7.54314 9.06672 6.91948C9.17352 6.8106 9.22816 6.81185 9.32828 6.92156C9.49598 7.10553 9.68204 7.2724 9.86559 7.45136C9.15099 8.16555 8.44848 8.86722 7.74597 9.56931Z" fill="black"/>
<path d="M15.7705 7.11436C15.7713 6.99422 15.7355 6.9404 15.6191 6.90828C15.1927 6.79148 14.7701 6.66257 14.345 6.54076C14.2337 6.50864 14.1719 6.44648 14.139 6.33385C14.0155 5.91334 13.8482 5.50994 13.6375 5.12573C13.5883 5.03646 13.5975 4.96345 13.6434 4.87794C13.8524 4.4883 14.066 4.10159 14.2825 3.71655C14.3517 3.59348 14.3534 3.50087 14.2499 3.39825C13.7147 2.86636 13.1816 2.33322 12.6501 1.79842C12.5537 1.70122 12.4678 1.69287 12.3468 1.75879C11.9543 1.97363 11.5638 2.19097 11.1717 2.40581C11.092 2.44919 11.0227 2.4638 10.938 2.41749C10.5447 2.20182 10.1317 2.03161 9.70198 1.90229C9.5906 1.86892 9.53094 1.80384 9.50049 1.6912C9.38577 1.26945 9.25394 0.853118 9.13881 0.43178C9.10793 0.319145 9.05954 0.274508 8.93523 0.275343C8.15513 0.2816 7.37503 0.282017 6.59493 0.274926C6.46269 0.273674 6.41346 0.3229 6.38175 0.440123C6.26954 0.851866 6.13896 1.25777 6.02967 1.66993C5.99504 1.8005 5.9283 1.87309 5.79814 1.91105C5.39265 2.02953 5.00344 2.19055 4.63299 2.39371C4.52245 2.4542 4.43568 2.44919 4.3293 2.39037C3.95176 2.18096 3.57423 1.97196 3.19502 1.76629C3.03191 1.67785 2.99729 1.67702 2.86797 1.80634C2.34067 2.33072 1.81462 2.85677 1.29024 3.38365C1.15425 3.52048 1.15425 3.55427 1.24686 3.72364C1.45836 4.1116 1.6757 4.49623 1.88387 4.88628C1.92726 4.96721 1.9331 5.03729 1.88804 5.12031C1.67612 5.50994 1.508 5.91835 1.37952 6.34261C1.34614 6.45315 1.28399 6.51573 1.1701 6.54618C0.788393 6.64797 0.411692 6.76812 0.0308194 6.87491C-0.0584541 6.89994 -0.153151 6.91245 -0.229492 6.97378V9.59567C-0.162746 9.6524 -0.0780609 9.66283 0.00120063 9.68494C0.387079 9.79257 0.768369 9.91563 1.1555 10.0174C1.2819 10.0508 1.34906 10.115 1.38577 10.2385C1.51009 10.6586 1.67863 11.0616 1.88846 11.4462C1.93351 11.5292 1.93059 11.5981 1.88721 11.6798C1.67904 12.0699 1.46128 12.4545 1.24936 12.8425C1.15508 13.0156 1.15383 13.0473 1.28816 13.182C1.81337 13.7093 2.339 14.2354 2.8663 14.7602C2.99729 14.8903 3.03191 14.8899 3.19294 14.8031C3.58174 14.5929 3.96636 14.3751 4.35558 14.1653C4.43359 14.1232 4.50284 14.1048 4.58919 14.152C4.99176 14.3726 5.41518 14.5458 5.85571 14.6755C5.94707 14.7022 5.99087 14.7564 6.01465 14.8457C6.07138 15.0568 6.12645 15.2687 6.1957 15.4756C6.28456 15.7409 6.32502 16.0217 6.45059 16.2753H9.07248C9.1338 16.1994 9.1459 16.1043 9.17134 16.015C9.28148 15.6354 9.39828 15.2579 9.50007 14.8762C9.53011 14.7639 9.58601 14.6993 9.70031 14.6659C10.1208 14.5424 10.5246 14.3764 10.9093 14.1661C11.0073 14.1127 11.0874 14.1157 11.1854 14.1703C11.5671 14.3818 11.9472 14.5971 12.3339 14.8006C12.5028 14.8895 12.5287 14.8887 12.6601 14.7585C13.187 14.2337 13.713 13.7077 14.2378 13.1808C14.3688 13.049 14.3692 13.0152 14.2816 12.8546C14.0697 12.4666 13.8532 12.0811 13.6434 11.6923C13.5933 11.5997 13.5929 11.5242 13.6438 11.4308C13.8432 11.0645 14.0105 10.6828 14.1214 10.2807C14.1652 10.1234 14.2537 10.0495 14.4026 10.0095C14.8098 9.90061 15.2111 9.77129 15.6174 9.66116C15.7329 9.62987 15.7713 9.57606 15.7705 9.45466C15.7647 8.67456 15.7647 7.89446 15.7705 7.11436ZM7.76132 13.1241C5.09355 13.1236 2.9222 10.9523 2.92261 8.2841C2.92261 5.6159 5.09355 3.44539 7.76174 3.44539C10.4308 3.44539 12.6004 5.61507 12.6004 8.28451C12.6009 10.9531 10.4299 13.1241 7.76132 13.1241Z" fill="black"/>
<path d="M15.7705 9.45466C15.7713 9.57606 15.7329 9.62987 15.6174 9.66116C15.2111 9.77129 14.8098 9.90061 14.4026 10.0095C14.2537 10.0495 14.1652 10.1234 14.1214 10.2807C14.0105 10.6828 13.8432 11.0645 13.6438 11.4308C13.5929 11.5242 13.5933 11.5997 13.6434 11.6923C13.8532 12.0811 14.0697 12.4666 14.2816 12.8546C14.3692 13.0152 14.3688 13.049 14.2378 13.1808C13.713 13.7077 13.187 14.2337 12.6601 14.7585C12.5287 14.8887 12.5028 14.8895 12.3339 14.8006C11.9472 14.5971 11.5671 14.3818 11.1854 14.1703C11.0874 14.1157 11.0073 14.1127 10.9093 14.1661C10.5246 14.3764 10.1208 14.5424 9.70031 14.6659C9.58601 14.6993 9.53011 14.7639 9.50007 14.8762C9.39828 15.2579 9.28148 15.6354 9.17134 16.015C9.1459 16.1043 9.1338 16.1994 9.07248 16.2753C9.12337 15.947 9.24935 15.6387 9.33154 15.3183C9.38452 15.1127 9.40245 14.8724 9.52427 14.7168C9.64232 14.5666 9.89805 14.5708 10.0891 14.4957C10.3736 14.3831 10.6548 14.2621 10.9205 14.1107C11.0094 14.0602 11.0724 14.0602 11.1608 14.1102C11.5713 14.3426 11.988 14.5645 12.399 14.7965C12.4782 14.8411 12.5199 14.8311 12.5821 14.7689C13.1344 14.2108 13.6897 13.6551 14.2483 13.1024C14.3125 13.0385 14.3158 12.996 14.2725 12.9192C14.0409 12.5075 13.8194 12.0907 13.5862 11.6802C13.5353 11.5906 13.5395 11.528 13.5887 11.4404C13.8148 11.0361 13.9909 10.6094 14.1181 10.1647C14.1452 10.0708 14.1878 10.0283 14.2762 10.0037C14.7205 9.87892 15.1627 9.74626 15.6078 9.62403C15.7217 9.59316 15.7571 9.54352 15.7559 9.42254C15.7488 8.65788 15.7496 7.89321 15.7555 7.12855C15.7563 7.01841 15.7217 6.97712 15.6203 6.94917C15.1706 6.82485 14.723 6.69219 14.2741 6.56412C14.1944 6.54159 14.1473 6.5078 14.1214 6.41728C13.9925 5.96173 13.8123 5.52579 13.5795 5.11322C13.5357 5.03562 13.5353 4.97847 13.5791 4.90046C13.8136 4.48455 14.0393 4.06404 14.2737 3.64855C14.3183 3.5697 14.3096 3.52757 14.2466 3.46499C13.6884 2.91267 13.1328 2.357 12.5804 1.79883C12.5174 1.73501 12.4757 1.72958 12.3973 1.7738C11.991 2.00366 11.5784 2.22184 11.1729 2.45337C11.0736 2.50968 11.0015 2.5051 10.9047 2.45086C10.5013 2.22434 10.0741 2.04955 9.62856 1.92398C9.53803 1.89854 9.50341 1.85181 9.48088 1.77213C9.35114 1.31826 9.2164 0.86605 9.09083 0.411339C9.06538 0.318728 9.02784 0.290778 8.93314 0.291612C8.15262 0.295367 7.37252 0.295367 6.59242 0.291612C6.4994 0.291195 6.45893 0.314139 6.43265 0.409253C6.30875 0.858958 6.17234 1.30533 6.04677 1.75503C6.01882 1.85557 5.97043 1.90479 5.86739 1.93399C5.42186 2.05956 4.99635 2.23853 4.59295 2.46546C4.51577 2.50885 4.4582 2.51219 4.37978 2.46797C3.96428 2.23352 3.54336 2.00825 3.12786 1.77339C3.05027 1.72958 3.00772 1.73417 2.94431 1.798C2.39198 2.35617 1.83673 2.91183 1.27773 3.46333C1.20598 3.53424 1.2139 3.58138 1.2577 3.65981C1.48881 4.07155 1.71158 4.48747 1.94269 4.89921C1.98608 4.97639 1.98858 5.03312 1.94436 5.11197C1.70866 5.52871 1.52928 5.97008 1.39579 6.43021C1.3791 6.48736 1.36408 6.53158 1.29567 6.55077C0.801742 6.69052 0.309069 6.83444 -0.184438 6.97628C-0.197788 6.98045 -0.214057 6.97461 -0.229492 6.97378C-0.153151 6.91245 -0.0584541 6.89994 0.0308194 6.87491C0.411692 6.76812 0.788393 6.64797 1.1701 6.54618C1.28399 6.51573 1.34614 6.45315 1.37952 6.34261C1.508 5.91835 1.67612 5.50994 1.88804 5.12031C1.9331 5.03729 1.92726 4.96721 1.88387 4.88628C1.6757 4.49623 1.45836 4.1116 1.24686 3.72364C1.15425 3.55427 1.15425 3.52048 1.29024 3.38365C1.81462 2.85677 2.34067 2.33072 2.86797 1.80634C2.99729 1.67702 3.03191 1.67785 3.19502 1.76629C3.57423 1.97196 3.95176 2.18096 4.3293 2.39037C4.43568 2.44919 4.52245 2.4542 4.63299 2.39371C5.00344 2.19055 5.39265 2.02953 5.79814 1.91105C5.9283 1.87309 5.99504 1.8005 6.02967 1.66993C6.13896 1.25777 6.26954 0.851866 6.38175 0.440123C6.41346 0.3229 6.46269 0.273674 6.59493 0.274926C7.37503 0.282017 8.15513 0.2816 8.93523 0.275343C9.05954 0.274508 9.10793 0.319145 9.13881 0.43178C9.25394 0.853118 9.38577 1.26945 9.50049 1.6912C9.53094 1.80384 9.5906 1.86892 9.70198 1.90229C10.1317 2.03161 10.5447 2.20182 10.938 2.41749C11.0227 2.4638 11.092 2.44919 11.1717 2.40581C11.5638 2.19097 11.9543 1.97363 12.3468 1.75879C12.4678 1.69287 12.5537 1.70122 12.6501 1.79842C13.1816 2.33322 13.7147 2.86636 14.2499 3.39825C14.3534 3.50087 14.3517 3.59348 14.2825 3.71655C14.066 4.10159 13.8524 4.4883 13.6434 4.87794C13.5975 4.96345 13.5883 5.03646 13.6375 5.12573C13.8482 5.50994 14.0155 5.91334 14.139 6.33385C14.1719 6.44648 14.2337 6.50864 14.345 6.54076C14.7701 6.66257 15.1927 6.79148 15.6191 6.90828C15.7355 6.9404 15.7713 6.99422 15.7705 7.11436C15.7647 7.89446 15.7647 8.67456 15.7705 9.45466Z" fill="#FEFEFE"/>
<path d="M6.45059 16.2754C6.32502 16.0217 6.28456 15.741 6.1957 15.4757C6.12645 15.2687 6.07138 15.0568 6.01465 14.8457C5.99087 14.7565 5.94707 14.7022 5.85571 14.6755C5.41518 14.5458 4.99176 14.3727 4.58919 14.152C4.50284 14.1049 4.43359 14.1232 4.35558 14.1653C3.96636 14.3752 3.58174 14.5929 3.19294 14.8032C3.03191 14.89 2.99729 14.8904 2.8663 14.7602C2.339 14.2354 1.81337 13.7094 1.28816 13.1821C1.15383 13.0473 1.15508 13.0156 1.24936 12.8425C1.46128 12.4545 1.67904 12.0699 1.88721 11.6799C1.93059 11.5981 1.93351 11.5293 1.88846 11.4463C1.67863 11.0616 1.51009 10.6586 1.38577 10.2386C1.34906 10.1151 1.2819 10.0508 1.1555 10.0175C0.768369 9.91567 0.387079 9.79261 0.00120063 9.68498C-0.0780609 9.66287 -0.162746 9.65244 -0.229492 9.5957C0.0141328 9.62198 0.239402 9.71918 0.473433 9.78218C0.738333 9.85351 1.00156 9.93361 1.26605 10.0079C1.33655 10.0275 1.37576 10.0613 1.39746 10.138C1.52761 10.5986 1.70866 11.0391 1.94394 11.4563C1.98775 11.5343 1.98733 11.5914 1.94353 11.669C1.7095 12.0849 1.48423 12.5054 1.24936 12.9205C1.20514 12.9998 1.21432 13.0423 1.27689 13.1041C1.83465 13.6564 2.39073 14.2108 2.94222 14.7698C3.01356 14.842 3.0607 14.832 3.13829 14.7882C3.55003 14.5575 3.96553 14.3343 4.37727 14.1036C4.45361 14.0606 4.51118 14.0569 4.59044 14.1015C5.00177 14.3355 5.43896 14.5116 5.89284 14.6459C5.96042 14.6664 6.01089 14.6843 6.03342 14.7656C6.16817 15.2445 6.30959 15.7218 6.44767 16.1999C6.45434 16.2232 6.44975 16.2503 6.45059 16.2754Z" fill="#FEFEFE"/>
<path d="M7.77351 4.38185C5.61884 4.37518 3.86216 6.12269 3.8584 8.27568C3.85507 10.4308 5.60299 12.1849 7.7564 12.1874C9.90439 12.19 11.6565 10.447 11.664 8.30071C11.6711 6.14438 9.92775 4.38811 7.77351 4.38185ZM7.74597 9.56931C7.58787 9.72742 7.42809 9.88386 7.27291 10.0449C7.2266 10.0929 7.1999 10.0962 7.15109 10.0466C6.68971 9.58141 6.22582 9.11836 5.7611 8.65656C5.71229 8.60816 5.71396 8.57938 5.76277 8.53224C5.94548 8.35453 6.12737 8.17598 6.30258 7.99118C6.36432 7.9261 6.39269 7.95989 6.43649 8.00411C6.69179 8.26317 6.94877 8.52056 7.2095 8.78254C7.83483 8.15721 8.45516 7.54314 9.06672 6.91948C9.17352 6.8106 9.22816 6.81185 9.32828 6.92156C9.49598 7.10553 9.68204 7.2724 9.86559 7.45136C9.15099 8.16555 8.44848 8.86722 7.74597 9.56931Z" fill="#FEFEFE"/>
<path d="M7.77351 4.38185C5.61884 4.37518 3.86216 6.12269 3.8584 8.27568C3.85507 10.4308 5.60299 12.1849 7.7564 12.1874C9.90439 12.19 11.6565 10.447 11.664 8.30071C11.6711 6.14438 9.92775 4.38811 7.77351 4.38185ZM7.74597 9.56931C7.58787 9.72742 7.42809 9.88386 7.27291 10.0449C7.2266 10.0929 7.1999 10.0962 7.15109 10.0466C6.68971 9.58141 6.22582 9.11836 5.7611 8.65656C5.71229 8.60816 5.71396 8.57938 5.76277 8.53224C5.94548 8.35453 6.12737 8.17598 6.30258 7.99118C6.36432 7.9261 6.39269 7.95989 6.43649 8.00411C6.69179 8.26317 6.94877 8.52056 7.2095 8.78254C7.83483 8.15721 8.45516 7.54314 9.06672 6.91948C9.17352 6.8106 9.22816 6.81185 9.32828 6.92156C9.49598 7.10553 9.68204 7.2724 9.86559 7.45136C9.15099 8.16555 8.44848 8.86722 7.74597 9.56931Z" fill="black"/>
</g>
<defs>
<clipPath id="clip0_524_636">
<rect width="15" height="16" fill="white"/>
</clipPath>
</defs>
</svg>
