<svg width="15" height="16" viewBox="0 0 15 16" fill="none" xmlns="http://www.w3.org/2000/svg">
<g clip-path="url(#clip0_524_575)">
<path d="M3.35199 15.1518C2.6354 13.9812 1.91977 12.8103 1.20124 11.6411C1.06043 11.4126 0.855966 11.3618 0.607135 11.4874C0.386756 11.5988 0.168788 11.715 -0.0491804 11.8317C-0.312478 11.9729 -0.366488 12.1555 -0.216032 12.4036C-0.00529748 12.751 0.209295 13.0967 0.421476 13.4436C0.917209 14.2525 1.41198 15.0618 1.90867 15.8706C2.05045 16.1018 2.25058 16.1744 2.47578 16.0653C2.7304 15.9419 2.97874 15.8074 3.22613 15.6724C3.35344 15.6034 3.42143 15.4956 3.4195 15.3428C3.42384 15.28 3.39057 15.215 3.35199 15.1518ZM0.708886 12.6263C0.560841 12.6241 0.452339 12.5212 0.452821 12.3831C0.452821 12.2397 0.571932 12.1355 0.727693 12.1422C0.874773 12.148 0.981828 12.2558 0.977006 12.3925C0.972183 12.5274 0.855484 12.629 0.708886 12.6263Z" fill="#FEFEFE"/>
<path d="M4.79522 6.02656C4.29274 6.02878 3.8867 5.6591 3.8838 5.19722C3.88091 4.72598 4.2884 4.34739 4.7957 4.34962C5.29578 4.35185 5.69651 4.72509 5.69651 5.1892C5.69699 5.65465 5.29819 6.02478 4.79522 6.02656Z" fill="#FEFEFE"/>
<path d="M5.77235 6.8718V7.28825C5.77235 7.6223 5.78295 7.65749 5.97778 7.94522H1.14631C0.574384 7.94522 0.298548 7.68911 0.298066 7.15864C0.297584 6.42684 0.298066 5.69505 0.298066 4.95924C0.323142 4.95612 0.342431 4.94811 0.354487 4.95345C1.11448 5.30042 1.93765 5.41667 2.76516 5.51466C2.78927 5.51778 2.81338 5.52045 2.83701 5.52C3.16251 5.51555 3.37759 5.60107 3.54975 5.91329C3.81111 6.38809 4.3107 6.5903 4.89324 6.55423C5.4695 6.51815 5.89483 6.24913 6.1292 5.76587C6.21455 5.59082 6.31775 5.5347 6.50196 5.54495C6.555 5.54806 6.60853 5.54049 6.68762 5.53648C6.62059 5.69371 6.56224 5.82644 6.50726 5.96006C6.48171 6.02108 6.42287 6.03132 6.36742 6.05181C5.90206 6.22285 5.77283 6.4019 5.77235 6.8718Z" fill="#FEFEFE"/>
<path d="M2.86976 0.794345C2.88953 0.414862 3.21504 0.122233 3.63361 0.117334C4.02422 0.112434 4.41531 0.115997 4.80592 0.115997C5.17868 0.115997 5.55096 0.11377 5.92373 0.116443C6.41078 0.120451 6.75557 0.474546 6.71989 0.92173C6.71362 0.99433 6.68903 1.01705 6.61283 1.01437C6.49324 1.00992 6.3722 1.00725 6.25261 1.01482C6.11469 1.02284 6.00137 1.02462 6.02885 0.843784C6.04043 0.767621 5.9705 0.747132 5.89431 0.747132C5.16084 0.748468 4.42737 0.749359 3.69438 0.746687C3.58057 0.746241 3.5391 0.794345 3.55308 0.88877C3.56948 0.997893 3.51547 1.02239 3.40986 1.01482C3.30859 1.00725 3.20588 1.01304 3.10364 1.01304C2.85867 1.01304 2.85867 1.01304 2.86976 0.794345Z" fill="#FEFEFE"/>
<path d="M2.21616 1.70913C2.2123 1.58487 2.23979 1.54166 2.38783 1.543C3.18737 1.55057 3.98739 1.54656 4.78693 1.54656C5.59274 1.54656 6.39854 1.55013 7.20435 1.54344C7.33889 1.54255 7.37795 1.5724 7.37313 1.69844C7.36204 1.99241 7.37217 2.28682 7.36879 2.58123C7.36541 2.92152 7.19133 3.08275 6.82773 3.0832C5.4688 3.08409 4.10988 3.08409 2.75095 3.0832C2.39651 3.08275 2.22194 2.92063 2.21953 2.59192C2.21712 2.29751 2.22532 2.0031 2.21616 1.70913Z" fill="#FEFEFE"/>
<path d="M-0.147266 3.39109C-0.137621 3.16393 -0.145819 2.93588 -0.145819 2.70828C-0.145819 2.45262 -0.14823 2.19741 -0.144855 1.94175C-0.140997 1.67183 -0.0030791 1.54757 0.290117 1.54668C0.686993 1.54534 1.08387 1.55336 1.48074 1.54267C1.62493 1.5391 1.64663 1.58632 1.64326 1.70346C1.63506 2.00856 1.63795 2.3141 1.64133 2.61965C1.64711 3.20936 2.0816 3.61423 2.71718 3.61557C4.10022 3.61824 5.48326 3.61824 6.86629 3.61557C7.48644 3.61423 7.92286 3.22451 7.94263 2.65172C7.95372 2.33014 7.9489 2.00767 7.94359 1.68564C7.94215 1.58587 7.95758 1.54044 8.08634 1.54311C8.50057 1.55158 8.91577 1.54445 9.33049 1.54712C9.56775 1.5489 9.72158 1.67851 9.72592 1.8932C9.73315 2.28203 9.72544 2.67043 9.73026 3.05926C9.73171 3.14255 9.69795 3.15859 9.61742 3.16304C9.26635 3.18219 9.03488 3.35234 8.92976 3.66011C8.88732 3.78393 8.80968 3.85831 8.67369 3.88103C8.53288 3.90463 8.421 4.05429 8.26042 3.97679C7.81002 3.7581 7.4821 3.84851 7.15467 4.18479C7.02205 4.32109 6.87449 4.44402 6.73609 4.57541C6.64688 4.66004 6.56876 4.75802 6.5567 4.8765C6.54368 5.00611 6.46508 5.01725 6.35223 5.0217C6.21673 5.02749 6.2529 4.92772 6.23795 4.87249C6.07254 4.24893 5.47409 3.81288 4.78065 3.81644C4.09106 3.82001 3.49406 4.2663 3.34263 4.89254C3.32576 4.96291 3.32817 5.03061 3.20665 5.02037C2.41048 4.95267 1.61866 4.86581 0.869758 4.58209C0.691815 4.51439 0.524481 4.42976 0.367756 4.32509C0.0215146 4.09482 -0.165109 3.79417 -0.147266 3.39109Z" fill="#FEFEFE"/>
<path d="M13.5451 11.3918C13.6179 11.6225 13.5408 11.8465 13.3377 11.9628C12.7721 12.2875 12.204 12.6086 11.6369 12.9311C10.6406 13.4977 9.64096 14.0589 8.64998 14.6334C8.20295 14.8931 7.74387 14.9457 7.23849 14.8169C6.15203 14.5399 5.06074 14.2802 3.97331 14.0063C3.80357 13.964 3.65504 13.9631 3.51423 14.0629C3.43369 14.1203 3.38306 14.1252 3.32375 14.0263C2.94809 13.4019 2.56616 12.7801 2.18231 12.1601C2.13601 12.0857 2.1418 12.0523 2.22426 12.0087C2.83476 11.6893 3.44093 11.3628 4.05191 11.0444C4.50087 10.8096 4.95899 10.7798 5.45183 10.9553C6.25137 11.2395 7.05958 11.504 7.9059 11.6546C8.15039 11.6978 8.31676 11.9258 8.283 12.1347C8.24442 12.3717 8.06696 12.5062 7.78148 12.4844C7.43331 12.4572 7.10298 12.3467 6.76687 12.2652C6.51177 12.2038 6.25956 12.132 6.00446 12.0701C5.82749 12.0269 5.6833 12.0995 5.63459 12.2479C5.58782 12.389 5.67269 12.5325 5.85015 12.5779C6.53781 12.7534 7.21776 12.9569 7.92471 13.0598C8.04912 13.0781 8.17595 13.0808 8.30133 13.0906C8.67988 13.099 9.02564 13.0019 9.34873 12.8282C10.1989 12.3717 11.0486 11.9134 11.8988 11.4564C12.1741 11.3089 12.4553 11.174 12.7687 11.1045C12.8695 11.0822 12.9703 11.0733 13.072 11.0756C13.316 11.0805 13.4829 11.1931 13.5451 11.3918Z" fill="#FEFEFE"/>
<path d="M13.7013 6.74271C13.7018 6.66565 13.6647 6.6033 13.589 6.59083C13.1916 6.52713 13.0503 6.27281 12.9066 5.95212C12.7745 5.65771 12.7099 5.41675 12.91 5.14594C12.9751 5.05864 12.9461 4.98114 12.8651 4.90988C12.7263 4.78739 12.5811 4.66847 12.4596 4.53173C12.3279 4.38386 12.1929 4.36293 12.0256 4.46537C11.8076 4.59943 11.5925 4.62215 11.3736 4.46136C11.3239 4.42484 11.2574 4.39767 11.1942 4.38742C10.8552 4.33219 10.6425 4.16517 10.5842 3.84136C10.563 3.72333 10.466 3.6877 10.3426 3.6917C10.1801 3.6966 10.018 3.69304 9.85554 3.69304C9.52858 3.69304 9.51556 3.68903 9.41381 3.98211C9.34582 4.17853 9.24503 4.31037 9.01067 4.33843C8.93014 4.34823 8.8414 4.37584 8.77727 4.42038C8.49227 4.61992 8.21451 4.59765 7.92903 4.42484C7.82824 4.36382 7.74144 4.39321 7.65994 4.47383C7.51575 4.61547 7.36819 4.75443 7.21339 4.88538C7.10923 4.97357 7.08271 5.05686 7.1536 5.17623C7.22497 5.29693 7.27609 5.42833 7.33878 5.56106C7.32093 5.59268 7.30164 5.62564 7.28332 5.65949C7.22256 5.77396 7.13093 5.88308 7.10827 6.00379C7.04606 6.33116 6.84835 6.51511 6.50162 6.57836C6.37865 6.60063 6.34634 6.68392 6.34876 6.79037C6.35261 6.94537 6.34972 7.10126 6.34972 7.25626C6.34972 7.54577 6.34586 7.5578 6.64002 7.64465C6.86185 7.71012 7.02436 7.80188 7.05281 8.03482C7.06053 8.09851 7.08802 8.16755 7.12852 8.21966C7.33781 8.49136 7.34794 8.75949 7.13913 9.03564C7.07982 9.11358 7.10248 9.18975 7.17916 9.25789C7.34746 9.40844 7.51238 9.56255 7.67682 9.71666C7.74288 9.77902 7.81956 9.81242 7.90106 9.76031C8.22608 9.55275 8.51542 9.63782 8.85732 9.76922C9.17414 9.89126 9.40513 10.0204 9.47313 10.3398C9.49724 10.4525 9.58066 10.4859 9.69929 10.4819C9.87916 10.4756 10.0614 10.4658 10.2394 10.4841C10.4574 10.5059 10.5837 10.4355 10.6271 10.2373C10.6763 10.0137 10.7954 9.85785 11.065 9.8338C11.1339 9.82756 11.2072 9.79817 11.2641 9.76031C11.5535 9.56968 11.8394 9.56656 12.1321 9.7514C12.2185 9.80574 12.3 9.79015 12.3742 9.72022C12.542 9.56121 12.7132 9.40532 12.8839 9.24899C12.9466 9.19153 12.9727 9.12249 12.9211 9.05435C12.7012 8.76127 12.7807 8.49938 12.9244 8.18626C13.0619 7.88561 13.194 7.65356 13.5629 7.59387C13.6536 7.57962 13.7028 7.51815 13.7013 7.42507C13.6984 7.19746 13.6994 6.96986 13.7013 6.74271ZM11.8409 7.13021C11.796 8.0709 10.968 8.80225 9.99008 8.76528C8.92531 8.72475 8.16628 7.95376 8.21595 6.96274C8.2608 6.06837 9.13074 5.37354 10.1531 5.41497C11.0953 5.45327 11.8823 6.25321 11.8409 7.13021Z" fill="#FEFEFE"/>
<path d="M13.7013 6.74271C13.7018 6.66565 13.6647 6.6033 13.589 6.59083C13.1916 6.52713 13.0503 6.27281 12.9066 5.95212C12.7745 5.65771 12.7099 5.41675 12.91 5.14594C12.9751 5.05864 12.9461 4.98114 12.8651 4.90988C12.7263 4.78739 12.5811 4.66847 12.4596 4.53173C12.3279 4.38386 12.1929 4.36293 12.0256 4.46537C11.8076 4.59943 11.5925 4.62215 11.3736 4.46136C11.3239 4.42484 11.2574 4.39767 11.1942 4.38742C10.8552 4.33219 10.6425 4.16517 10.5842 3.84136C10.563 3.72333 10.466 3.6877 10.3426 3.6917C10.1801 3.6966 10.018 3.69304 9.85554 3.69304C9.52858 3.69304 9.51556 3.68903 9.41381 3.98211C9.34582 4.17853 9.24503 4.31037 9.01067 4.33843C8.93014 4.34823 8.8414 4.37584 8.77727 4.42038C8.49227 4.61992 8.21451 4.59765 7.92903 4.42484C7.82824 4.36382 7.74144 4.39321 7.65994 4.47383C7.51575 4.61547 7.36819 4.75443 7.21339 4.88538C7.10923 4.97357 7.08271 5.05686 7.1536 5.17623C7.22497 5.29693 7.27609 5.42833 7.33878 5.56106C7.32093 5.59268 7.30164 5.62564 7.28332 5.65949C7.22256 5.77396 7.13093 5.88308 7.10827 6.00379C7.04606 6.33116 6.84835 6.51511 6.50162 6.57836C6.37865 6.60063 6.34634 6.68392 6.34876 6.79037C6.35261 6.94537 6.34972 7.10126 6.34972 7.25626C6.34972 7.54577 6.34586 7.5578 6.64002 7.64465C6.86185 7.71012 7.02436 7.80188 7.05281 8.03482C7.06053 8.09851 7.08802 8.16755 7.12852 8.21966C7.33781 8.49136 7.34794 8.75949 7.13913 9.03564C7.07982 9.11358 7.10248 9.18975 7.17916 9.25789C7.34746 9.40844 7.51238 9.56255 7.67682 9.71666C7.74288 9.77902 7.81956 9.81242 7.90106 9.76031C8.22608 9.55275 8.51542 9.63782 8.85732 9.76922C9.17414 9.89126 9.40513 10.0204 9.47313 10.3398C9.49724 10.4525 9.58066 10.4859 9.69929 10.4819C9.87916 10.4756 10.0614 10.4658 10.2394 10.4841C10.4574 10.5059 10.5837 10.4355 10.6271 10.2373C10.6763 10.0137 10.7954 9.85785 11.065 9.8338C11.1339 9.82756 11.2072 9.79817 11.2641 9.76031C11.5535 9.56968 11.8394 9.56656 12.1321 9.7514C12.2185 9.80574 12.3 9.79015 12.3742 9.72022C12.542 9.56121 12.7132 9.40532 12.8839 9.24899C12.9466 9.19153 12.9727 9.12249 12.9211 9.05435C12.7012 8.76127 12.7807 8.49938 12.9244 8.18626C13.0619 7.88561 13.194 7.65356 13.5629 7.59387C13.6536 7.57962 13.7028 7.51815 13.7013 7.42507C13.6984 7.19746 13.6994 6.96986 13.7013 6.74271ZM11.8409 7.13021C11.796 8.0709 10.968 8.80225 9.99008 8.76528C8.92531 8.72475 8.16628 7.95376 8.21595 6.96274C8.2608 6.06837 9.13074 5.37354 10.1531 5.41497C11.0953 5.45327 11.8823 6.25321 11.8409 7.13021Z" fill="black"/>
<path d="M13.3377 11.9628C12.7721 12.2875 12.204 12.6086 11.6369 12.9311C10.6406 13.4977 9.64096 14.0589 8.64998 14.6334C8.20295 14.8931 7.74387 14.9457 7.23849 14.8169C6.15203 14.5399 5.06074 14.2802 3.97331 14.0063C3.80357 13.964 3.65504 13.9631 3.51423 14.0629C3.43369 14.1203 3.38306 14.1252 3.32375 14.0263C2.94809 13.4019 2.56616 12.7801 2.18231 12.1601C2.13601 12.0857 2.1418 12.0523 2.22426 12.0087C2.83476 11.6893 3.44093 11.3628 4.05191 11.0444C4.50087 10.8096 4.95899 10.7798 5.45183 10.9553C6.25137 11.2395 7.05958 11.504 7.9059 11.6546C8.15039 11.6978 8.31676 11.9258 8.283 12.1347C8.24442 12.3717 8.06696 12.5062 7.78148 12.4844C7.43331 12.4572 7.10298 12.3467 6.76687 12.2652C6.51177 12.2038 6.25956 12.132 6.00446 12.0701C5.82749 12.0269 5.6833 12.0995 5.63459 12.2479C5.58782 12.389 5.67269 12.5325 5.85015 12.5779C6.53781 12.7534 7.21776 12.9569 7.92471 13.0598C8.04912 13.0781 8.17595 13.0808 8.30133 13.0906C8.67988 13.099 9.02564 13.0019 9.34873 12.8282C10.1989 12.3717 11.0486 11.9134 11.8988 11.4564C12.1741 11.3089 12.4553 11.174 12.7687 11.1045C12.8695 11.0822 12.9703 11.0733 13.072 11.0756C13.316 11.0805 13.4829 11.1931 13.5451 11.3918C13.6179 11.6225 13.5408 11.8465 13.3377 11.9628Z" fill="black"/>
<path d="M9.73026 3.05926C9.73171 3.14255 9.69795 3.15859 9.61742 3.16304C9.26635 3.18219 9.03488 3.35234 8.92976 3.66011C8.88732 3.78393 8.80968 3.85831 8.67369 3.88103C8.53288 3.90463 8.421 4.05429 8.26042 3.97679C7.81002 3.7581 7.4821 3.84851 7.15467 4.18479C7.02205 4.32109 6.87449 4.44402 6.73609 4.57541C6.64688 4.66004 6.56876 4.75802 6.5567 4.8765C6.54368 5.00611 6.46508 5.01725 6.35223 5.0217C6.21673 5.02749 6.2529 4.92772 6.23795 4.87249C6.07254 4.24893 5.47409 3.81288 4.78065 3.81644C4.09106 3.82001 3.49406 4.2663 3.34263 4.89254C3.32576 4.96291 3.32817 5.03061 3.20665 5.02037C2.41048 4.95267 1.61866 4.86581 0.869758 4.58209C0.691815 4.51439 0.524481 4.42976 0.367756 4.32509C0.0215146 4.09482 -0.165109 3.79417 -0.147266 3.39109C-0.137621 3.16393 -0.145819 2.93588 -0.145819 2.70828C-0.145819 2.45262 -0.14823 2.19741 -0.144855 1.94175C-0.140997 1.67183 -0.0030791 1.54757 0.290117 1.54668C0.686993 1.54534 1.08387 1.55336 1.48074 1.54267C1.62493 1.5391 1.64663 1.58632 1.64326 1.70346C1.63506 2.00856 1.63795 2.3141 1.64133 2.61965C1.64711 3.20936 2.0816 3.61423 2.71718 3.61557C4.10022 3.61824 5.48326 3.61824 6.86629 3.61557C7.48644 3.61423 7.92286 3.22451 7.94263 2.65172C7.95372 2.33014 7.9489 2.00767 7.94359 1.68564C7.94215 1.58587 7.95758 1.54044 8.08634 1.54311C8.50057 1.55158 8.91577 1.54445 9.33049 1.54712C9.56775 1.5489 9.72158 1.67851 9.72592 1.8932C9.73315 2.28203 9.72544 2.67043 9.73026 3.05926Z" fill="black"/>
<path d="M6.68762 5.53648C6.62059 5.69371 6.56224 5.82644 6.50726 5.96006C6.48171 6.02108 6.42287 6.03132 6.36742 6.05181C5.90206 6.22285 5.77283 6.4019 5.77235 6.8718V7.28825C5.77235 7.6223 5.78295 7.65749 5.97778 7.94522H1.14631C0.574384 7.94522 0.298548 7.68911 0.298066 7.15864C0.297584 6.42684 0.298066 5.69505 0.298066 4.95924C0.323142 4.95612 0.342431 4.94811 0.354487 4.95345C1.11448 5.30042 1.93765 5.41667 2.76516 5.51466C2.78927 5.51778 2.81338 5.52045 2.83701 5.52C3.16251 5.51555 3.37759 5.60107 3.54975 5.91329C3.81111 6.38809 4.3107 6.5903 4.89324 6.55423C5.4695 6.51815 5.89483 6.24913 6.1292 5.76587C6.21455 5.59082 6.31775 5.5347 6.50196 5.54495C6.555 5.54806 6.60853 5.54049 6.68762 5.53648Z" fill="black"/>
<path d="M7.36879 2.58123C7.36541 2.92152 7.19133 3.08275 6.82773 3.0832C5.4688 3.08409 4.10988 3.08409 2.75095 3.0832C2.39651 3.08275 2.22194 2.92063 2.21953 2.59192C2.21712 2.29751 2.22532 2.0031 2.21616 1.70913C2.2123 1.58487 2.23979 1.54166 2.38783 1.543C3.18737 1.55057 3.98739 1.54656 4.78693 1.54656C5.59274 1.54656 6.39854 1.55013 7.20435 1.54344C7.33889 1.54255 7.37795 1.5724 7.37313 1.69844C7.36204 1.99241 7.37217 2.28682 7.36879 2.58123Z" fill="black"/>
<path d="M3.35199 15.1518C2.6354 13.9812 1.91977 12.8103 1.20124 11.6411C1.06043 11.4126 0.855966 11.3618 0.607135 11.4874C0.386756 11.5988 0.168788 11.715 -0.0491804 11.8317C-0.312478 11.9729 -0.366488 12.1555 -0.216032 12.4036C-0.00529748 12.751 0.209295 13.0967 0.421476 13.4436C0.917209 14.2525 1.41198 15.0618 1.90867 15.8706C2.05045 16.1018 2.25058 16.1744 2.47578 16.0653C2.7304 15.9419 2.97874 15.8074 3.22613 15.6724C3.35344 15.6034 3.42143 15.4956 3.4195 15.3428C3.42384 15.28 3.39057 15.215 3.35199 15.1518ZM0.708886 12.6263C0.560841 12.6241 0.452339 12.5212 0.452821 12.3831C0.452821 12.2397 0.571932 12.1355 0.727693 12.1422C0.874773 12.148 0.981828 12.2558 0.977006 12.3925C0.972183 12.5274 0.855484 12.629 0.708886 12.6263Z" fill="black"/>
<path d="M6.71989 0.92173C6.71362 0.99433 6.68903 1.01705 6.61283 1.01437C6.49324 1.00992 6.3722 1.00725 6.25261 1.01482C6.11469 1.02284 6.00137 1.02462 6.02885 0.843784C6.04043 0.767621 5.9705 0.747132 5.89431 0.747132C5.16084 0.748468 4.42737 0.749359 3.69438 0.746687C3.58057 0.746241 3.5391 0.794345 3.55308 0.88877C3.56948 0.997893 3.51547 1.02239 3.40986 1.01482C3.30859 1.00725 3.20588 1.01304 3.10364 1.01304C2.85867 1.01304 2.85867 1.01304 2.86976 0.794345C2.88953 0.414862 3.21504 0.122233 3.63361 0.117334C4.02422 0.112434 4.41531 0.115997 4.80592 0.115997C5.17868 0.115997 5.55096 0.11377 5.92373 0.116443C6.41078 0.120451 6.75557 0.474546 6.71989 0.92173Z" fill="black"/>
<path d="M5.69651 5.1892C5.69699 5.65465 5.29819 6.02478 4.79522 6.02656C4.29274 6.02878 3.8867 5.6591 3.8838 5.19722C3.88091 4.72598 4.2884 4.34739 4.7957 4.34962C5.29578 4.35185 5.69651 4.72509 5.69651 5.1892Z" fill="black"/>
</g>
<defs>
<clipPath id="clip0_524_575">
<rect width="15" height="16" fill="white"/>
</clipPath>
</defs>
</svg>
